<svg width="35" height="34" fill="none" xmlns="http://www.w3.org/2000/svg"><path fill-rule="evenodd" clip-rule="evenodd" d="M.333 1.214C.333.544.877 0 1.548 0h4.047a1.214 1.214 0 010 2.429H2.762v2.833a1.214 1.214 0 11-2.429 0V1.214zm34 0C34.333.544 33.79 0 33.12 0h-4.048a1.214 1.214 0 100 2.429h2.834v2.833a1.214 1.214 0 002.428 0V1.214zm-34 31.572c0 .67.544 1.214 1.215 1.214h4.047a1.214 1.214 0 000-2.429H2.762v-2.833a1.214 1.214 0 00-2.429 0v4.048zm34 0c0 .67-.543 1.214-1.214 1.214h-4.048a1.214 1.214 0 110-2.429h2.834v-2.833a1.214 1.214 0 012.428 0v4.048z" fill="#B36FDE"/><path fill-rule="evenodd" clip-rule="evenodd" d="M14.389 11.047a7.616 7.616 0 015.053-1.91 7.648 7.648 0 017.643 7.643 7.648 7.648 0 01-7.643 7.643 7.616 7.616 0 01-5.053-1.91.79.79 0 00-1.047 1.185 9.188 9.188 0 006.1 2.307c5.09 0 9.225-4.134 9.225-9.225 0-5.091-4.134-9.225-9.225-9.225a9.189 9.189 0 00-6.1 2.307.79.79 0 101.047 1.185z" fill="#80787A"/><path fill-rule="evenodd" clip-rule="evenodd" d="M18.23 12.141v4.217c0 .21.083.412.231.56l3.374 3.373a.79.79 0 101.117-1.118l-3.141-3.142v-3.89a.79.79 0 00-1.582 0zM6.79 13.88h6.326a.79.79 0 000-1.58H6.791a.791.791 0 000 1.58zm1.055 3.69h6.326a.791.791 0 000-1.58H7.845a.791.791 0 000 1.58zM8.9 21.26h6.325a.791.791 0 000-1.58H8.899a.791.791 0 000 1.58z" fill="#80787A"/></svg>