<svg width="34" height="34" fill="none" xmlns="http://www.w3.org/2000/svg"><path fill-rule="evenodd" clip-rule="evenodd" d="M0 1.214C0 .544.544 0 1.214 0h4.048a1.214 1.214 0 010 2.429H2.428v2.833a1.214 1.214 0 11-2.428 0V1.214zm34 0C34 .544 33.456 0 32.786 0h-4.048a1.214 1.214 0 100 2.429h2.833v2.833a1.214 1.214 0 002.429 0V1.214zM0 32.786C0 33.456.544 34 1.214 34h4.048a1.214 1.214 0 000-2.429H2.428v-2.833a1.214 1.214 0 00-2.428 0v4.048zm34 0c0 .67-.544 1.214-1.214 1.214h-4.048a1.214 1.214 0 110-2.429h2.833v-2.833a1.214 1.214 0 012.429 0v4.048z" fill="#B36FDE"/><path d="M26.788 8.5H7.212a1.545 1.545 0 00-1.545 1.546v13.393a1.545 1.545 0 001.545 1.546h19.576a1.545 1.545 0 001.545-1.546V10.046A1.546 1.546 0 0026.788 8.5zm.515 14.94a.515.515 0 01-.515.514H7.212a.515.515 0 01-.515-.515V10.046a.515.515 0 01.515-.516h19.576a.515.515 0 01.515.516v13.393z" fill="#80787A"/><path d="M14.94 15.197h-1.546V13.65a.515.515 0 00-.515-.515h-2.06a.515.515 0 00-.516.515v1.546H8.757a.515.515 0 00-.515.515v2.06a.515.515 0 00.515.516h1.546v1.545a.515.515 0 00.515.515h2.06a.515.515 0 00.516-.515v-1.545h1.545a.515.515 0 00.515-.515v-2.061a.515.515 0 00-.515-.515zm-.516 2.06H12.88a.515.515 0 00-.515.516v1.545h-1.03v-1.545a.515.515 0 00-.516-.516H9.273v-1.03h1.545a.515.515 0 00.515-.515v-1.546h1.03v1.546a.515.515 0 00.516.515h1.545v1.03zm10.303-4.121H18.03a.515.515 0 000 1.03h6.697a.515.515 0 100-1.03zm0 2.061H18.03a.515.515 0 000 1.03h6.697a.515.515 0 000-1.03zm0 2.061H18.03a.515.515 0 000 1.03h6.697a.515.515 0 000-1.03zm-3.091 2.06H18.03a.515.515 0 100 1.03h3.606a.515.515 0 000-1.03z" fill="#80787A"/></svg>