<svg width="35" height="34" fill="none" xmlns="http://www.w3.org/2000/svg"><path fill-rule="evenodd" clip-rule="evenodd" d="M.667 1.214C.667.544 1.21 0 1.88 0h4.048a1.214 1.214 0 010 2.429H3.095v2.833a1.214 1.214 0 11-2.428 0V1.214zm34 0c0-.67-.544-1.214-1.215-1.214h-4.047a1.214 1.214 0 100 2.429h2.833v2.833a1.214 1.214 0 102.429 0V1.214zm-34 31.572c0 .67.543 1.214 1.214 1.214h4.048a1.214 1.214 0 000-2.429H3.095v-2.833a1.214 1.214 0 00-2.428 0v4.048zm34 0c0 .67-.544 1.214-1.215 1.214h-4.047a1.214 1.214 0 110-2.429h2.833v-2.833a1.214 1.214 0 112.429 0v4.048z" fill="#B36FDE"/><path d="M28.336 7.302h-2.909c.01-.322.017-.646.017-.971a.664.664 0 00-.664-.665H10.554a.664.664 0 00-.664.665c0 .325.006.65.016.971H6.997a.664.664 0 00-.664.665c0 2.975.778 5.782 2.19 7.904 1.396 2.098 3.255 3.301 5.263 3.418.456.496.937.9 1.438 1.208v2.951H14.11a2.445 2.445 0 00-2.442 2.443v1.114h-.047a.664.664 0 000 1.328h12.092a.664.664 0 000-1.328h-.048V25.89a2.445 2.445 0 00-2.442-2.442h-1.114v-2.952a6.816 6.816 0 001.438-1.207c2.008-.118 3.868-1.32 5.264-3.419C28.223 13.75 29 10.942 29 7.967a.664.664 0 00-.664-.665zM9.629 15.136c-1.165-1.75-1.85-4.04-1.954-6.505H9.98c.24 3.03.951 5.832 2.063 8.056.177.354.363.688.555 1.003-1.105-.417-2.127-1.289-2.97-2.554zM22.337 25.89v1.114h-9.34V25.89c0-.614.499-1.114 1.113-1.114h7.113c.614 0 1.114.5 1.114 1.114zm-3.556-2.442h-2.229v-2.375a4.36 4.36 0 001.115.146c.377 0 .749-.05 1.114-.146v2.374zm.411-3.955a3.212 3.212 0 01-1.526.398 3.213 3.213 0 01-1.525-.398c-.52-.275-1.025-.691-1.501-1.238a.672.672 0 00-.085-.098c-.473-.562-.918-1.253-1.324-2.065-1.22-2.441-1.925-5.65-2.005-9.098h12.882c-.08 3.448-.786 6.657-2.006 9.098-.406.812-.851 1.503-1.324 2.065a.653.653 0 00-.085.099c-.476.546-.98.962-1.5 1.237zm6.513-4.358c-.843 1.265-1.865 2.137-2.97 2.555.193-.316.378-.65.555-1.004 1.112-2.224 1.823-5.026 2.063-8.056h2.305c-.104 2.465-.789 4.754-1.953 6.505z" fill="#80787A"/></svg>