<svg width="42" height="42" fill="none" xmlns="http://www.w3.org/2000/svg"><g filter="url(#filter0_b_386_225546)"><path d="M21 0C9.402 0 0 9.402 0 21s9.402 21 21 21 21-9.402 21-21C41.988 9.407 32.593.012 21 0zm8.844 21.67a1.5 1.5 0 01-.674.672v.008l-12 6A1.5 1.5 0 0115 27V15a1.5 1.5 0 012.17-1.342l12 6a1.5 1.5 0 01.674 2.011z" fill="#AEA8A5" fill-opacity=".8"/></g><g filter="url(#filter1_b_386_225546)"><path d="M29.844 21.67a1.5 1.5 0 01-.673.673v.008l-12 6A1.5 1.5 0 0115 27V15a1.5 1.5 0 012.17-1.343l12 6a1.5 1.5 0 01.674 2.012z" fill="#fff" fill-opacity=".6"/></g><defs><filter id="filter0_b_386_225546" x="-14" y="-14" width="70" height="70" filterUnits="userSpaceOnUse" color-interpolation-filters="sRGB"><feFlood flood-opacity="0" result="BackgroundImageFix"/><feGaussianBlur in="BackgroundImageFix" stdDeviation="7"/><feComposite in2="SourceAlpha" operator="in" result="effect1_backgroundBlur_386_225546"/><feBlend in="SourceGraphic" in2="effect1_backgroundBlur_386_225546" result="shape"/></filter><filter id="filter1_b_386_225546" x="1" y="-.5" width="43.002" height="43.008" filterUnits="userSpaceOnUse" color-interpolation-filters="sRGB"><feFlood flood-opacity="0" result="BackgroundImageFix"/><feGaussianBlur in="BackgroundImageFix" stdDeviation="7"/><feComposite in2="SourceAlpha" operator="in" result="effect1_backgroundBlur_386_225546"/><feBlend in="SourceGraphic" in2="effect1_backgroundBlur_386_225546" result="shape"/></filter></defs></svg>