<svg width="35" height="35" fill="none" xmlns="http://www.w3.org/2000/svg"><path fill-rule="evenodd" clip-rule="evenodd" d="M0 1.25C0 .56.56 0 1.25 0h4.167a1.25 1.25 0 010 2.5H2.5v2.917a1.25 1.25 0 01-2.5 0V1.25zm35 0C35 .56 34.44 0 33.75 0h-4.167a1.25 1.25 0 000 2.5H32.5v2.917a1.25 1.25 0 102.5 0V1.25zM0 33.75C0 34.44.56 35 1.25 35h4.167a1.25 1.25 0 100-2.5H2.5v-2.917a1.25 1.25 0 00-2.5 0v4.167zm35 0c0 .69-.56 1.25-1.25 1.25h-4.167a1.25 1.25 0 010-2.5H32.5v-2.917a1.25 1.25 0 012.5 0v4.167z" fill="#B36FDE"/><path d="M12.953 16.04h-2.43a.73.73 0 010-1.458h2.43a.73.73 0 010 1.458zm11.667 0h-7.29a.73.73 0 010-1.458h7.291a.73.73 0 010 1.458zm-11.667 3.891h-2.43a.73.73 0 010-1.458h2.43a.73.73 0 010 1.458zm11.667 0h-7.29a.73.73 0 010-1.458h7.291a.73.73 0 010 1.458zm-11.667 3.887h-2.43a.73.73 0 010-1.459h2.43a.73.73 0 010 1.459zm11.667 0h-7.29a.73.73 0 010-1.459h7.291a.73.73 0 010 1.459z" fill="#80787A"/><path d="M26.494 28.194H8.508a2.676 2.676 0 01-2.674-2.674V9.478a2.676 2.676 0 012.674-2.673h17.986a2.676 2.676 0 012.673 2.673V25.52a2.676 2.676 0 01-2.673 2.674zM8.508 8.263c-.67 0-1.216.545-1.216 1.215V25.52c0 .67.546 1.215 1.216 1.215h17.986c.67 0 1.215-.545 1.215-1.215V9.478c0-.67-.545-1.215-1.215-1.215H8.508z" fill="#80787A"/><path d="M28.438 11.665H6.563a.73.73 0 010-1.458h21.875a.73.73 0 010 1.458z" fill="#80787A"/></svg>