<svg width="133" height="193" fill="none" xmlns="http://www.w3.org/2000/svg"><g clip-path="url(#clip0_392_227804)" stroke="#E7E1D9" stroke-miterlimit="10" stroke-linecap="round" stroke-linejoin="round"><path d="M109.291 65.393l149.033-12.206v67.132l-148.952-13.943"/><path d="M126.285 159.983h-13.899L.666 86.978l111.72-73.462h13.899"/><path d="M241.886 69.05L102.637 86.115 241.63 103.89M15.09 86.707l102.189-67.852m-4.885 141.128l5.538-6.331L14.925 86.844H1.015"/><path d="M93.183 86.108l24.097-67.25 9.005-5.342-23.655 72.592 23.655 73.875-8.361-6.329-24.74-67.546zm.006.002h9.446"/><path d="M117.932 153.654L62.218 86.75l55.071-67.892-4.895-5.342m-97.479 73.23h47.293"/></g><defs><clipPath id="clip0_392_227804"><path fill="#fff" transform="translate(.667 -21)" d="M0 0h214v214H0z"/></clipPath></defs></svg>