<svg width="132" height="193" fill="none" xmlns="http://www.w3.org/2000/svg"><g clip-path="url(#clip0_392_227843)" stroke="#E7E1D9" stroke-miterlimit="10" stroke-linecap="round" stroke-linejoin="round"><path d="M69.59 9.2s-9.633.038-10.831 16.817m75.531 29.078c0-3.278-2.565-5.7-17.672-6.841l-15.109-1.14m45.038 50.021l3.602-32.639c-3.205 2.769-6.595 3.428-19.531 3.428-11.743 0-13.303-.736-13.303-.736m36.21 44.735s.168-2.816 0-4.24h-35.632c-9.62-.001-9.582 9.666-10.048 20.166-1.025 23.096.712 32.282 22.31 38.504M82.99 48.252s-1.568 2.166 13.625 4.333m-70.076-.629l19.953 1.852s.429-8.978 2.424-13.111c1.995-4.134 2.708-5.417 13.398-6.129 10.687-.712 21.285-1.13 21.285-1.13M53.694 35.8l-17.627-6.713"/><path d="M157.072 11.655s-12.235-1.317-23.779 7.234c-11.544 8.553-10.433 29.993-10.433 29.993m-76.361 4.929l47.317-1.148c7.698-.49 25.546-2.036 23.357 19.39-1.549 15.18-2.411 22.633-2.411 22.633m-22.51 71.812c-16.106-6.509-19.715-10.326-35.23-12.839-4.727-.766-15.58-2.079-15.58-2.079-12.186-1.925-20.703-3.768-23.944-18.386-3.366-15.182 7.492-56.025 9.335-65.27 3.124-15.653 11.208-14.239 18.35-14.239"/><path d="M13.437 53.379s.854 2.85 7.126 2.85h11.934m103.926 68.392s-15.543.414-31.214-1.544c-22.807-2.851-31.901-13.304-31.901-13.304m63.115 38.601c-22.091 2.78-30.389 3.86-49.456-2.779-12.706-4.063-15.518-8.575-15.518-8.575m-11.928 17.077c-1.756 10.598-27.021 14.59-48.22-3.549-14.345-12.275-11.116-28.895-9.406-42.862 1.71-13.968 10.408-14.05 18.892-14.05 0 0-4.569-.049-6.064 15.375-1.497 15.421-4.49 23.981 7.161 34.773 0 0-6.725 6.231-16.481.141"/><path d="M142.274-1.348c-19.383 0-31.783 0-40.762 6.842L69.586 9.2s1.426-3.706-1.425-3.706c-2.85 0-5.13-.286-18.242 1.852-13.113 2.138-31.072 8.409-33.352 24.087-2.28 15.677-3.135 21.949-3.135 21.949l13.112-1.425s.856-7.412 1.425-14.253c.57-6.841 6.841-9.122 15.678-9.977 8.837-.855 27.935-3.42 33.636-3.42 5.7 0 7.982 9.121 5.7 23.944l18.529-1.14s-1.996-16.248 5.13-27.935c7.127-11.687 21.95-19.669 35.632-20.524zm0 0c9.406.855 15.678 6.272 15.393 20.524-.187 9.34-1.109 19.535-1.721 25.456a6.475 6.475 0 004.265 6.767l11.994 4.834-5.987 55.014s-18.813.998-23.802 1.283c-4.988.284-5.986 2.279-5.986 8.551v30.501c0 10.688-8.408 20.095-19.24 20.095-10.831 0-27.418-2.85-38.91-15.071-7.777-8.271-8.499-30.751-6.04-42.117 2.725-12.6 5.185-20.202 12.455-20.488 7.268-.285 48.884 1.425 53.446 1.425 7.126 0 13.539 3.848 15.393 12.257l4.275-47.317-23.516-5.274c.855 4.133-3.136 4.988-3.136 4.988l-15.722-.338"/><path d="M101.511 5.492c-6.842 5.63-14.11 11.188-16.035 24.74-1.332 5.887-2.494 18.018-2.494 18.018m74.816-32.208s27.08 8.052 29.219 31.497c2.137 23.446-3.636 37.555-5.56 53.803-1.923 16.248-3.42 42.33-19.027 53.661-11.116 7.482-17.435 9.806-29.931 8.642M75.434 53.106s9.262-2.006 7.506 12.899c-1.854 15.737-4.534 31.13-4.534 31.13m71.743-32.631l-18.995-4.419M92.81 94.047s7.708.193 22.322 2.853c16.284 2.964 21.326 11.855 21.326 22.329M134.29 55.09l-25.915-1.284m-87.601-1.221s.518-17.929 4.14-29.374c3.62-11.445 14.565-13.398 14.565-13.398m4.123 142.036s-1.358 9.945-12.239 9.65"/></g><defs><clipPath id="clip0_392_227843"><path fill="#fff" transform="translate(.333 -21)" d="M0 0h214v214H0z"/></clipPath></defs></svg>