<svg width="132" height="193" fill="none" xmlns="http://www.w3.org/2000/svg"><g clip-path="url(#clip0_392_227708)" stroke="#E7E1D9" stroke-miterlimit="10" stroke-linecap="round" stroke-linejoin="round"><path d="M213.565 63.375c-17.23 42.567-65.502 62.601-107.295 62.601C46.138 125.976 5.029 77.147 0 63.484"/><path d="M128.983 70.04s3.716 6.442 3.822 15.108c.106 8.665-3.269 9.427-3.269 9.427m4.324-24.962s-1.839.723-1.573 10.36m-22.089-8.77s-3.524 3.444-3.421 9.67c.103 6.225-.002 7.31-.002 10.346 0 3.036.887 4.663 4.919 5.395"/><path d="M101.959 71.133s4.765 1.11 4.812 7.508c.046 6.398 0 10.699 0 13.238 0 2.54 0 4.003-2.414 4.99m-20.937-1.89c-1.794-.833-4.253-3.001-3.024-10.05 1.23-7.048 2.638-12.933 5.734-14.73m-4.77-.312c.92 1.898 1.164 4.526.534 7.655m-1.615 13.239c-.445 1.759-4.139 3.037-7.153 2.154m-7.104-1.98c-1.716-1.287-3.733-2.821-2.727-11.362 1.005-8.54 1.005-11.04 3.911-12.116m-5.462-.793c2.88 2.132 2.3 6.278 2 9.113"/><path d="M62.987 85.31c.17.545.153 2.797-6.551 1.28-6.704-1.52-8.232-1.364-8.237-10.799-.005-8.49 2.517-10.72 2.517-10.72m-11.231-1.227s-2.038 5.115-.758 10.622c1.847 7.944 7.343 7.941 9.638 7.93"/><path d="M29.71 63.262s-.269 8.794 4.889 12.877c3.048 2.414 4.89.722 4.89.722"/><path d="M0 63.48s30.046 16.11 65.249 27.231c37.25 11.823 68.086 4.493 94.04-3.498"/><path d="M106.772 71.332c20.109-.714 22.302-1.312 40.647-4.03 42.044-6.226 66.146-3.93 66.146-3.93s-31.143-13.782-54.164-16.171c-17.071-1.772-36.57 3.017-45.509 5.61-3.229.938-6.666.93-9.889-.028-8.286-2.466-25.524-6.874-40.256-5.966C43.513 48.064 0 63.482 0 63.482"/><path d="M1.685 63.263s40.71-11.729 69.096-7.608c28.385 4.12 36.051 10.193 62.281 2.386 26.227-7.808 80.504 5.332 80.504 5.332s-40.363 48.614-107.238 48.614C41.278 111.987 0 63.483 0 63.483s20.973-3.546 66.147 3.82c18.3 2.985 20.537 3.316 40.646 4.03m17.819-21.255s6.527 8.876 1.888 20.125M89.392 49.12s-4.479 10.603-1.865 20.708M53.398 48.21s-4.867 7.662 0 17.202m72.994 29.764s11.994 11.146 4.566 28.543M86.12 95.523s-13.86 8.368-6.557 27.222M47.31 84.475s-13.98 4.803-9.067 19.562"/></g><defs><clipPath id="clip0_392_227708"><path fill="#fff" transform="translate(0 -21)" d="M0 0h214v214H0z"/></clipPath></defs></svg>