<svg width="26" height="26" fill="none" xmlns="http://www.w3.org/2000/svg"><g clip-path="url(#clip0_90_12463)" fill="#B36FDE"><path d="M8.496 11.083h-6.58a1.81 1.81 0 00-1.678 1.13 1.797 1.797 0 001.572 2.693h6.58a1.81 1.81 0 001.68-1.132c.15-.262.236-.565.236-.888 0-.996-.81-1.803-1.81-1.803zM26 12.886c0-.996-.81-1.803-1.81-1.803h-6.58a1.81 1.81 0 00-1.679 1.13 1.79 1.79 0 00-.237.891c0 .996.81 1.803 1.81 1.803h6.58a1.81 1.81 0 001.679-1.131 1.79 1.79 0 00.237-.89zm-12.95 2.742a1.81 1.81 0 00-1.68 1.132c-.15.262-.236.565-.236.889v6.549c0 .995.81 1.802 1.81 1.802a1.81 1.81 0 001.68-1.132c.15-.262.237-.565.237-.889V17.43c0-.995-.81-1.802-1.81-1.802zM13.05 0a1.81 1.81 0 00-1.68 1.132c-.15.262-.236.566-.236.89V8.57c0 .995.81 1.802 1.81 1.802a1.81 1.81 0 001.68-1.132c.15-.262.237-.565.237-.889V1.803c0-.996-.81-1.803-1.81-1.803z"/></g><defs><clipPath id="clip0_90_12463"><path fill="#fff" d="M0 0h26v26H0z"/></clipPath></defs></svg>