<svg width="18" height="18" fill="none" xmlns="http://www.w3.org/2000/svg"><path d="M15 0H3C1.346 0 0 1.346 0 3v12c0 1.654 1.346 3 3 3h12c1.654 0 3-1.346 3-3V3c0-1.654-1.346-3-3-3zm1.8 3v5.4H9.6V1.2H15c.992 0 1.8.808 1.8 1.8zM3 1.2h5.4v7.2H1.2V3c0-.992.808-1.8 1.8-1.8zM1.2 15V9.6h7.2v7.2H3c-.992 0-1.8-.808-1.8-1.8zM15 16.8H9.6V9.6h7.2V15c0 .992-.808 1.8-1.8 1.8z" fill="#E7E1D9"/><path d="M3 5.4h1.2v1.2a.6.6 0 101.2 0V5.4h1.2a.6.6 0 100-1.2H5.4V3a.6.6 0 10-1.2 0v1.2H3a.6.6 0 100 1.2zm8.4 0H15a.6.6 0 100-1.2h-3.6a.6.6 0 100 1.2zm3.6 8.4h-3.6a.6.6 0 100 1.2H15a.6.6 0 100-1.2zm0-2.4h-3.6a.6.6 0 100 1.2H15a.6.6 0 100-1.2zm-9.351 1.8l.848-.848a.6.6 0 10-.848-.849l-.849.848-.848-.848a.6.6 0 10-.848.848l.848.849-.848.849a.6.6 0 10.848.848l.848-.848.849.848a.598.598 0 00.848 0 .6.6 0 000-.848l-.848-.85z" fill="#E7E1D9"/></svg>