<svg width="22" height="22" fill="none" xmlns="http://www.w3.org/2000/svg"><path d="M6.312 0a.832.832 0 00-.83.83v1.245H4.158A3.243 3.243 0 00.917 5.316V18.76A3.246 3.246 0 004.158 22H18.43a3.246 3.246 0 003.242-3.241V5.316a3.246 3.246 0 00-3.242-3.24h-1.328V.83a.832.832 0 00-.83-.83.833.833 0 00-.83.83v1.245h-8.3V.83a.832.832 0 00-.83-.83zm9.13 3.735V4.98c0 .457.374.83.83.83.457 0 .83-.373.83-.83V3.735h1.324c.872 0 1.581.71 1.581 1.581V18.76c0 .871-.71 1.58-1.58 1.58H4.157a1.582 1.582 0 01-1.581-1.58V5.316c0-.871.71-1.58 1.581-1.58h1.324V4.98c0 .457.373.83.83.83.456 0 .83-.373.83-.83V3.735h8.3z" fill="#80787A"/><path d="M6.727 11.62a1.245 1.245 0 100-2.49 1.245 1.245 0 000 2.49zm4.565 0a1.245 1.245 0 100-2.49 1.245 1.245 0 000 2.49zm4.565 0a1.245 1.245 0 100-2.49 1.245 1.245 0 000 2.49zm-9.13 4.565a1.245 1.245 0 100-2.49 1.245 1.245 0 000 2.49zm4.565 0a1.245 1.245 0 100-2.49 1.245 1.245 0 000 2.49zm4.565 0a1.245 1.245 0 100-2.49 1.245 1.245 0 000 2.49z" fill="#80787A"/></svg>