<svg width="25" height="24" fill="none" xmlns="http://www.w3.org/2000/svg"><path d="M7.636 0a.908.908 0 00-.906.905v1.359H5.286A3.538 3.538 0 001.75 5.8v14.664A3.54 3.54 0 005.286 24h15.57a3.54 3.54 0 003.536-3.536V5.8a3.54 3.54 0 00-3.536-3.536h-1.449V.905A.908.908 0 0018.502 0a.908.908 0 00-.906.905v1.359H8.541V.905A.908.908 0 007.636 0zm9.96 4.075v1.358c0 .498.407.905.906.905a.908.908 0 00.905-.905V4.075h1.444c.951 0 1.725.774 1.725 1.725v14.664c0 .95-.774 1.725-1.725 1.725H5.286c-.95 0-1.725-.774-1.725-1.725V5.8c0-.951.774-1.725 1.725-1.725H6.73v1.358c0 .498.408.905.906.905a.908.908 0 00.905-.905V4.075h9.055z" fill="#E7E1D9"/><path d="M8.089 12.677a1.358 1.358 0 100-2.717 1.358 1.358 0 000 2.717zm4.979 0a1.358 1.358 0 100-2.717 1.358 1.358 0 000 2.717zm4.981 0a1.358 1.358 0 100-2.717 1.358 1.358 0 000 2.717zm-9.96 4.98a1.358 1.358 0 100-2.716 1.358 1.358 0 000 2.716zm4.979 0a1.358 1.358 0 100-2.716 1.358 1.358 0 000 2.716zm4.981 0a1.358 1.358 0 100-2.716 1.358 1.358 0 000 2.716z" fill="#E7E1D9"/></svg>