<svg width="24" height="24" fill="none" xmlns="http://www.w3.org/2000/svg"><path d="M23.644 8.787a1.658 1.658 0 00-1.305-.626h-4.622l-2.506-5.74a.703.703 0 10-1.289.564l2.26 5.176H7.818l2.26-5.176a.703.703 0 10-1.288-.563L6.283 8.16H1.66c-.512 0-.988.228-1.305.626-.31.39-.426.892-.315 1.377l2.47 10.782a1.647 1.647 0 001.62 1.279h15.74c.782 0 1.448-.526 1.62-1.279l2.469-10.781a1.62 1.62 0 00-.315-1.377zm-3.773 12.03H4.129a.251.251 0 01-.249-.186L1.412 9.85a.215.215 0 01.044-.187.255.255 0 01.205-.096h4.008l-.184.422a.703.703 0 001.288.563l.43-.985h9.594l.43.985a.703.703 0 101.288-.563l-.184-.422h4.008c.112 0 .177.06.205.096.03.039.063.102.044.187L20.12 20.63a.252.252 0 01-.25.186z" fill="#E7E1D9"/><path d="M7.781 12.614a.703.703 0 00-.703.703v5.156a.703.703 0 001.406 0v-5.156a.703.703 0 00-.703-.703zm4.219 0a.703.703 0 00-.703.703v5.156a.703.703 0 001.406 0v-5.156a.703.703 0 00-.703-.703zm4.219 0a.703.703 0 00-.703.703v5.156a.703.703 0 001.406 0v-5.156a.703.703 0 00-.703-.703z" fill="#E7E1D9"/></svg>