<svg width="20" height="20" fill="none" xmlns="http://www.w3.org/2000/svg"><path d="M8.389 14.944l-2.222 2.222a2.356 2.356 0 11-3.334-3.332l4.445-4.445c.92-.92 2.412-.92 3.333 0a.786.786 0 001.11-1.111 3.928 3.928 0 00-5.554 0l-4.445 4.444a3.928 3.928 0 105.556 5.556L9.5 16.055a.786.786 0 10-1.111-1.11z" fill="#80787A"/><path d="M18.278 1.723a3.929 3.929 0 00-5.556 0l-2.666 2.666a.786.786 0 001.11 1.111l2.667-2.666a2.357 2.357 0 013.333 3.333l-4.888 4.889c-.92.92-2.413.92-3.333 0a.786.786 0 10-1.111 1.11 3.928 3.928 0 005.555 0l4.889-4.888a3.928 3.928 0 000-5.555z" fill="#80787A"/></svg>