<svg width="25" height="24" fill="none" xmlns="http://www.w3.org/2000/svg"><path d="M10.45 18.293l-2.83 2.828a3 3 0 11-4.243-4.242l5.658-5.657a3 3 0 014.241 0 1 1 0 001.415-1.414 5 5 0 00-7.07 0l-5.658 5.657a5 5 0 000 7.07 4.998 4.998 0 007.072 0l2.828-2.828a1 1 0 00-1.415-1.414z" fill="#E7E1D9"/><path d="M23.035 1.464a5 5 0 00-7.071 0L12.57 4.857a1 1 0 001.414 1.415l3.393-3.393A3 3 0 0121.62 7.12l-6.222 6.222a3 3 0 01-4.242 0 1 1 0 00-1.414 1.415 5 5 0 007.07 0l6.222-6.222a5 5 0 000-7.07z" fill="#E7E1D9"/></svg>