<svg width="19" height="19" fill="none" xmlns="http://www.w3.org/2000/svg"><g clip-path="url(#clip0_248_9829)" fill="#B36FDE"><path d="M7.23 10.415L4.904 12.74a.905.905 0 00-.194.993c.04.146.116.284.23.4a.903.903 0 001.278-.004l2.326-2.326a.905.905 0 00.194-.994.903.903 0 00-1.508-.395zm6.826-5.552a.903.903 0 00-1.277.003l-2.326 2.326a.905.905 0 00-.194.994c.04.146.116.284.23.398a.903.903 0 001.278-.002l2.326-2.326a.905.905 0 00.194-.994.894.894 0 00-.231-.399zm-3.609 5.548a.905.905 0 00-.194.994c.04.146.117.284.23.399l2.316 2.315a.905.905 0 001.47-.997.89.89 0 00-.23-.398l-2.315-2.316a.903.903 0 00-1.277.003zM4.922 4.886a.905.905 0 00-.194.994c.04.146.116.284.23.398l2.316 2.316a.905.905 0 001.47-.997.89.89 0 00-.23-.399L6.2 4.883a.903.903 0 00-1.277.003z"/></g><defs><clipPath id="clip0_248_9829"><path fill="#fff" transform="rotate(-45 11.621 4.379)" d="M0 0h13v13H0z"/></clipPath></defs></svg>