<svg width="16" height="16" fill="none" xmlns="http://www.w3.org/2000/svg"><path fill-rule="evenodd" clip-rule="evenodd" d="M1.87 1.655a.713.713 0 00-.713.714v4.986c0 .394.319.713.713.713h1.246c.295 0 .534.24.534.534v1.205l1.582-1.582c.1-.1.236-.157.378-.157h3.74c.393 0 .713-.32.713-.713V2.369a.713.713 0 00-.714-.714H1.87zM.09 2.37C.09 1.387.887.59 1.87.59h7.48c.982 0 1.78.797 1.78 1.78v4.986a1.78 1.78 0 01-1.78 1.78H5.83l-2.336 2.337a.533.533 0 01-.91-.377v-1.96H1.87a1.78 1.78 0 01-1.78-1.78V2.369z" fill="#80787A"/><path fill-rule="evenodd" clip-rule="evenodd" d="M12.308 4.862c0-.295.238-.534.533-.534h1.247c.983 0 1.78.797 1.78 1.78v4.987a1.78 1.78 0 01-1.78 1.78h-.59v1.96a.533.533 0 01-.91.377l-2.336-2.337H7.979a1.78 1.78 0 01-1.78-1.78.533.533 0 111.067 0c0 .394.32.713.713.713h2.494c.14 0 .277.056.377.156l1.582 1.583v-1.206c0-.294.24-.533.534-.533h1.122c.394 0 .713-.32.713-.713V6.108a.713.713 0 00-.713-.713H12.84a.533.533 0 01-.533-.533z" fill="#80787A"/></svg>