<svg width="16" height="16" fill="none" xmlns="http://www.w3.org/2000/svg"><path fill-rule="evenodd" clip-rule="evenodd" d="M1.87 1.657a.713.713 0 00-.713.713v4.986c0 .394.319.714.713.714h1.247c.294 0 .533.238.533.533v1.205l1.583-1.582c.1-.1.235-.156.377-.156h3.74c.394 0 .713-.32.713-.714V2.37a.713.713 0 00-.713-.713H1.87zM.09 2.37C.09 1.387.887.59 1.87.59h7.48c.983 0 1.78.797 1.78 1.78v4.986a1.78 1.78 0 01-1.78 1.78H5.83l-2.336 2.337a.533.533 0 01-.91-.377v-1.96H1.87a1.78 1.78 0 01-1.78-1.78V2.37z" fill="#80787A"/><path fill-rule="evenodd" clip-rule="evenodd" d="M12.307 4.861c0-.294.239-.533.533-.533h1.247c.983 0 1.78.797 1.78 1.78v4.987a1.78 1.78 0 01-1.78 1.78h-.589v1.96a.533.533 0 01-.91.376l-2.337-2.337H7.978a1.78 1.78 0 01-1.78-1.78.533.533 0 011.067 0c0 .394.32.714.713.714h2.494c.141 0 .277.056.377.156l1.582 1.583V12.34c0-.294.24-.533.534-.533h1.122c.394 0 .713-.32.713-.713V6.107a.713.713 0 00-.713-.713H12.84a.533.533 0 01-.533-.534z" fill="#80787A"/></svg>