<svg width="17" height="16" fill="none" xmlns="http://www.w3.org/2000/svg"><path fill-rule="evenodd" clip-rule="evenodd" d="M2.537 1.655a.713.713 0 00-.714.714v4.986c0 .394.32.713.714.713h1.246c.295 0 .534.24.534.534v1.205l1.582-1.582c.1-.1.236-.157.377-.157h3.74c.394 0 .713-.32.713-.713V2.369a.713.713 0 00-.713-.714h-7.48zm-1.78.714c0-.983.797-1.78 1.78-1.78h7.48c.982 0 1.78.797 1.78 1.78v4.986a1.78 1.78 0 01-1.78 1.78h-3.52L4.16 11.472a.533.533 0 01-.91-.377v-1.96h-.713a1.78 1.78 0 01-1.78-1.78V2.369z" fill="#80787A"/><path fill-rule="evenodd" clip-rule="evenodd" d="M12.973 4.862c0-.295.24-.534.534-.534h1.246c.983 0 1.78.797 1.78 1.78v4.987a1.78 1.78 0 01-1.78 1.78h-.588v1.96a.533.533 0 01-.91.377l-2.338-2.337H8.645a1.78 1.78 0 01-1.78-1.78.533.533 0 111.067 0c0 .394.319.713.713.713h2.493c.142 0 .277.056.377.156l1.583 1.583v-1.206c0-.294.239-.533.533-.533h1.122c.394 0 .714-.32.714-.713V6.108a.713.713 0 00-.714-.713h-1.246a.533.533 0 01-.534-.533z" fill="#80787A"/></svg>