<svg width="109" height="138" fill="none" xmlns="http://www.w3.org/2000/svg"><g clip-path="url(#clip0_198_166615)" stroke="#AEA8A5" stroke-miterlimit="10" stroke-linecap="round" stroke-linejoin="round"><path d="M33.684 128.989V22.769m12.411 118.799l-12.413-12.58-11.735 12.58M22.46 10.02l11.39 12.754L45.392 10.02m.001 0H22.46m41.684 54.465l15.06 3.144m-15.06-3.145l14.714-5.354m29.492 71.939l-49.441-74.48m46.587-38.459L55.989 73.627m68.446-63.607l-18.933 8.11-4.803-8.11m-.781 131.224l8.429-10.175 19.627 10.498m1.567-136.491H95.527M90.262 0l5.268 5.076-5.268 4.945M52.435 5.076H14.248M9.14 0l5.11 5.076-5.044 4.945m48.152-.001l-4.913-4.943L57.358 0m67.076 10.02h-23.736"/><path d="M46.006 131.681l-.61-38.526V10.021H57.35c2.74 0 4.961-2.244 4.961-5.01 0-2.768-2.22-5.01-4.96-5.01H9.156c-2.74 0-4.961 2.242-4.961 5.01 0 2.766 2.22 5.01 4.96 5.01h13.31v84.363l-.405 33.2-.115 13.984H6.613c-2.676 0-4.845 2.191-4.845 4.893 0 2.703 2.169 4.894 4.845 4.894H57.82c2.676 0 4.846-2.191 4.846-4.894 0-2.702-2.17-4.893-4.846-4.893H46.094l-.088-9.887z"/><path d="M124.426 10.02h10.106c2.74 0 4.962-2.243 4.962-5.01S137.272 0 134.532 0H90.92c-2.74 0-4.96 2.243-4.96 5.01s2.22 5.01 4.96 5.01h9.771L58.902 56.59c-4.54 5.391-5.297 13.059-1.9 19.25l42.912 65.728h-9.602c-2.677 0-4.847 2.191-4.847 4.893 0 2.703 2.17 4.895 4.847 4.895h47.572c2.677 0 4.847-2.192 4.847-4.895 0-2.702-2.17-4.893-4.847-4.893h-9.914L86.463 79.233C81.349 69.93 74.416 64.58 79.758 57.76c7.233-9.234 44.668-47.738 44.668-47.738z"/></g><defs><clipPath id="clip0_198_166615"><path fill="#fff" transform="translate(.666)" d="M0 0h108v138H0z"/></clipPath></defs></svg>