<svg width="143" height="181" fill="none" xmlns="http://www.w3.org/2000/svg"><path d="M69.167 10.218H.544v52.096c0 32.024 6.56 54.128 33.024 80.523 26.464 26.394 35.626 28.862 35.626 28.862s9.135-2.477 35.627-28.862c26.492-26.386 33.023-48.5 33.023-80.522V10.218H69.167z" stroke="#E7E1D9" stroke-width=".94" stroke-linecap="round" stroke-linejoin="round"/><path d="M69.167 164.568c-3.755-2.131-13.173-8.507-31.06-26.294C11.992 112.18 7.013 91.45 7.013 62.314V16.666h124.31v45.648c0 29.145-4.96 49.866-31.123 75.96-17.868 17.787-27.269 24.163-31.032 26.294z" stroke="#E7E1D9" stroke-width=".94" stroke-linecap="round" stroke-linejoin="round"/><path d="M137.799 10.218l-6.477 6.448-20.188 16.148m-83.924 0L7.012 16.666.544 10.218M69.23 164.504l-.063 7.195m-55.797-68.7l10.104-.064m81.968-22.04h-2.649v-28.39h2.649a1.116 1.116 0 001.115-1.11 1.11 1.11 0 00-1.115-1.112H77.06a1.116 1.116 0 00-1.115 1.111 1.11 1.11 0 001.115 1.111h2.658v25.721a2.674 2.674 0 01-.79 1.888 2.69 2.69 0 01-1.896.78 1.115 1.115 0 00-1.096 1.112v0a1.11 1.11 0 001.105 1.11h10.424a1.116 1.116 0 001.114-1.11 1.11 1.11 0 00-1.114-1.111h-2.65v-28.39h12.872v28.39H95.01a1.116 1.116 0 00-1.114 1.11 1.11 1.11 0 001.114 1.112h10.432a1.116 1.116 0 001.106-1.111 1.11 1.11 0 00-1.106-1.111v0zm-41.537 0h-2.65l-9.984-30.612h-9.135a1.116 1.116 0 00-1.114 1.111 1.11 1.11 0 001.114 1.111h2.74l-8.696 26.55a2.66 2.66 0 01-2.549 1.821h-.73a1.116 1.116 0 00-1.115 1.111v0a1.11 1.11 0 001.115 1.112h8.322a1.116 1.116 0 001.114-1.112v0a1.11 1.11 0 00-1.114-1.092H38.72l2.831-8.908h11.703l2.904 8.908h-2.685a1.116 1.116 0 00-1.115 1.11 1.11 1.11 0 001.115 1.112h10.432a1.116 1.116 0 001.114-1.111 1.11 1.11 0 00-1.114-1.111zM42.337 69.51l4.997-15.675L52.44 69.51H42.337z" stroke="#E7E1D9" stroke-width=".94" stroke-linecap="round" stroke-linejoin="round"/><path d="M69.167 39.008l-17.12-5.848-12.112 2.751-12.725-3.096v61.577l12.725 3.097 12.113-2.75 17.119 5.847V39.008z" stroke="#E7E1D9" stroke-width=".94" stroke-linecap="round" stroke-linejoin="round"/><path d="M27.21 40.046h-3.8v62.953h45.757v-2.413m0-61.578l17.128-5.848L98.4 35.911l12.734-3.096v61.577L98.399 97.49l-12.104-2.75-17.128 5.847V39.008z" stroke="#E7E1D9" stroke-width=".94" stroke-linecap="round" stroke-linejoin="round"/><path d="M111.133 40.046h3.801v62.953H69.167v-2.413M23.41 40.046H7.011" stroke="#E7E1D9" stroke-width=".94" stroke-linecap="round" stroke-linejoin="round"/><path d="M69.23 164.513l-.063-61.514 45.821-.064" stroke="#E7E1D9" stroke-width=".94" stroke-linecap="round" stroke-linejoin="round"/><path d="M124.973 102.999h-10.048s-22.838 32.387-45.767 45.475C33.732 125.705 23.4 102.999 23.4 102.999m91.534-62.953h16.388M86.295 33.16V16.666M52.048 33.16V16.666" stroke="#E7E1D9" stroke-width=".94" stroke-linecap="round" stroke-linejoin="round"/><path d="M98.399 97.489v5.464s-13.31 19.127-29.232 28.335c-16.727-9.254-29.232-28.335-29.232-28.335v-5.464" stroke="#E7E1D9" stroke-width=".94" stroke-linecap="round" stroke-linejoin="round"/></svg>