<svg width="529" height="474" fill="none" xmlns="http://www.w3.org/2000/svg"><g clip-path="url(#clip0_219_169734)" fill="#B36FDE"><path d="M30.882 156.673h-4.555a1.25 1.25 0 00-1.162.783 1.236 1.236 0 00-.165.616 1.25 1.25 0 001.253 1.248h4.555c.528 0 .978-.325 1.163-.784.104-.181.164-.391.164-.615a1.25 1.25 0 00-1.253-1.248zM43 157.921c0-.69-.56-1.248-1.253-1.248h-4.555c-.527 0-.977.324-1.162.783a1.238 1.238 0 00-.165.616 1.25 1.25 0 001.254 1.248h4.554c.527 0 .978-.324 1.163-.783.104-.182.164-.392.164-.616zm-8.964 1.898c-.528 0-.978.325-1.163.784a1.237 1.237 0 00-.164.615v4.534a1.253 1.253 0 002.416.464 1.23 1.23 0 00.164-.615v-4.534a1.25 1.25 0 00-1.253-1.248zm0-10.819c-.528 0-.978.324-1.163.784a1.234 1.234 0 00-.164.615v4.534a1.253 1.253 0 002.416.464c.104-.182.164-.391.164-.615v-4.534A1.25 1.25 0 0034.036 149z"/></g><g clip-path="url(#clip1_219_169734)" fill="#B36FDE"><path d="M493.555 283.247h-4.302c-.497 0-.923.306-1.098.739-.098.172-.155.37-.155.582 0 .651.53 1.178 1.184 1.178h4.301c.499 0 .924-.306 1.099-.74.098-.171.155-.369.155-.581a1.18 1.18 0 00-1.184-1.178zM505 284.425a1.18 1.18 0 00-1.183-1.178h-4.302c-.498 0-.923.306-1.098.739-.098.172-.155.37-.155.582 0 .651.53 1.179 1.184 1.179h4.301c.498 0 .923-.307 1.098-.74.098-.172.155-.37.155-.582zm-8.468 1.793c-.498 0-.923.307-1.098.74-.098.172-.155.37-.155.582v4.282a1.184 1.184 0 002.282.438 1.17 1.17 0 00.155-.581v-4.282c0-.651-.53-1.179-1.184-1.179zm0-10.218c-.498 0-.923.306-1.098.74-.098.172-.155.37-.155.582v4.281a1.184 1.184 0 002.282.439c.098-.172.155-.37.155-.582v-4.281c0-.651-.53-1.179-1.184-1.179z"/></g><path d="M17 163.999C97 348.5 351.5 376.5 489.502 292.001" stroke="#80787A" stroke-width="2"/><defs><clipPath id="clip0_219_169734"><path fill="#fff" transform="translate(25 149)" d="M0 0h18v18H0z"/></clipPath><clipPath id="clip1_219_169734"><path fill="#fff" transform="translate(488 276)" d="M0 0h17v17H0z"/></clipPath></defs></svg>