<svg width="771" height="711" fill="none" xmlns="http://www.w3.org/2000/svg"><g clip-path="url(#clip0_52_152495)" fill="#B36FDE"><path d="M81.342 93.23H75.27a1.67 1.67 0 00-1.55 1.044 1.66 1.66 0 001.452 2.486h6.073a1.67 1.67 0 001.55-1.045c.14-.242.22-.522.22-.82 0-.92-.749-1.664-1.672-1.664zM97.5 94.894c0-.919-.748-1.663-1.671-1.663h-6.073a1.67 1.67 0 00-1.55 1.043 1.65 1.65 0 00-.22.822c0 .92.749 1.664 1.672 1.664h6.073a1.67 1.67 0 001.55-1.044c.139-.243.219-.522.219-.822zm-11.954 2.532a1.67 1.67 0 00-1.55 1.044 1.65 1.65 0 00-.219.821v6.045c0 .919.748 1.664 1.671 1.664a1.67 1.67 0 001.55-1.045c.14-.242.22-.522.22-.82v-6.046c0-.918-.749-1.663-1.672-1.663zm0-14.426a1.67 1.67 0 00-1.55 1.045 1.652 1.652 0 00-.219.82v6.046c0 .918.748 1.663 1.671 1.663a1.67 1.67 0 001.55-1.045c.14-.242.22-.522.22-.82v-6.045c0-.919-.749-1.664-1.672-1.664z"/></g><path d="M85 111.5C79.5 426 474 612 749.5 504" stroke="#80787A" stroke-width="2"/><g clip-path="url(#clip1_52_152495)" fill="#B36FDE"><path d="M754.842 492.23h-6.073c-.702 0-1.303.433-1.55 1.044a1.66 1.66 0 001.452 2.486h6.073c.704 0 1.304-.433 1.551-1.045.138-.242.219-.522.219-.821 0-.919-.749-1.664-1.672-1.664zM771 493.894c0-.919-.748-1.664-1.671-1.664h-6.073c-.703 0-1.303.433-1.55 1.044a1.65 1.65 0 00-.219.822c0 .919.748 1.664 1.671 1.664h6.073a1.67 1.67 0 001.55-1.044c.139-.243.219-.522.219-.822zm-11.954 2.532a1.67 1.67 0 00-1.55 1.044 1.656 1.656 0 00-.219.821v6.045c0 .919.748 1.664 1.671 1.664.704 0 1.304-.433 1.551-1.045.139-.242.219-.522.219-.82v-6.046c0-.918-.749-1.663-1.672-1.663zm0-14.426a1.67 1.67 0 00-1.55 1.045 1.653 1.653 0 00-.219.821v6.045c0 .918.748 1.663 1.671 1.663.704 0 1.304-.433 1.551-1.045.139-.242.219-.522.219-.82v-6.045c0-.919-.749-1.664-1.672-1.664z"/></g><defs><clipPath id="clip0_52_152495"><path fill="#fff" transform="translate(73.5 83)" d="M0 0h24v24H0z"/></clipPath><clipPath id="clip1_52_152495"><path fill="#fff" transform="translate(747 482)" d="M0 0h24v24H0z"/></clipPath></defs></svg>