<svg width="505" height="450" viewBox="0 0 505 450" fill="none" xmlns="http://www.w3.org/2000/svg">
    <g clip-path="url(#clip0_1_148054)">
        <path d="M469.555 272.246H465.253C464.756 272.246 464.33 272.552 464.155 272.986C464.057 273.157 464 273.356 464 273.568C464 274.218 464.53 274.746 465.184 274.746H469.485C469.984 274.746 470.409 274.439 470.584 274.006C470.682 273.834 470.739 273.636 470.739 273.425C470.739 272.774 470.209 272.246 469.555 272.246Z" fill="#B36FDE"/>
        <path d="M481 273.425C481 272.774 480.47 272.246 479.816 272.246H475.515C475.017 272.246 474.592 272.552 474.417 272.986C474.319 273.157 474.261 273.356 474.261 273.568C474.261 274.219 474.791 274.746 475.445 274.746H479.747C480.245 274.746 480.67 274.44 480.845 274.007C480.943 273.835 481 273.637 481 273.425Z" fill="#B36FDE"/>
        <path d="M472.533 275.219C472.035 275.219 471.609 275.525 471.435 275.959C471.337 276.13 471.28 276.328 471.28 276.54V280.822C471.28 281.473 471.81 282 472.463 282C472.962 282 473.387 281.694 473.562 281.26C473.66 281.089 473.717 280.891 473.717 280.679V276.397C473.717 275.746 473.187 275.219 472.533 275.219Z" fill="#B36FDE"/>
        <path d="M472.533 265C472.035 265 471.609 265.306 471.435 265.74C471.337 265.912 471.28 266.11 471.28 266.322V270.603C471.28 271.254 471.81 271.782 472.463 271.782C472.962 271.782 473.387 271.475 473.562 271.042C473.66 270.87 473.717 270.672 473.717 270.46V266.179C473.717 265.528 473.187 265 472.533 265Z" fill="#B36FDE"/>
    </g>
    <g clip-path="url(#clip1_1_148054)">
        <path d="M6.88164 145.674H2.32705C1.80006 145.674 1.34952 145.998 1.16455 146.457C1.06041 146.639 1 146.849 1 147.073C1 147.762 1.56136 148.321 2.25352 148.321H6.80811C7.33573 148.321 7.78606 147.996 7.97103 147.537C8.07497 147.356 8.13517 147.146 8.13517 146.922C8.13517 146.232 7.57381 145.674 6.88164 145.674Z" fill="#B36FDE"/>
        <path d="M18.9999 146.922C18.9999 146.232 18.439 145.674 17.7466 145.674H13.192C12.6648 145.674 12.2147 145.998 12.0293 146.457C11.9254 146.639 11.865 146.849 11.865 147.073C11.865 147.762 12.4261 148.321 13.1185 148.321H17.6731C18.2003 148.321 18.6504 147.997 18.8358 147.538C18.9398 147.356 18.9999 147.146 18.9999 146.922Z" fill="#B36FDE"/>
        <path d="M10.0349 148.82C9.50745 148.82 9.05711 149.145 8.87194 149.604C8.76821 149.786 8.70801 149.995 8.70801 150.219V154.753C8.70801 155.442 9.26895 156.001 9.96132 156.001C10.4887 156.001 10.9391 155.676 11.124 155.217C11.2282 155.036 11.2884 154.826 11.2884 154.602V150.068C11.2884 149.379 10.727 148.82 10.0349 148.82Z" fill="#B36FDE"/>
        <path d="M10.0349 138C9.50745 138 9.05711 138.324 8.87194 138.784C8.76821 138.965 8.70801 139.175 8.70801 139.399V143.933C8.70801 144.622 9.26895 145.181 9.96132 145.181C10.4887 145.181 10.9391 144.856 11.124 144.397C11.2282 144.215 11.2884 144.006 11.2884 143.782V139.248C11.2884 138.559 10.727 138 10.0349 138Z" fill="#B36FDE"/>
    </g>
    <path d="M15.5 152.5C95.0209 328.483 336.016 358.263 465.5 280.999" stroke="#80787A" stroke-width="2"/>
    <defs>
        <clipPath id="clip0_1_148054">
            <rect width="17" height="17" fill="white" transform="translate(464 265)"/>
        </clipPath>
        <clipPath id="clip1_1_148054">
            <rect width="18" height="18" fill="white" transform="translate(1 138)"/>
        </clipPath>
    </defs>
</svg>
