<svg width="55" height="41" fill="none" xmlns="http://www.w3.org/2000/svg"><path d="M47 1c-.5 14-10 23-20 27" stroke="#80787A"/><g clip-path="url(#clip0_269_179500)" fill="#B36FDE"><path d="M19.555 31.247h-4.302c-.497 0-.923.306-1.098.739-.098.172-.155.37-.155.582 0 .65.53 1.178 1.184 1.178h4.301c.499 0 .924-.306 1.099-.74.098-.171.155-.37.155-.58 0-.652-.53-1.18-1.184-1.18zM31 32.425a1.18 1.18 0 00-1.183-1.178h-4.302c-.498 0-.923.306-1.098.739a1.17 1.17 0 00-.155.582c0 .651.53 1.179 1.184 1.179h4.301c.498 0 .923-.307 1.098-.74a1.17 1.17 0 00.155-.582zm-8.466 1.793c-.498 0-.923.307-1.098.74-.098.172-.155.37-.155.582v4.282c0 .65.53 1.178 1.184 1.178.498 0 .923-.306 1.098-.74a1.17 1.17 0 00.155-.581v-4.282c0-.651-.53-1.179-1.184-1.179zm0-10.218c-.498 0-.923.306-1.098.74a1.17 1.17 0 00-.155.582v4.281a1.184 1.184 0 002.282.439c.098-.172.155-.37.155-.582v-4.28c0-.651-.53-1.179-1.184-1.179z"/></g><defs><clipPath id="clip0_269_179500"><path fill="#fff" transform="translate(14 24)" d="M0 0h17v17H0z"/></clipPath></defs></svg>