<svg width="90" height="215" fill="none" xmlns="http://www.w3.org/2000/svg"><path d="M82.226 12.137H.647V74.02c0 38.038 7.797 64.295 39.258 95.648 31.461 31.352 42.354 34.284 42.354 34.284s10.86-2.942 42.353-34.284c31.494-31.342 39.259-57.61 39.259-95.648V12.137H82.226z" stroke="#E7E1D9" stroke-width=".94" stroke-linecap="round" stroke-linejoin="round"/><path d="M82.226 195.481c-4.463-2.531-15.66-10.104-36.923-31.233C14.255 133.252 8.336 108.629 8.336 74.02V19.797h147.781V74.02c0 34.62-5.897 59.232-37 90.228-21.242 21.129-32.416 28.702-36.89 31.233z" stroke="#E7E1D9" stroke-width=".94" stroke-linecap="round" stroke-linejoin="round"/><path d="M32.347 38.978L8.336 19.797l-7.689-7.66m81.656 183.269l-.076 8.546m-66.333-81.605l12.011-.076m97.446-26.181h-3.15V62.368h3.15a1.32 1.32 0 100-2.64H91.609c-.351 0-.688.14-.937.387a1.317 1.317 0 00.937 2.253h3.16V92.92a3.175 3.175 0 01-.939 2.242 3.199 3.199 0 01-2.253.928 1.327 1.327 0 00-.923.394c-.244.247-.38.58-.38.926v0a1.32 1.32 0 001.314 1.32h12.391a1.325 1.325 0 001.324-1.32 1.325 1.325 0 00-1.324-1.32h-3.15V62.368h15.302V96.09h-3.182a1.326 1.326 0 00-1.325 1.32 1.32 1.32 0 001.325 1.32h12.402a1.33 1.33 0 00.93-.39 1.318 1.318 0 00-.93-2.25v0zm-49.381 0h-3.148l-11.87-36.362h-10.86c-.352 0-.689.14-.937.387a1.317 1.317 0 00.937 2.253h3.258L43.01 93.905a3.16 3.16 0 01-1.162 1.572 3.179 3.179 0 01-1.868.591h-.869c-.35 0-.688.14-.936.387a1.317 1.317 0 00-.388.933v0a1.322 1.322 0 001.324 1.32h9.894a1.322 1.322 0 001.325-1.32v0a1.317 1.317 0 00-.396-.919 1.327 1.327 0 00-.93-.379H46.03l3.367-10.58h13.911l3.454 10.58h-3.193c-.352 0-.689.14-.937.387a1.317 1.317 0 00.937 2.253H75.97c.351 0 .688-.14.937-.387a1.317 1.317 0 00-.937-2.253zM50.33 82.567l5.941-18.62 6.07 18.62h-12.01z" stroke="#E7E1D9" stroke-width=".94" stroke-linecap="round" stroke-linejoin="round"/><path d="M82.227 46.335l-20.352-6.946-14.4 3.268-15.128-3.679v73.145l15.128 3.679 14.4-3.268 20.352 6.946V46.335z" stroke="#E7E1D9" stroke-width=".94" stroke-linecap="round" stroke-linejoin="round"/><path d="M32.347 47.568h-4.518v74.779h54.397v-2.867m.001-73.145l20.362-6.946 14.389 3.268 15.139-3.679v73.145l-15.139 3.679-14.389-3.268-20.362 6.946V46.335z" stroke="#E7E1D9" stroke-width=".94" stroke-linecap="round" stroke-linejoin="round"/><path d="M132.117 47.568h4.517v74.779H82.227v-2.867M27.83 47.568H8.335" stroke="#E7E1D9" stroke-width=".94" stroke-linecap="round" stroke-linejoin="round"/><path d="M82.303 195.416l-.076-73.069 54.473-.076" stroke="#E7E1D9" stroke-width=".94" stroke-linecap="round" stroke-linejoin="round"/><path d="M148.569 122.347h-11.946s-27.149 38.471-54.408 54.018c-42.114-27.047-54.397-54.018-54.397-54.018M61.875 39.39V19.796" stroke="#E7E1D9" stroke-width=".94" stroke-linecap="round" stroke-linejoin="round"/><path d="M116.978 115.802v6.491s-15.823 22.719-34.752 33.657c-19.884-10.992-34.751-33.657-34.751-33.657v-6.491" stroke="#E7E1D9" stroke-width=".94" stroke-linecap="round" stroke-linejoin="round"/></svg>