<svg width="129" height="163" fill="none" xmlns="http://www.w3.org/2000/svg"><g clip-path="url(#clip0_335_215524)" stroke="#E7E1D9" stroke-width=".939" stroke-miterlimit="10" stroke-linecap="round" stroke-linejoin="round"><path d="M74.24 102.836c-5.649 0-10.258 4.595-10.258 10.227v37.123c0 5.632 4.61 10.227 10.258 10.227 5.648 0 10.258-4.595 10.258-10.227v-37.123c0-5.677-4.61-10.227-10.258-10.227z"/><path d="M82.329 156.358l-8.09-10.858-8.088 10.858v.045m-.045-49.559l8.134 10.812 8.134-10.812m-8.134 38.7v-27.888m73.251-30.32c0-5.631-4.61-10.227-10.258-10.227H99.997c-5.648 0-10.257 4.596-10.257 10.227 0 5.632 4.609 10.227 10.257 10.227h37.236c5.693 0 10.258-4.595 10.258-10.227z"/><path d="M93.852 95.402l10.845-8.064-10.845-8.065h-.09m10.89 8.063h27.971m-73.928 0c0-5.631-4.61-10.227-10.258-10.227H11.202C5.553 77.11.944 81.705.944 87.336c0 5.632 4.61 10.227 10.258 10.227h37.235c5.649 0 10.258-4.595 10.258-10.227z"/><path d="M5.01 95.402l10.846-8.064-10.845-8.065h-.045m49.707-.046l-10.845 8.11 10.845 8.109m-38.817-8.11h27.927M74.24 14.262c-5.649 0-10.258 4.595-10.258 10.227v37.123c0 5.632 4.61 10.227 10.258 10.227 5.648 0 10.258-4.595 10.258-10.227V24.49c0-5.632-4.61-10.227-10.258-10.227z"/><path d="M82.329 67.785l-8.09-10.812-8.088 10.812v.045m-.045-49.56l8.134 10.857 8.134-10.857M74.24 56.972V29.129"/></g><defs><clipPath id="clip0_335_215524"><path fill="#fff" d="M0 0h129v163H0z"/></clipPath></defs></svg>