<svg width="18" height="19" fill="none" xmlns="http://www.w3.org/2000/svg"><path fill-rule="evenodd" clip-rule="evenodd" d="M10.653 11.123c-1.347 1.39-1.439 3.122-1.561 6.918 3.539 0 5.981-.012 7.243-1.236 1.224-1.262 1.236-3.82 1.236-7.243-3.796.122-5.528.214-6.918 1.56zM8.908 18.04c-3.539 0-5.981-.012-7.243-1.236C.441 15.543.43 12.985.43 9.562c3.796.122 5.528.214 6.918 1.56 1.347 1.39 1.439 3.123 1.561 6.92zM7.347 7.817C5.957 9.164 4.225 9.256.429 9.378c0-3.422.012-5.982 1.236-7.243C2.927.911 5.375.898 8.908.898c-.122 3.796-.214 5.529-1.561 6.919zM9.092.898c.116 3.796.214 5.529 1.561 6.919 1.39 1.347 3.122 1.439 6.918 1.561 0-3.422-.012-5.982-1.236-7.243C15.073.911 12.63.898 9.092.898z" fill="#80787A"/></svg>