<svg width="32" height="32" fill="none" xmlns="http://www.w3.org/2000/svg"><g clip-path="url(#clip0_4906_142098)" fill="#B36FDE"><path d="M10.456 13.64H2.36c-.937 0-1.738.577-2.066 1.393A2.198 2.198 0 000 16.128c0 1.225.998 2.218 2.228 2.218h8.098c.938 0 1.738-.577 2.067-1.393.185-.322.292-.696.292-1.094a2.223 2.223 0 00-2.229-2.218zM32 15.86a2.223 2.223 0 00-2.228-2.22h-8.097c-.937 0-1.738.577-2.067 1.393a2.202 2.202 0 00-.292 1.095c0 1.226.997 2.219 2.228 2.219h8.097c.937 0 1.738-.577 2.067-1.392A2.2 2.2 0 0032 15.859zm-15.938 3.375c-.938 0-1.738.576-2.067 1.393a2.2 2.2 0 00-.292 1.094v8.06c0 1.225.997 2.218 2.228 2.218.938 0 1.739-.577 2.067-1.393.185-.323.293-.696.293-1.094v-8.06a2.223 2.223 0 00-2.229-2.218zm0-19.235c-.938 0-1.738.577-2.067 1.393a2.202 2.202 0 00-.292 1.095v8.06c0 1.224.997 2.217 2.228 2.217.938 0 1.739-.577 2.067-1.393a2.19 2.19 0 00.293-1.094v-8.06A2.224 2.224 0 0016.062 0z"/></g><defs><clipPath id="clip0_4906_142098"><path fill="#fff" d="M0 0h32v32H0z"/></clipPath></defs></svg>