<svg width="120" height="120" fill="none" xmlns="http://www.w3.org/2000/svg"><g clip-path="url(#clip0_4906_142107)" fill="#B36FDE"><path d="M39.211 51.153H8.847a8.35 8.35 0 00-7.75 5.22A8.243 8.243 0 000 60.48c0 4.595 3.742 8.32 8.357 8.32H38.72a8.35 8.35 0 007.753-5.224 8.234 8.234 0 001.094-4.103c0-4.596-3.743-8.32-8.357-8.32zM120 59.472c0-4.596-3.74-8.32-8.355-8.32H81.281a8.355 8.355 0 00-7.752 5.22 8.26 8.26 0 00-1.095 4.11c0 4.594 3.74 8.318 8.356 8.318h30.364a8.356 8.356 0 007.752-5.22A8.254 8.254 0 00120 59.473zM60.233 72.13a8.354 8.354 0 00-7.753 5.223 8.253 8.253 0 00-1.093 4.104v30.226c0 4.592 3.74 8.317 8.355 8.317a8.35 8.35 0 007.752-5.224 8.216 8.216 0 001.095-4.102V80.448c0-4.595-3.742-8.319-8.356-8.319zm0-72.13a8.354 8.354 0 00-7.753 5.224 8.258 8.258 0 00-1.093 4.105v30.224c0 4.592 3.74 8.318 8.355 8.318a8.352 8.352 0 007.752-5.224 8.22 8.22 0 001.095-4.103V8.32c0-4.595-3.742-8.32-8.356-8.32z"/></g><defs><clipPath id="clip0_4906_142107"><path fill="#fff" d="M0 0h120v120H0z"/></clipPath></defs></svg>