<svg width="16" height="16" fill="none" xmlns="http://www.w3.org/2000/svg"><g clip-path="url(#clip0_4906_142080)" fill="#B36FDE"><path d="M5.228 6.82H1.18c-.469 0-.87.288-1.034.696A1.1 1.1 0 000 8.064c0 .613.499 1.11 1.114 1.11h4.049c.469 0 .869-.29 1.033-.697.093-.162.146-.348.146-.547 0-.613-.499-1.11-1.114-1.11zM16 7.93c0-.613-.499-1.11-1.114-1.11h-4.049c-.468 0-.868.289-1.033.696a1.101 1.101 0 00-.146.548c0 .613.499 1.11 1.114 1.11h4.049c.468 0 .868-.289 1.033-.697A1.1 1.1 0 0016 7.93zM8.031 9.617c-.469 0-.87.289-1.034.697a1.1 1.1 0 00-.145.547v4.03c0 .612.498 1.109 1.114 1.109.468 0 .869-.288 1.033-.697.093-.16.146-.347.146-.546v-4.03c0-.613-.499-1.11-1.114-1.11zm0-9.617c-.469 0-.87.288-1.034.696a1.101 1.101 0 00-.145.548v4.03a1.114 1.114 0 002.147.412 1.09 1.09 0 00.146-.547V1.11C9.145.497 8.646 0 8.031 0z"/></g><defs><clipPath id="clip0_4906_142080"><path fill="#fff" d="M0 0h16v16H0z"/></clipPath></defs></svg>