<svg width="37" height="36" fill="none" xmlns="http://www.w3.org/2000/svg"><path d="M15.386 20.143a2.766 2.766 0 00-1.849-.508 10.446 10.446 0 00-1.857.14v6.406h1.358v-2.324c.155.011.311.011.466 0a2.7 2.7 0 001.972-.679c.38-.42.58-.972.556-1.538a1.956 1.956 0 00-.646-1.497zm-1.669 2.633a1.045 1.045 0 01-.221-.015l.04-.008a1.972 1.972 0 01-.457 0v-1.948c.185-.043.374-.062.564-.057.688 0 1.072.36 1.072.95a1.04 1.04 0 01-.998 1.078z" fill="#AEA8A5"/><path d="M25.54 0h-18a3.273 3.273 0 00-3.273 3.273v29.454A3.273 3.273 0 007.539 36h22.91a3.273 3.273 0 003.272-3.273V9L25.54 0zm6.545 32.727c0 .904-.733 1.637-1.637 1.637H7.54a1.636 1.636 0 01-1.636-1.637V3.273c0-.904.733-1.637 1.636-1.637h14.728v8.182c0 .904.732 1.637 1.636 1.637h8.182v21.272zM23.903 9.818V1.636h.818l7.364 8.182h-8.182z" fill="#AEA8A5"/><path d="M20.925 20.381a3.715 3.715 0 00-2.479-.744 11.413 11.413 0 00-1.857.139v6.406c.515.069 1.035.102 1.554.098a4.158 4.158 0 002.799-.818 3.396 3.396 0 001.006-2.626 2.954 2.954 0 00-1.023-2.455zm-.425 2.455c-.008 1.546-.818 2.274-2.054 2.266v-.008a2.397 2.397 0 01-.474 0V20.83a2.69 2.69 0 01.621-.057 1.8 1.8 0 011.907 2.062zm2.634 3.348h1.374v-2.61h2.177v-1.195h-2.177v-1.48h2.332v-1.204h-3.706v6.489z" fill="#AEA8A5"/></svg>