<svg width="37" height="36" fill="none" xmlns="http://www.w3.org/2000/svg"><path d="M11.297 9h4.09a.818.818 0 100-1.637h-4.09a.818.818 0 100 1.637zm9.818 18h-9.818a.818.818 0 100 1.636h9.818a.818.818 0 100-1.636zM10.479 14.728c0 .452.366.819.818.819h14.727a.818.818 0 000-1.637H11.297a.818.818 0 00-.819.818zm15.545 5.725H11.297a.818.818 0 000 1.636h14.727a.818.818 0 100-1.636z" fill="#AEA8A5"/><path d="M25.205 0h-18a3.273 3.273 0 00-3.272 3.273v29.454A3.273 3.273 0 007.205 36h22.91a3.273 3.273 0 003.272-3.273V9l-8.182-9zm6.546 32.727c0 .904-.733 1.637-1.637 1.637H7.206a1.636 1.636 0 01-1.636-1.637V3.273c0-.904.733-1.637 1.636-1.637h14.728v8.182c0 .904.732 1.637 1.636 1.637h8.182v21.272zM23.569 9.818V1.636h.818l7.364 8.182h-8.182z" fill="#AEA8A5"/></svg>