<svg width="36" height="36" fill="none" xmlns="http://www.w3.org/2000/svg"><path d="M12.272 23.776c0 1.014-.36 1.293-.933 1.293a2.131 2.131 0 01-.703-.123l-.155 1.186c.322.102.659.155.998.156 1.333 0 2.16-.647 2.16-2.455v-4.09h-1.367v4.033zm6.62-3.633a2.765 2.765 0 00-1.85-.508 10.448 10.448 0 00-1.857.14v6.406h1.359v-2.324c.155.011.31.011.466 0a2.7 2.7 0 001.972-.679c.38-.42.58-.972.556-1.538a1.956 1.956 0 00-.646-1.497zm-1.669 2.633a1.044 1.044 0 01-.221-.015l.04-.008a1.972 1.972 0 01-.457 0v-1.948c.184-.043.374-.062.564-.057.688 0 1.072.36 1.072.95a1.04 1.04 0 01-.998 1.078z" fill="#AEA8A5"/><path d="M24.545 0h-18a3.273 3.273 0 00-3.273 3.273v29.454A3.273 3.273 0 006.545 36h22.91a3.273 3.273 0 003.272-3.273V9l-8.182-9zm6.546 32.727c0 .904-.733 1.637-1.637 1.637H6.545a1.636 1.636 0 01-1.636-1.637V3.273c0-.904.732-1.637 1.636-1.637h14.728v8.182c0 .904.732 1.636 1.636 1.636h8.182v21.273zM22.909 9.818V1.636h.818l7.364 8.182h-8.182z" fill="#AEA8A5"/><path d="M19.821 22.611c-.01.135-.012.27-.005.406h-.008a3.003 3.003 0 003.322 3.273 6.4 6.4 0 002.029-.368v-3.453h-2.25v1.145h.933v1.359a1.734 1.734 0 01-.68.098 1.89 1.89 0 01-1.89-2.16 1.898 1.898 0 012.005-2.095c.487-.017.971.078 1.415.278l.287-1.178a3.943 3.943 0 00-1.702-.278 3.223 3.223 0 00-3.456 2.973z" fill="#AEA8A5"/></svg>