<svg width="41" height="40" fill="none" xmlns="http://www.w3.org/2000/svg"><path fill-rule="evenodd" clip-rule="evenodd" d="M.125 1.429C.125.639.765 0 1.554 0h4.761a1.429 1.429 0 010 2.857H2.982V6.19a1.429 1.429 0 01-2.857 0V1.43zm40 0c0-.79-.64-1.429-1.429-1.429h-4.761a1.428 1.428 0 100 2.857h3.333V6.19a1.429 1.429 0 102.857 0V1.43zm-40 37.142c0 .79.64 1.429 1.429 1.429h4.761a1.429 1.429 0 000-2.857H2.982v-3.334a1.428 1.428 0 10-2.857 0v4.762zm40 0c0 .79-.64 1.429-1.429 1.429h-4.761a1.429 1.429 0 010-2.857h3.333v-3.334a1.428 1.428 0 112.857 0v4.762z" fill="#B36FDE"/><path d="M33.458 15.591h-3.222c.058-.515.06-1.04.003-1.562-.33-3.047-2.698-5.596-5.693-6.134-1.541-.276-3.06-.064-4.421.614-1.36-.678-2.88-.89-4.421-.614-2.993.537-5.363 3.085-5.693 6.134a7.172 7.172 0 00.003 1.562H6.792v1.563h3.578c.055.156.116.311.182.464.624 1.431.949 2.834.965 4.169.031 2.565.13 4.28.295 5.1a5.38 5.38 0 001.837 3.063 5.534 5.534 0 003.338 1.266l.781.026.026-.78c.154-4.7 1.577-7.058 2.331-7.058s2.178 2.358 2.331 7.057l.026.78.78-.025a5.534 5.534 0 003.34-1.266 5.38 5.38 0 001.836-3.064c.164-.818.264-2.534.295-5.099.016-1.335.341-2.738.965-4.17a6.35 6.35 0 00.182-.463h3.578V15.59zm-21.893-1.394c.253-2.347 2.11-4.35 4.415-4.764 2.423-.435 3.917.777 4.145.866.222-.087 1.73-1.3 4.145-.866 2.305.414 4.162 2.417 4.416 4.764a5.6 5.6 0 01-.024 1.394h-4.63V14.03h-7.813v1.562h-4.63a5.605 5.605 0 01-.024-1.394zm10.904 1.394v1.563H17.78V15.59h4.688zm4.702 6.177c-.03 2.398-.124 4.107-.265 4.81-.302 1.5-1.46 2.644-2.931 2.979-.13-1.888-.482-3.624-1.01-4.958-.902-2.28-2.042-2.758-2.84-2.758s-1.938.479-2.84 2.758c-.528 1.334-.88 3.07-1.01 4.958-1.471-.335-2.629-1.478-2.93-2.979-.142-.703-.236-2.412-.266-4.81-.018-1.494-.364-3.045-1.027-4.614h4.167v1.562h7.812v-1.562h4.167c-.663 1.569-1.01 3.12-1.027 4.614z" fill="#80787A"/></svg>