<svg width="41" height="40" fill="none" xmlns="http://www.w3.org/2000/svg"><path fill-rule="evenodd" clip-rule="evenodd" d="M.875 1.429C.875.639 1.515 0 2.304 0h4.761a1.429 1.429 0 010 2.857H3.732V6.19a1.429 1.429 0 01-2.857 0V1.43zm40 0c0-.79-.64-1.429-1.429-1.429h-4.761a1.428 1.428 0 100 2.857h3.333V6.19a1.429 1.429 0 102.857 0V1.43zm-40 37.142c0 .79.64 1.429 1.429 1.429h4.761a1.429 1.429 0 000-2.857H3.732v-3.334a1.428 1.428 0 10-2.857 0v4.762zm40 0c0 .79-.64 1.429-1.429 1.429h-4.761a1.429 1.429 0 010-2.857h3.333v-3.334a1.428 1.428 0 112.857 0v4.762z" fill="#B36FDE"/><path d="M30.237 12.484h-3.86v-2.037a2.672 2.672 0 00-2.67-2.67h-5.664a2.672 2.672 0 00-2.67 2.67v2.037h-3.86a3.976 3.976 0 00-3.971 3.972v12.448a3.976 3.976 0 003.971 3.971h18.724a3.976 3.976 0 003.971-3.971V16.456a3.976 3.976 0 00-3.971-3.972zm-13.3-2.037c0-.61.496-1.107 1.106-1.107h5.664c.61 0 1.107.496 1.107 1.107v2.037h-7.878v-2.037zM9.103 28.904V16.456c0-1.055.682-1.953 1.628-2.278v17.004a2.413 2.413 0 01-1.628-2.278zm3.19 2.409V14.047h17.162v17.266H12.294zm20.352-2.41a2.412 2.412 0 01-1.628 2.279V14.178a2.412 2.412 0 011.628 2.278v12.448z" fill="#80787A"/><path d="M25.582 20.33h-2.357v-2.357a.781.781 0 00-.781-.782h-3.138a.781.781 0 00-.781.782v2.356h-2.357a.781.781 0 00-.781.782v3.138c0 .431.35.78.781.78h2.357v2.358c0 .431.35.781.781.781h3.138c.431 0 .781-.35.781-.781V25.03h2.357c.431 0 .781-.35.781-.781V21.11a.781.781 0 00-.781-.782zm-.781 3.137h-2.357a.781.781 0 00-.781.782v2.357h-1.576v-2.357a.781.781 0 00-.781-.782h-2.357v-1.575h2.357c.431 0 .781-.35.781-.781v-2.357h1.576v2.357c0 .431.35.78.781.78h2.357v1.576z" fill="#80787A"/></svg>