<svg width="46" height="46" fill="none" xmlns="http://www.w3.org/2000/svg"><path fill-rule="evenodd" clip-rule="evenodd" d="M0 1.643C0 .736.736 0 1.643 0h5.476a1.643 1.643 0 010 3.286H3.286v3.833a1.643 1.643 0 01-3.286 0V1.643zm46 0C46 .736 45.264 0 44.357 0h-5.476a1.643 1.643 0 100 3.286h3.833v3.833a1.643 1.643 0 103.286 0V1.643zM0 44.357C0 45.264.736 46 1.643 46h5.476a1.643 1.643 0 100-3.286H3.286v-3.833a1.643 1.643 0 10-3.286 0v5.476zm46 0c0 .907-.736 1.643-1.643 1.643h-5.476a1.643 1.643 0 110-3.286h3.833v-3.833a1.643 1.643 0 113.286 0v5.476z" fill="#B36FDE"/><path d="M22.72 19.45a.961.961 0 00-1.357-.003l-3.155 3.157-1.238-1.24a.959.959 0 00-1.355 1.355l1.917 1.917a.949.949 0 00.676.282.963.963 0 00.679-.28l3.833-3.834a.96.96 0 000-1.355zm0 7.667a.961.961 0 00-1.357-.002l-3.155 3.157-1.238-1.238a.959.959 0 00-1.355 1.355l1.917 1.917a.963.963 0 001.355 0l3.833-3.834a.96.96 0 000-1.355zm6.988-6.031h-3.833a.959.959 0 000 1.917h3.833a.959.959 0 000-1.917zm0 7.664h-3.833a.959.959 0 000 1.917h3.833a.959.959 0 000-1.917z" fill="#80787A"/><path d="M32.583 11.501H28.75v-.958a.959.959 0 00-.958-.958h-2.08A2.883 2.883 0 0023 7.668c-1.25 0-2.315.801-2.712 1.917h-2.08a.959.959 0 00-.958.958v.958h-3.833a1.92 1.92 0 00-1.917 1.917v23a1.92 1.92 0 001.917 1.917h19.166a1.92 1.92 0 001.917-1.917v-23a1.92 1.92 0 00-1.917-1.917zm-13.416 0h1.916c.53 0 .959-.429.959-.958a.959.959 0 011.916 0c0 .529.43.958.959.958h1.916v1.917h-7.666v-1.917zm13.416 24.917H13.417v-23h3.833v.958c0 .53.43.959.958.959h9.584c.529 0 .958-.43.958-.959v-.958h3.833v23z" fill="#80787A"/></svg>