<svg width="46" height="46" fill="none" xmlns="http://www.w3.org/2000/svg"><path fill-rule="evenodd" clip-rule="evenodd" d="M0 1.643C0 .736.736 0 1.643 0h5.476a1.643 1.643 0 010 3.286H3.286v3.833a1.643 1.643 0 01-3.286 0V1.643zm46 0C46 .736 45.264 0 44.357 0h-5.476a1.643 1.643 0 100 3.286h3.833v3.833a1.643 1.643 0 103.286 0V1.643zM0 44.357C0 45.264.736 46 1.643 46h5.476a1.643 1.643 0 100-3.286H3.286v-3.833a1.643 1.643 0 10-3.286 0v5.476zm46 0c0 .907-.736 1.643-1.643 1.643h-5.476a1.643 1.643 0 110-3.286h3.833v-3.833a1.643 1.643 0 113.286 0v5.476z" fill="#B36FDE"/><path d="M32.433 28.96l-4.192-.84a.96.96 0 01-.769-.94v-.961c.276-.384.533-.895.803-1.43.205-.405.514-1.016.652-1.158.813-.795 1.679-1.78 1.944-3.068.241-1.166.001-1.771-.278-2.25 0-.938 0-2.655-.326-3.89-.035-1.494-.307-2.338-.997-3.085-.487-.527-1.204-.648-1.779-.746-.228-.038-.54-.09-.65-.151-.992-.552-2.002-.824-3.239-.855-2.53.094-5.634 1.7-6.675 4.583-.315.876-.286 2.313-.263 3.469l-.025.674c-.243.48-.483 1.085-.243 2.249.266 1.29 1.133 2.277 1.945 3.07.138.146.45.76.658 1.164.272.53.53 1.042.807 1.426v.96a.96.96 0 01-.769.94l-4.192.839a5.765 5.765 0 00-4.623 5.636v1.823a1.92 1.92 0 001.917 1.917h23c1.058 0 1.917-.86 1.917-1.917v-1.822a5.765 5.765 0 00-4.623-5.637zm2.706 7.46h-23v-1.824a3.843 3.843 0 013.08-3.758l4.192-.84a2.879 2.879 0 002.311-2.817v-1.303a.957.957 0 00-.285-.683c-.165-.16-.52-.857-.73-1.272-.363-.708-.673-1.317-1.026-1.662-.636-.621-1.248-1.305-1.409-2.087-.122-.604-.036-.775.073-.991.098-.192.245-.48.245-.87l-.01-.712c-.014-.837-.045-2.24.15-2.78.744-2.063 3.103-3.25 4.884-3.318.878.023 1.566.205 2.298.611.397.22.857.297 1.261.366.228.038.608.102.688.155.26.28.474.621.491 1.938.002.086.015.173.038.255.286.98.286 2.672.286 3.483 0 .39.148.678.245.87.111.216.198.387.071.994-.159.78-.768 1.463-1.405 2.084-.356.347-.665.958-1.02 1.664-.212.417-.563 1.111-.726 1.272a.957.957 0 00-.285.683v1.303c0 1.365.971 2.551 2.311 2.82l4.192.839a3.839 3.839 0 013.08 3.756v1.823zM15.014 7.668H11.18a.959.959 0 00-.959.958v5.75a.959.959 0 001.917 0V9.585h2.875a.959.959 0 000-1.917z" fill="#80787A"/><path d="M15.014 24.918h-2.875v-4.792a.959.959 0 00-1.917 0v5.75c0 .53.43.959.959.959h3.833a.959.959 0 000-1.917zm21.083-17.25h-3.833a.959.959 0 000 1.917h2.875v4.791a.959.959 0 001.917 0v-5.75a.959.959 0 00-.959-.958zm0 11.5a.959.959 0 00-.958.958v4.792h-2.875a.959.959 0 000 1.917h3.833a.96.96 0 00.959-.959v-5.75a.959.959 0 00-.959-.958z" fill="#80787A"/></svg>