<svg width="41" height="40" fill="none" xmlns="http://www.w3.org/2000/svg"><path fill-rule="evenodd" clip-rule="evenodd" d="M.125 1.429C.125.639.765 0 1.554 0h4.761a1.429 1.429 0 010 2.857H2.982V6.19a1.429 1.429 0 01-2.857 0V1.43zm40 0c0-.79-.64-1.429-1.429-1.429h-4.761a1.428 1.428 0 100 2.857h3.333V6.19a1.429 1.429 0 102.857 0V1.43zm-40 37.142c0 .79.64 1.429 1.429 1.429h4.761a1.429 1.429 0 000-2.857H2.982v-3.334a1.428 1.428 0 10-2.857 0v4.762zm40 0c0 .79-.64 1.429-1.429 1.429h-4.761a1.429 1.429 0 010-2.857h3.333v-3.334a1.428 1.428 0 112.857 0v4.762z" fill="#B36FDE"/><path d="M14.928 18.335h-2.777a.834.834 0 010-1.667h2.777a.834.834 0 010 1.667zm13.334 0h-8.334a.834.834 0 010-1.667h8.334a.834.834 0 010 1.667zm-13.334 4.441h-2.777a.834.834 0 010-1.667h2.777a.834.834 0 010 1.667zm13.334 0h-8.334a.834.834 0 010-1.667h8.334a.834.834 0 010 1.667zm-13.334 4.445h-2.777a.834.834 0 010-1.666h2.777a.834.834 0 010 1.666zm13.334 0h-8.334a.834.834 0 010-1.666h8.334a.834.834 0 010 1.666z" fill="#80787A"/><path d="M30.403 32.222H9.847a3.058 3.058 0 01-3.055-3.056V10.833a3.058 3.058 0 013.055-3.056h20.556a3.058 3.058 0 013.055 3.056v18.333a3.058 3.058 0 01-3.055 3.056zM9.847 9.444a1.39 1.39 0 00-1.389 1.389v18.333a1.39 1.39 0 001.39 1.39h20.555a1.39 1.39 0 001.389-1.39V10.833a1.39 1.39 0 00-1.39-1.389H9.848z" fill="#80787A"/><path d="M32.625 13.335h-25a.834.834 0 010-1.667h25a.834.834 0 010 1.667z" fill="#80787A"/></svg>