<svg width="41" height="40" fill="none" xmlns="http://www.w3.org/2000/svg"><path fill-rule="evenodd" clip-rule="evenodd" d="M.875 1.429C.875.639 1.515 0 2.304 0h4.761a1.429 1.429 0 010 2.857H3.732V6.19a1.429 1.429 0 01-2.857 0V1.43zm40 0c0-.79-.64-1.429-1.429-1.429h-4.761a1.428 1.428 0 100 2.857h3.333V6.19a1.429 1.429 0 102.857 0V1.43zm-40 37.142c0 .79.64 1.429 1.429 1.429h4.761a1.429 1.429 0 000-2.857H3.732v-3.334a1.428 1.428 0 10-2.857 0v4.762zm40 0c0 .79-.64 1.429-1.429 1.429h-4.761a1.429 1.429 0 010-2.857h3.333v-3.334a1.428 1.428 0 112.857 0v4.762z" fill="#B36FDE"/><path d="M32.329 6.727a.78.78 0 00-.851.17L9.327 29.046c-1.528 1.532-.285 4.289 1.988 4.289.616 0 1.194-.24 1.628-.675l10.435-10.432a.78.78 0 00.228-.553V18.54l2.014 2.014a.781.781 0 001.105 0l1.125-1.125a16.86 16.86 0 003.672-5.496 16.865 16.865 0 001.29-6.484c0-.316-.191-.6-.483-.722zM22.044 21.351L11.838 31.555l-.001.001c-.35.352-.946.245-1.299-.108-.344-.341-.46-.942-.106-1.298l11.612-11.61v2.811zm8.034-8.016a15.306 15.306 0 01-3.332 4.989l-.574.572-2.242-2.242 7.187-7.187a15.315 15.315 0 01-1.039 3.868z" fill="#80787A"/></svg>