<svg width="41" height="40" fill="none" xmlns="http://www.w3.org/2000/svg"><path fill-rule="evenodd" clip-rule="evenodd" d="M.625 1.429C.625.639 1.265 0 2.054 0h4.761a1.429 1.429 0 010 2.857H3.482V6.19a1.429 1.429 0 01-2.857 0V1.43zm40 0c0-.79-.64-1.429-1.429-1.429h-4.761a1.428 1.428 0 100 2.857h3.333V6.19a1.429 1.429 0 102.857 0V1.43zm-40 37.142c0 .79.64 1.429 1.429 1.429h4.761a1.429 1.429 0 000-2.857H3.482v-3.334a1.428 1.428 0 10-2.857 0v4.762zm40 0c0 .79-.64 1.429-1.429 1.429h-4.761a1.429 1.429 0 010-2.857h3.333v-3.334a1.428 1.428 0 112.857 0v4.762z" fill="#B36FDE"/><path d="M11.198 13.004a.781.781 0 00-.781-.781 3.128 3.128 0 00-3.125 3.125.781.781 0 001.562 0c0-.862.701-1.563 1.563-1.563a.78.78 0 00.78-.781zm18.854-.781a.781.781 0 100 1.562 2.346 2.346 0 012.344 2.344.781.781 0 101.562 0 3.91 3.91 0 00-3.906-3.906zm-.299 3.165a29.045 29.045 0 01-18.256 0 .783.783 0 00-1.028.741v1.563a10.171 10.171 0 00.188 1.946c.913 4.69 5.051 8.21 9.968 8.21 4.922 0 9.056-3.527 9.968-8.21a10.18 10.18 0 00.188-1.946v-1.563a.784.784 0 00-1.028-.74zm-.534 1.805v.499c0 .389-.027.771-.077 1.146a32.081 32.081 0 01-8.517 1.146 32.07 32.07 0 01-8.517-1.146c-.105-.783-.07-1.3-.077-1.645a30.367 30.367 0 008.594 1.24c2.917 0 5.802-.417 8.594-1.24zM17.503 25.7a5.415 5.415 0 013.122-.976c1.137 0 2.214.341 3.122.976a8.548 8.548 0 01-3.122.587 8.57 8.57 0 01-3.122-.587zm7.771-.783a6.958 6.958 0 00-4.649-1.755c-1.738 0-3.366.62-4.649 1.755a8.639 8.639 0 01-3.451-4.354 33.69 33.69 0 008.1.984 33.69 33.69 0 008.1-.984 8.638 8.638 0 01-3.451 4.354z" fill="#80787A"/></svg>