<svg width="41" height="40" fill="none" xmlns="http://www.w3.org/2000/svg"><path fill-rule="evenodd" clip-rule="evenodd" d="M.625 1.429C.625.639 1.265 0 2.054 0h4.761a1.429 1.429 0 010 2.857H3.482V6.19a1.429 1.429 0 01-2.857 0V1.43zm40 0c0-.79-.64-1.429-1.429-1.429h-4.761a1.428 1.428 0 100 2.857h3.333V6.19a1.429 1.429 0 102.857 0V1.43zm-40 37.142c0 .79.64 1.429 1.429 1.429h4.761a1.429 1.429 0 000-2.857H3.482v-3.334a1.428 1.428 0 10-2.857 0v4.762zm40 0c0 .79-.64 1.429-1.429 1.429h-4.761a1.429 1.429 0 010-2.857h3.333v-3.334a1.428 1.428 0 112.857 0v4.762z" fill="#B36FDE"/><path d="M21.587 22.325l.49-2.997c.101-.62-.317-1.209-.927-1.296a1.105 1.105 0 00-1.24.91l-.505 3.086c-.194 1.186-1.62 1.649-2.462.835-1.753-1.693-2.478-4.324-1.893-6.867a7.76 7.76 0 00-.038-3.534c-1.013-4.21 3.688-7.518 6.926-4.812.515.43 1.224.545 1.85.301 3.95-1.542 7.358 3.14 5.006 6.808a7.773 7.773 0 00-1.174 3.358c-.271 2.522-1.734 4.755-3.816 5.828-1.106.57-2.422-.368-2.217-1.62zm-.216-5.84c1.51.216 2.485 1.648 2.248 3.095l-.482 2.95c1.595-.844 2.716-2.594 2.93-4.58a9.34 9.34 0 011.412-4.034c1.534-2.393-.58-5.502-3.124-4.51a3.406 3.406 0 01-3.419-.557c-2.084-1.742-5.066.5-4.405 3.249.34 1.42.355 2.89.042 4.249-.448 1.943.057 3.937 1.318 5.255l.476-2.911a2.662 2.662 0 013.004-2.206z" fill="#80787A"/><path d="M33.082 33.335H8.072a.781.781 0 01-.78-.78c0-3.505.326-9.787 1.376-13.162.424-1.364 1.161-2.944 2.583-2.944 4.371 0-.025 12.252 5.627 12.252.392 0 .696-.092 1.041-1.285.825-2.847 4.694-2.78 5.441-.014.161.592.464 1.299.991 1.299 5.824 0 2.522-10.69 6.595-10.69 2.667 0 2.9 5.913 2.982 8.623a77.814 77.814 0 01-.066 5.965.781.781 0 01-.78.736zm-24.22-1.562h23.474c.084-2.157.265-10.521-1.218-12.09-.636-.673-.994 2.104-1.127 3.017-.422 2.89-1.022 7.563-5.64 7.563-1.374 0-2.145-1.145-2.506-2.48-.32-1.176-2.032-1.288-2.425.068-.21.722-.699 2.412-2.542 2.412-4.574 0-4.759-5.1-4.915-8.488-.064-1.407-.173-3.763-.712-3.763-.179 0-.637.385-1.091 1.845-.962 3.091-1.243 8.686-1.297 11.916z" fill="#80787A"/></svg>