<svg width="161" height="160" fill="none" xmlns="http://www.w3.org/2000/svg"><path fill-rule="evenodd" clip-rule="evenodd" d="M.656 2.84A2.84 2.84 0 013.497 0h9.47a2.84 2.84 0 110 5.679H6.339v6.625a2.84 2.84 0 01-2.841 2.839 2.84 2.84 0 01-2.841-2.84V2.84zm159.65 0A2.84 2.84 0 00157.464 0h-9.47a2.84 2.84 0 100 5.679h6.629v6.625a2.84 2.84 0 002.841 2.839 2.84 2.84 0 002.842-2.84V2.84zM.656 156.702a2.84 2.84 0 002.841 2.839h9.47a2.84 2.84 0 100-5.678H6.339v-6.625a2.84 2.84 0 00-5.682 0v9.464zm159.65 0a2.84 2.84 0 01-2.842 2.839h-9.47a2.84 2.84 0 110-5.679h6.629v-6.625a2.84 2.84 0 012.841-2.839 2.84 2.84 0 012.842 2.839v9.465z" fill="#B36FDE"/></svg>