<svg width="338" height="392" fill="none" xmlns="http://www.w3.org/2000/svg"><g clip-path="url(#clip0_77_51109)" stroke="#E7E1D9" stroke-miterlimit="10" stroke-linecap="round" stroke-linejoin="round"><path d="M194.915 143.395l267.424-27.604V267.62L195.06 236.085"/><path d="M225.409 357.328h-24.941L0 192.213 200.468 26.065h24.941"/><path d="M432.843 151.664l-249.868 38.592 249.408 40.202M25.881 191.602l183.367-153.46m-8.764 319.187l9.937-14.318L25.585 191.912H.625"/><path d="M166.012 190.246l43.239-152.098 16.158-12.084-42.447 164.182 42.447 167.082-15.004-14.316-44.393-152.766zm.009.001h16.95"/><path d="M210.421 343.012l-99.974-151.315 98.819-153.549-8.782-12.084M25.57 191.686h84.861"/></g><defs><clipPath id="clip0_77_51109"><path fill="#fff" transform="translate(0 -52)" d="M0 0h384v484H0z"/></clipPath></defs></svg>