<svg width="143" height="181" fill="none" xmlns="http://www.w3.org/2000/svg"><path d="M69.168 10.219H.544v52.096c0 32.023 6.559 54.128 33.023 80.523C60.032 169.232 69.195 171.7 69.195 171.7s9.135-2.477 35.627-28.862c26.491-26.386 33.023-48.5 33.023-80.523V10.22H69.168z" stroke="#E7E1D9" stroke-width=".94" stroke-linecap="round" stroke-linejoin="round"/><path d="M69.167 164.57c-3.755-2.131-13.173-8.507-31.06-26.295C11.99 112.182 7.013 91.452 7.013 62.316V16.668h124.31v45.648c0 29.145-4.961 49.866-31.124 75.959-17.868 17.788-27.268 24.164-31.031 26.295z" stroke="#E7E1D9" stroke-width=".94" stroke-linecap="round" stroke-linejoin="round"/><path d="M137.8 10.219l-6.477 6.448-20.188 16.148m-83.925 0L7.013 16.667.545 10.22m68.687 154.284l-.064 7.195m-55.797-68.698l10.103-.063m81.97-22.041h-2.649v-28.39h2.649a1.11 1.11 0 100-2.222H77.061a1.116 1.116 0 00-1.114 1.111 1.11 1.11 0 001.114 1.111h2.658v25.72a2.674 2.674 0 01-.79 1.888 2.69 2.69 0 01-1.895.782 1.117 1.117 0 00-1.097 1.11v0a1.11 1.11 0 001.106 1.112h10.423a1.116 1.116 0 001.114-1.111 1.11 1.11 0 00-1.114-1.111h-2.65v-28.39h12.872v28.39h-2.677a1.116 1.116 0 00-1.114 1.11 1.11 1.11 0 001.114 1.112h10.433a1.116 1.116 0 001.105-1.111 1.11 1.11 0 00-1.105-1.111v0zm-41.538 0h-2.65l-9.984-30.612h-9.135a1.116 1.116 0 00-1.114 1.111 1.11 1.11 0 001.114 1.111h2.74l-8.696 26.55a2.66 2.66 0 01-2.549 1.821h-.73a1.116 1.116 0 00-1.115 1.111v0a1.11 1.11 0 001.115 1.112h8.322a1.117 1.117 0 001.114-1.112v0a1.11 1.11 0 00-1.114-1.093H38.72l2.832-8.907h11.702l2.904 8.907h-2.685a1.116 1.116 0 00-1.115 1.112 1.11 1.11 0 001.115 1.11h10.432a1.116 1.116 0 001.114-1.11 1.11 1.11 0 00-1.114-1.111zM42.338 69.511l4.997-15.675 5.106 15.675H42.338z" stroke="#E7E1D9" stroke-width=".94" stroke-linecap="round" stroke-linejoin="round"/><path d="M69.168 39.01L52.05 33.163l-12.113 2.75-12.725-3.097v61.578l12.725 3.097 12.113-2.75 17.12 5.847V39.01z" stroke="#E7E1D9" stroke-width=".94" stroke-linecap="round" stroke-linejoin="round"/><path d="M27.21 40.047h-3.8V103h45.758v-2.413m0-61.577l17.128-5.847 12.104 2.75 12.734-3.097v61.578L98.4 97.491l-12.104-2.75-17.128 5.847V39.01z" stroke="#E7E1D9" stroke-width=".94" stroke-linecap="round" stroke-linejoin="round"/><path d="M111.134 40.047h3.801V103H69.168v-2.413M23.41 40.047H7.011" stroke="#E7E1D9" stroke-width=".94" stroke-linecap="round" stroke-linejoin="round"/><path d="M69.232 164.515l-.064-61.514 45.821-.063" stroke="#E7E1D9" stroke-width=".94" stroke-linecap="round" stroke-linejoin="round"/><path d="M124.973 103h-10.048s-22.838 32.387-45.767 45.475C33.732 125.706 23.4 103 23.4 103m91.534-62.953h16.388m-45.027-6.885V16.668M52.049 33.162V16.668" stroke="#E7E1D9" stroke-width=".94" stroke-linecap="round" stroke-linejoin="round"/><path d="M98.4 97.488v5.465s-13.31 19.126-29.232 28.334c-16.727-9.253-29.233-28.334-29.233-28.334v-5.465" stroke="#E7E1D9" stroke-width=".94" stroke-linecap="round" stroke-linejoin="round"/></svg>