<svg width="338" height="432" fill="none" xmlns="http://www.w3.org/2000/svg"><path d="M185.735-24.677H1.462V114.63c0 85.631 17.613 144.739 88.677 215.319 71.065 70.579 95.67 77.18 95.67 77.18s24.53-6.625 95.669-77.18c71.138-70.555 88.677-129.688 88.677-215.319V-24.677h-184.42z" stroke="#E7E1D9" stroke-width=".94" stroke-linecap="round" stroke-linejoin="round"/><path d="M185.735 388.06c-10.082-5.699-35.373-22.747-83.404-70.312-70.133-69.776-83.502-125.207-83.502-203.117V-7.434H352.64V114.63c0 77.935-13.32 133.341-83.575 203.117-47.982 47.565-73.224 64.613-83.33 70.312z" stroke="#E7E1D9" stroke-width=".94" stroke-linecap="round" stroke-linejoin="round"/><path d="M370.033-24.677L352.64-7.434l-54.212 43.18m-225.362 0L18.83-7.434 1.462-24.677m184.445 412.566l-.172 19.241M35.902 223.423l27.131-.171m220.113-58.938h-7.114V88.401h7.114c.794 0 1.555-.313 2.116-.87a2.96 2.96 0 000-4.202 3.002 3.002 0 00-2.116-.87h-76.217c-.793 0-1.554.312-2.116.87a2.961 2.961 0 000 4.202c.562.557 1.323.87 2.116.87h7.139v68.777a7.138 7.138 0 01-2.121 5.048 7.242 7.242 0 01-5.091 2.088 3.01 3.01 0 00-2.085.887 2.965 2.965 0 00-.859 2.084v0c0 .784.312 1.536.868 2.093a3.008 3.008 0 002.1.879h27.99c.793 0 1.555-.313 2.116-.871a2.96 2.96 0 000-4.202 3.005 3.005 0 00-2.116-.87h-7.114V88.401h34.563v75.913h-7.187c-.794 0-1.555.313-2.116.87a2.963 2.963 0 00-.877 2.101c0 .788.316 1.544.877 2.101a3 3 0 002.116.871h28.014a3.008 3.008 0 002.1-.879 2.962 2.962 0 00.868-2.093c0-.783-.312-1.535-.868-2.092a3.004 3.004 0 00-2.1-.879v0zm-111.541 0h-7.114l-26.812-81.856h-24.53c-.794 0-1.555.313-2.116.87a2.958 2.958 0 000 4.203c.561.557 1.322.87 2.116.87h7.359l-23.353 70.994a7.116 7.116 0 01-2.625 3.539 7.195 7.195 0 01-4.22 1.331h-1.962c-.793 0-1.555.314-2.116.871a2.96 2.96 0 00-.876 2.101v0c0 .788.315 1.543.876 2.101.561.557 1.323.87 2.116.87h22.348c.793 0 1.555-.313 2.116-.87a2.962 2.962 0 00.876-2.101v0a2.957 2.957 0 00-.893-2.07 3.004 3.004 0 00-2.099-.853h-6.722l7.605-23.819h31.423l7.801 23.819h-7.212c-.794 0-1.555.313-2.116.87a2.963 2.963 0 00-.877 2.101c0 .788.316 1.544.877 2.101a3 3 0 002.116.871h28.014a3 3 0 002.116-.871 2.962 2.962 0 00.877-2.101c0-.788-.316-1.543-.877-2.101a3.003 3.003 0 00-2.116-.87zm-57.917-30.443l13.419-41.914 13.712 41.914h-27.131z" stroke="#E7E1D9" stroke-width=".94" stroke-linecap="round" stroke-linejoin="round"/><path d="M185.735 52.307l-45.97-15.635-32.528 7.355-34.17-8.28v164.661l34.17 8.28 32.528-7.355 45.97 15.636V52.308z" stroke="#E7E1D9" stroke-width=".94" stroke-linecap="round" stroke-linejoin="round"/><path d="M73.067 55.084H62.862v168.339h122.873v-6.454m0-164.662l45.995-15.635 32.503 7.355 34.195-8.28v164.661l-34.195 8.28-32.503-7.355-45.995 15.636V52.308z" stroke="#E7E1D9" stroke-width=".94" stroke-linecap="round" stroke-linejoin="round"/><path d="M298.428 55.084h10.205v168.339H185.735v-6.454M62.861 55.084H18.83" stroke="#E7E1D9" stroke-width=".94" stroke-linecap="round" stroke-linejoin="round"/><path d="M185.907 387.914l-.172-164.491 123.045-.171" stroke="#E7E1D9" stroke-width=".94" stroke-linecap="round" stroke-linejoin="round"/><path d="M335.592 223.423h-26.984s-61.326 86.605-122.898 121.602C90.58 284.139 62.837 223.423 62.837 223.423M308.633 55.084h44.007M231.729 36.672V-7.434m-91.964 44.106V-7.434" stroke="#E7E1D9" stroke-width=".94" stroke-linecap="round" stroke-linejoin="round"/><path d="M264.232 208.688v14.613s-35.741 51.145-78.497 75.767c-44.916-24.744-78.498-75.767-78.498-75.767v-14.613" stroke="#E7E1D9" stroke-width=".94" stroke-linecap="round" stroke-linejoin="round"/></svg>