<svg width="595" height="505" fill="none" xmlns="http://www.w3.org/2000/svg"><path d="M135.262 483.288V86.09m52.209 444.276l-52.221-47.04-49.363 47.04m2.168-491.924l47.908 47.691 48.559-47.691m.001 0H88.056m175.35 203.683l63.351 11.758m-63.351-11.764l61.895-20.02m124.062 268.988L241.378 212.578M437.359 68.771L229.094 276.302m287.939-237.86l-79.644 30.321-20.205-30.321m-3.289 490.696l35.459-38.048 82.565 39.254m6.593-510.388h-143.09M373.27.973l22.163 18.98-22.163 18.49m187.405.001l-22.163-18.488L560.78.973M214.148 19.956H53.505M32.02.973l21.491 18.98-21.215 18.49m202.555.001l-20.667-18.488L234.851.973M517.02 38.442h-99.849" stroke="#E7E1D9" stroke-miterlimit="10" stroke-linecap="round" stroke-linejoin="round"/><path d="M187.101 493.38l-2.564-144.065V38.442h50.286c11.527 0 20.87-8.389 20.87-18.735 0-10.348-9.343-18.734-20.87-18.734H32.085c-11.527 0-20.87 8.386-20.87 18.734 0 10.346 9.343 18.735 20.87 18.735H88.07V353.91l-1.703 124.146-.48 52.291H21.385C10.124 530.348 1 538.541 1 548.646c0 10.107 9.125 18.3 20.384 18.3H236.8c11.257 0 20.384-8.193 20.384-18.3 0-10.105-9.127-18.298-20.384-18.298h-49.328l-.371-36.968z" stroke="#E7E1D9" stroke-miterlimit="10" stroke-linecap="round" stroke-linejoin="round"/><path d="M516.996 38.444h42.512c11.528 0 20.873-8.389 20.873-18.735 0-10.348-9.345-18.736-20.873-18.736H376.045c-11.525 0-20.87 8.388-20.87 18.736 0 10.346 9.345 18.735 20.87 18.735h41.102L241.352 212.582c-19.098 20.159-22.283 48.832-7.996 71.98l180.522 245.784h-40.393c-11.259 0-20.388 8.193-20.388 18.3 0 10.107 9.129 18.302 20.388 18.302h200.126c11.259 0 20.388-8.195 20.388-18.302s-9.129-18.3-20.388-18.3h-41.708L357.292 297.257c-21.512-34.79-50.678-54.795-28.205-80.299 30.426-34.531 187.909-178.514 187.909-178.514z" stroke="#E7E1D9" stroke-miterlimit="10" stroke-linecap="round" stroke-linejoin="round"/></svg>