<svg width="19" height="24" fill="none" xmlns="http://www.w3.org/2000/svg"><path d="M9.281 9.22a.752.752 0 00-1.062-.001l-2.469 2.47-.969-.97a.75.75 0 00-1.06 1.06l1.5 1.5a.753.753 0 001.06.002l3-3a.75.75 0 000-1.06zm0 6a.752.752 0 00-1.062-.001l-2.469 2.47-.969-.969a.75.75 0 00-1.06 1.06l1.5 1.5a.747.747 0 001.06 0l3-3a.75.75 0 000-1.06zm5.469-4.72h-3a.75.75 0 000 1.5h3a.75.75 0 000-1.5zm0 6h-3a.75.75 0 000 1.5h3a.75.75 0 000-1.5z" fill="#E7E1D9"/><path d="M17 3h-3v-.75a.75.75 0 00-.75-.75h-1.627A2.256 2.256 0 009.5 0c-.978 0-1.812.627-2.122 1.5H5.75a.75.75 0 00-.75.75V3H2C1.173 3 .5 3.674.5 4.5v18c0 .826.673 1.5 1.5 1.5h15c.826 0 1.5-.674 1.5-1.5v-18c0-.826-.674-1.5-1.5-1.5zM6.5 3H8a.75.75 0 00.75-.75.75.75 0 011.5 0c0 .414.336.75.75.75h1.5v1.5h-6V3zM17 22.5H2v-18h3v.75c0 .414.336.75.75.75h7.5a.75.75 0 00.75-.75V4.5h3v18z" fill="#E7E1D9"/></svg>