<svg width="180" height="33" fill="none" xmlns="http://www.w3.org/2000/svg"><path d="M172.501 5.597h-2.818a.775.775 0 00-.719.505.817.817 0 00-.102.397c0 .444.347.805.776.805h2.818c.326 0 .605-.21.72-.506a.825.825 0 00.101-.396c0-.445-.347-.805-.776-.805zm7.499.805c0-.445-.347-.805-.776-.805h-2.818a.775.775 0 00-.719.505.817.817 0 00-.102.397c0 .445.347.805.776.805h2.818a.775.775 0 00.719-.505.817.817 0 00.102-.397zm-5.547 1.224a.777.777 0 00-.72.505.826.826 0 00-.101.397v2.923c0 .444.347.804.775.804.326 0 .605-.21.72-.505a.825.825 0 00.101-.397V8.43c0-.444-.347-.804-.775-.804zm0-6.976a.777.777 0 00-.72.506.826.826 0 00-.101.397v2.923c0 .444.347.804.775.804.326 0 .605-.21.72-.505a.825.825 0 00.101-.397V1.455c0-.444-.347-.804-.775-.804z" fill="#B36FDE"/><path d="M91.044 25.189h-5.388c.43-.868.73-1.82 1.009-2.756.472-1.558.837-4.505 1.01-6.732h3.37v9.488zM93.427 14.6h-8.216a.54.54 0 00-.531.55c0 .304.237.55.53.55h1.131c0 1.18-.492 4.952-.943 6.42-.322.936-.708 2.066-1.33 3.068h-1.482v2.498c0 .415.293.786.691.826.458.045.842-.327.842-.792v-1.43h9.987v1.397c0 .415.292.786.691.826.457.045.842-.327.842-.792V25.19h-2.212V14.6zM5.49 25.19H4.23V11.141h1.26a.54.54 0 00.53-.55.54.54 0 00-.53-.549H.542a.54.54 0 00-.53.55.54.54 0 00.53.549h1.262V25.19H.53a.54.54 0 00-.53.55v.002a.54.54 0 00.53.549h4.96a.54.54 0 00.53-.55v-.002a.54.54 0 00-.53-.549z" fill="#80787A"/><path d="M13.96 25.19h-.995l-4.391-6.54c-.521-.973-1.246-1.63-.71-2.333.766-1.003 4.726-5.176 4.726-5.176h.99a.54.54 0 00.529-.55.54.54 0 00-.53-.549H9.09a.54.54 0 00-.53.55.54.54 0 00.53.549h.99L5.66 16.19a1.901 1.901 0 00-.202 2.091l4.54 6.909h-.999a.54.54 0 00-.53.55v.002a.54.54 0 00.53.549h4.961a.54.54 0 00.53-.55v-.002a.54.54 0 00-.53-.549zm66.422 0h-1.217v-9.487h1.204a.54.54 0 00.53-.55.54.54 0 00-.53-.551l-3.584-.001-5.8 9.407v-8.305h1.187a.54.54 0 00.53-.55.54.54 0 00-.53-.551h-4.837a.54.54 0 00-.53.55c0 .304.237.55.53.55h1.225v9.488h-1.192a.54.54 0 00-.531.55.54.54 0 00.53.551s3.288.002 3.569.004l5.819-9.403v8.298H75.54a.541.541 0 00-.53.55.54.54 0 00.53.551h4.842a.54.54 0 00.53-.55.54.54 0 00-.53-.55zm88.101-.001h-1.186V15.71h1.179a.546.546 0 00.535-.555.546.546 0 00-.535-.555h-5.54c-2.512 0-4.773.968-4.773 3.882 0 1.783 1.388 2.548 2.46 2.863l-2.66 3.843h-1.2a.541.541 0 00-.531.55c0 .304.238.55.531.55h5.109a.54.54 0 00.53-.55.54.54 0 00-.53-.55h-1.189s.208-.112 2.237-3.256c.414-.64.114-1.328-.562-1.551-1.023-.338-1.547-.892-1.547-1.988 0-1.514.944-2.683 2.511-2.683h1.56v9.478h-1.211a.541.541 0 00-.531.55c0 .304.238.55.531.55h4.812a.54.54 0 00.53-.55.541.541 0 00-.53-.55zm-147.331.372c-1.865 0-3.377-2.288-3.377-5.11 0-2.823 1.512-4.989 3.377-4.989 1.865 0 3.377 2.166 3.377 4.988 0 2.823-1.512 5.111-3.377 5.111zm-.003-11.188c-3.237 0-5.997 1.968-5.997 6.077 0 4.11 2.76 6.078 5.997 6.078s5.997-1.969 5.997-6.078-2.76-6.077-5.997-6.077zM122.25 25.189h-1.205V15.7h1.205a.516.516 0 00.506-.524v-.053a.515.515 0 00-.506-.523h-3.619v4.927h-5.567V15.7h1.189a.515.515 0 00.505-.524v-.053a.515.515 0 00-.505-.523h-4.831a.515.515 0 00-.505.523v.053c0 .29.226.524.505.524h1.245v8.478c-.009.527-.424 1.01-.933 1.01h-.355a.515.515 0 00-.505.524v.053c0 .29.226.524.505.524h3.685v-5.537h5.567v4.436h-1.249a.515.515 0 00-.505.524v.053c0 .29.226.524.505.524h4.868c.28 0 .506-.235.506-.524v-.053a.515.515 0 00-.506-.524zm32.077.001h-1.203v-9.488h1.204a.541.541 0 00.531-.55.541.541 0 00-.531-.55l-3.583-.001-5.801 9.407v-8.305h1.187a.54.54 0 00.53-.55.54.54 0 00-.53-.551h-4.837a.54.54 0 00-.53.55c0 .304.237.55.53.55h1.225v9.488h-1.162a.556.556 0 00-.553.452.545.545 0 00.523.649s3.287.002 3.568.004l5.819-9.403v8.298h-1.201a.543.543 0 00-.533.436c-.069.354.19.665.519.665h4.842c.33 0 .589-.311.52-.665a.545.545 0 00-.534-.436zm-17.389-9.489h1.162a.54.54 0 00.53-.55.541.541 0 00-.531-.55h-4.845a.541.541 0 00-.531.55c0 .304.238.55.531.55h1.216v9.488s-5.174.003-5.461.008V15.7h1.206a.54.54 0 00.53-.55.54.54 0 00-.53-.55h-4.837a.54.54 0 00-.53.55c0 .304.237.55.53.55h1.233v8.358c0 1.523 1.188 2.23 2.045 2.23h8.935v1.447c0 .431.337.78.753.78.424 0 .771-.36.771-.8V25.19h-2.177V15.7zM41.73 25.189h-1.205V15.7h1.205c.28 0 .506-.234.506-.524v-.053a.515.515 0 00-.506-.523h-3.62v4.927h-5.566V15.7h1.189a.514.514 0 00.505-.524v-.053a.515.515 0 00-.505-.523h-4.831a.515.515 0 00-.505.523v.053c0 .29.226.524.505.524h1.245v8.478c-.01.527-.424 1.01-.933 1.01h-.355a.515.515 0 00-.505.524v.053c0 .29.226.524.505.524h3.685v-5.537h5.567v4.436h-1.249a.515.515 0 00-.505.524v.053c0 .29.226.524.505.524h4.868c.28 0 .506-.235.506-.524v-.053a.515.515 0 00-.506-.524zm60.989-9.715c2.274 0 2.231 2.09 2.173 2.946h-5.315c.094-1.221 1.532-2.946 3.142-2.946zm3.917 9.094c-2.698.81-4.597.507-5.6-.392-1.408-1.261-1.608-2.835-1.532-4.678.241 0 7.892.04 7.921.04.004-.041.446-5.21-4.583-5.21-4.865 0-5.988 3.47-5.988 5.693 0 6.441 4.877 6.902 7.329 6.422 1.219-.24 2.496-.72 3.272-1.227l-.169-.355a.546.546 0 00-.65-.293zm-47.443.958c-1.855 0-3.072-1.978-3.393-3.776a7.586 7.586 0 01-.12-1.335c0-.463.044-.91.12-1.336.389-2.174 1.698-3.66 3.257-3.66 1.865 0 3.241 2.032 3.241 4.854 0 2.823-1.24 5.253-3.105 5.253zm-6.04-3.495c-.364 1.654-1.566 3.495-3.337 3.495-1.866 0-3.106-2.43-3.106-5.253 0-2.822 1.376-4.854 3.242-4.854 1.497 0 2.764 1.36 3.207 3.402a7.53 7.53 0 01-.005 3.21zm6.043-7.694c-1.49 0-2.82.863-3.532 1.813v-4.968h-3.612a.516.516 0 00-.506.524c0 .288.223.522.5.525 0 0 .954.014 1.257 0-.023.309 0 3.859 0 3.859-.696-.895-1.985-1.728-3.393-1.753-2.798-.048-5.849 1.603-5.849 6.234 0 3.908 2.407 5.921 5.888 5.921 1.447 0 2.643-.546 3.354-1.448v4.801h-1.236a.515.515 0 00-.506.524v.016c0 .289.227.523.506.523h4.835c.28 0 .505-.234.505-.524v-.015a.515.515 0 00-.505-.524h-1.238v-4.884c.79 1.052 2.138 1.652 3.893 1.51 2.486-.2 5.425-1.52 5.425-6.332 0-3.8-2.382-5.802-5.786-5.802z" fill="#80787A"/></svg>