<svg width="22" height="22" fill="none" xmlns="http://www.w3.org/2000/svg"><path fill-rule="evenodd" clip-rule="evenodd" d="M0 .786C0 .352.352 0 .786 0h2.619a.786.786 0 110 1.571H1.57v1.834a.786.786 0 01-1.571 0V.785zm22 0A.786.786 0 0021.214 0h-2.619a.786.786 0 000 1.571h1.834v1.834a.786.786 0 101.571 0V.785zM0 21.214c0 .434.352.786.786.786h2.619a.786.786 0 000-1.571H1.57v-1.834a.786.786 0 00-1.571 0v2.62zm22 0a.786.786 0 01-.786.786h-2.619a.786.786 0 010-1.571h1.834v-1.834a.786.786 0 111.571 0v2.62z" fill="#B36FDE"/><path d="M15.395 5.47a6.15 6.15 0 00-8.702 0 6.15 6.15 0 000 8.703l4.026 4.025c.18.18.47.18.65 0l4.026-4.026a6.15 6.15 0 000-8.702zm-.65 8.052l-3.701 3.7-3.701-3.7a5.24 5.24 0 010-7.401 5.24 5.24 0 017.402 0 5.24 5.24 0 010 7.401z" fill="#80787A"/><path d="M11.044 7.07a2.75 2.75 0 00-2.751 2.752 2.75 2.75 0 002.75 2.75 2.75 2.75 0 002.752-2.75 2.75 2.75 0 00-2.751-2.751zm1.294 4.046c-.017 0-.45.537-1.294.537a1.83 1.83 0 110-3.662c1.644 0 2.434 1.986 1.294 3.125z" fill="#80787A"/></svg>