<svg width="87" height="101" fill="none" xmlns="http://www.w3.org/2000/svg"><path fill-rule="evenodd" clip-rule="evenodd" d="M30.677-5H-8.715C-14.39-5-19-.391-19 5.285v85.43C-19 96.391-14.391 101-8.715 101h55.94c5.677 0 10.285-4.609 10.285-10.285V69.956c8.548-.268 5.988 2.367 6.384-11.519C63.55 44.32 65.91 47.25 57.51 46.918c-.002 0 .002-16.655 0-22.827-.054-1.949.208-2.547-.384-3.09L31.45-4.677c.014.02-.273-.324-.773-.324zm-1.081 2.163h-38.31a8.126 8.126 0 00-8.123 8.122v85.43a8.126 8.126 0 008.122 8.122h55.94a8.126 8.126 0 008.122-8.122V69.956H19.255a1.082 1.082 0 01-1.081-1.081V48c0-.597.484-1.082 1.081-1.082h36.092V22.915h-24.69a1.096 1.096 0 01-.217-.026c-1.262-.484-.728-1.503-.845-1.504V-2.837zm-9.26 51.919h41.395v18.711H20.337V49.082zm27.25 11.098l1.965-.19c.81 4.437 8.362.045.945-1.116-1.047-.36-1.418-.511-2.03-1.244-2.907-4.972 6.975-6.143 6.965-1.338l-2.02.089c-.165-2.436-4.744-1.442-3.233.143 1.566.93 4.535.8 5.269 2.642 2.037 5.437-7.716 6.126-7.86 1.014zM26.35 63.434v-1.917h1.917v1.917H26.35zm13.268 0v-9.918h2.02v8.233h5.02v1.685h-7.04zm-10.39 0l3.419-5.218-3.098-4.782h2.36l2.006 3.213 1.965-3.213h2.34l-3.11 4.857 3.417 5.143H36.09l-2.217-3.458-2.223 3.458h-2.422zm2.53-64.741V20.75h22.06L31.757-1.306z" fill="#F8F7F7"/></svg>