<svg width="87" height="101" fill="none" xmlns="http://www.w3.org/2000/svg"><path fill-rule="evenodd" clip-rule="evenodd" d="M30.663-4.96c-44.25.17-40.953-.828-45.418 1.966a10.277 10.277 0 00-4.184 7.26c-.115 1.767-.027.765-.053 1.558v83.338c.017 3.326-.057 5.22 2.81 8.612a10.256 10.256 0 006.763 3.196c1.273.061.386.006 1.196.024h55.361a10.284 10.284 0 0010.346-10.28s.002-58.265 0-67.6c.125-2.45.002-1.488-5.397-7.097l-20.66-20.66c-.174-.158-.447-.327-.764-.316zm-1.081 2.163H-8.712A8.122 8.122 0 00-16.83 5.32v85.393a8.122 8.122 0 008.118 8.118h55.916a8.122 8.122 0 008.118-8.118v-67.77H30.663a1.082 1.082 0 01-1.081-1.082V-2.797zM-1.186 88.865h20.432a1.082 1.082 0 000-2.162H-1.186a1.082 1.082 0 000 2.162zm0-6.327H39.65c-.166.017.656.038.96-.536.71-2.026-1.754-1.581-1.768-1.626h-40.03c-1.497.094-1.361 2.128 0 2.162zm0-6.328H39.57c.43-.026.57.01 1-.468.742-1.525-1.002-1.779-.967-1.694h-40.79c-1.491.09-1.366 2.127 0 2.162zm20.432-6.327h20.432a1.082 1.082 0 000-2.162H19.246a1.082 1.082 0 000 2.162zm-27.815-7.02c.004 0 53.964.002 55.592 0 2.861-.537-.425-3.19-3.101-7.243-11.307-15.204-10.087-15.755-12.48-12.47-2.87 3.95-12.113 16.677-12.116 16.683-.004-.002-11.538-18.981-12.928-21.264-.738-1.316-1.874-.672-2.236.194-14.476 24.125-15.096 23.348-12.73 24.1zm41.722-18.39L44.94 60.7H21.367l11.786-16.229zM5.34 40.99L17.323 60.7H-6.646L5.34 40.99zm13.907-14.626c-9.128.425-8.958 13.281 0 13.625 9.127-.424 8.958-13.28 0-13.624zm0 2.163c6.26.304 6.084 9.078 0 9.3-6.26-.304-6.084-9.078 0-9.3zM31.744-1.268V20.78h22.05L31.743-1.27z" fill="#F8F7F7"/></svg>