<svg width="87" height="101" fill="none" xmlns="http://www.w3.org/2000/svg"><path fill-rule="evenodd" clip-rule="evenodd" d="M30.684-5H-8.715C-14.39-5-19-.391-19 5.285v85.43C-19 96.391-14.391 101-8.715 101h55.94c5.677 0 10.285-4.609 10.285-10.285V69.956c8.548-.268 5.988 2.367 6.384-11.519C63.55 44.32 65.91 47.25 57.51 46.918c-.001 0 .002-17.483 0-23.261-.06-1.558.207-2.064-.364-2.636L31.45-4.676c.012.02-.264-.319-.766-.324zm-1.088 2.163h-38.31a8.126 8.126 0 00-8.123 8.122v85.43a8.126 8.126 0 008.122 8.122h55.94a8.126 8.126 0 008.122-8.122V69.956H19.255a1.082 1.082 0 01-1.081-1.081V48c0-.597.484-1.082 1.081-1.082h36.092V22.915h-24.69a1.096 1.096 0 01-.217-.026c-1.262-.484-.728-1.503-.845-1.504V-2.837zm-9.26 51.919h41.395v18.711H20.337V49.082zm4.93 14.352v-1.917h1.917v1.917h-1.918zm23.316 0v-10h6.856v1.691h-4.837v2.368h4.175v1.691h-4.175v4.25h-2.019zm-19.421 0v-10c1.631.05 5.606-.213 6.315.433 1.79 1.017 1.808 4.154.068 5.24-1.18.782-2.843.491-4.364.555v3.772h-2.02zm9.311-10c4.83.001 8.225-.734 8.384 5.096-.243 5.992-4.245 4.773-8.384 4.904v-10zm2.02 1.691v6.624c2.95.037 4.078.167 4.263-2.732.173-4.31-1.548-3.856-4.264-3.892zm-9.312 0v2.838c1.683-.005 3.852.269 3.519-1.797-.401-1.442-2.201-.945-3.519-1.04zm.579-56.432V20.75h22.058L31.76-1.306z" fill="#F8F7F7"/></svg>