<svg width="87" height="101" fill="none" xmlns="http://www.w3.org/2000/svg"><g clip-path="url(#clip0_355_224288)"><path fill-rule="evenodd" clip-rule="evenodd" d="M30.663-4.96c-44.249.17-40.953-.828-45.418 1.966a10.277 10.277 0 00-4.184 7.26c-.115 1.767-.027.765-.053 1.558v83.338c.018 3.326-.057 5.22 2.81 8.612a10.256 10.256 0 006.763 3.196c1.273.061.386.006 1.196.024h55.361a10.284 10.284 0 0010.347-10.28c-.002 0 0-58.265 0-67.6.124-2.45.001-1.488-5.398-7.097l-20.66-20.66c-.174-.158-.447-.327-.764-.316zm-1.081 2.163H-8.712A8.122 8.122 0 00-16.83 5.32v85.393a8.122 8.122 0 008.118 8.118h55.916a8.122 8.122 0 008.118-8.118v-67.77H30.663a1.081 1.081 0 01-1.081-1.082V-2.797zM-5.677 80.758H44.17a1.082 1.082 0 000-2.162H-5.677a1.082 1.082 0 000 2.162zm0-7.914H44.17a1.082 1.082 0 000-2.163H-5.677a1.082 1.082 0 000 2.163zm0-7.915H44.17a1.082 1.082 0 000-2.163H-5.677a1.082 1.082 0 000 2.163zm0-7.915H44.17a1.082 1.082 0 000-2.163H-5.677a1.082 1.082 0 000 2.163zm0-7.915H44.17a1.082 1.082 0 000-2.163H-5.677a1.082 1.082 0 000 2.163zm24.923-7.915H44.17a1.082 1.082 0 000-2.163H19.246a1.082 1.082 0 000 2.163zM31.744-1.268V20.78h22.05L31.743-1.27z" fill="#F8F7F7"/></g><defs><clipPath id="clip0_355_224288"><path fill="#fff" transform="translate(-19 -5)" d="M0 0h106v106H0z"/></clipPath></defs></svg>