<svg width="25" height="24" fill="none" xmlns="http://www.w3.org/2000/svg"><path d="M20.926 5.236H17.45V3.402A2.405 2.405 0 0015.05 1h-5.1a2.405 2.405 0 00-2.4 2.402v1.834H4.074A3.578 3.578 0 00.5 8.811v11.203a3.578 3.578 0 003.574 3.574h16.852a3.578 3.578 0 003.574-3.574V8.81a3.578 3.578 0 00-3.574-3.575zM8.956 3.402c0-.549.446-.996.995-.996h5.098c.55 0 .996.447.996.996v1.834h-7.09V3.402zm-7.05 16.612V8.81c0-.95.614-1.758 1.465-2.05v15.303a2.171 2.171 0 01-1.465-2.05zm2.871 2.168V6.642h15.446v15.54H4.777zm18.317-2.168c0 .949-.614 1.757-1.465 2.05V6.76a2.171 2.171 0 011.465 2.05v11.204z" fill="#80787A"/><path d="M16.736 12.297h-2.12v-2.121a.703.703 0 00-.704-.703h-2.824a.703.703 0 00-.703.703v2.12H8.264A.703.703 0 007.56 13v2.824c0 .388.314.703.703.703h2.12v2.121c0 .389.316.704.704.704h2.824a.703.703 0 00.703-.704v-2.12h2.121a.703.703 0 00.703-.704V13a.703.703 0 00-.703-.703zm-.703 2.824h-2.12a.703.703 0 00-.704.703v2.121h-1.418v-2.12a.703.703 0 00-.703-.704H8.967v-1.418h2.12a.703.703 0 00.704-.703v-2.121h1.418V13c0 .388.315.703.703.703h2.121v1.418z" fill="#80787A"/></svg>