<svg width="25" height="24" fill="none" xmlns="http://www.w3.org/2000/svg"><path d="M14.75 4.5h-9a.75.75 0 000 1.5h9a.75.75 0 000-1.5zm-3 3h-6a.75.75 0 000 1.5h6a.75.75 0 000-1.5z" fill="#80787A"/><path d="M17 0H3.5c-1.655 0-3 1.345-3 3v15a.75.75 0 001.23.576L6.021 15H17c1.654 0 3-1.345 3-3V3c0-1.655-1.346-3-3-3zm1.5 12c0 .826-.672 1.5-1.5 1.5H5.75a.75.75 0 00-.48.174L2 16.4V3c0-.826.672-1.5 1.5-1.5H17c.828 0 1.5.674 1.5 1.5v9z" fill="#80787A"/><path d="M21.5 6a.75.75 0 000 1.5c.828 0 1.5.674 1.5 1.5v12.689l-2.532-2.026A.756.756 0 0020 19.5H9.5c-.828 0-1.5-.674-1.5-1.5v-.75a.75.75 0 00-1.5 0V18c0 1.654 1.346 3 3 3h10.236l3.544 2.837a.757.757 0 00.796.09.752.752 0 00.424-.677V9c0-1.654-1.346-3-3-3z" fill="#80787A"/></svg>