<svg width="25" height="24" fill="none" xmlns="http://www.w3.org/2000/svg"><path d="M19.692 2.952a10.064 10.064 0 00-14.24 0 10.064 10.064 0 000 14.24l6.587 6.588a.753.753 0 001.065 0l6.588-6.588a10.064 10.064 0 000-14.24zm-1.065 13.175l-6.055 6.056-6.056-6.056c-3.34-3.339-3.34-8.772 0-12.111 3.339-3.34 8.772-3.34 12.111 0 3.34 3.339 3.34 8.772 0 12.111z" fill="#80787A"/><path d="M12.572 5.57a4.499 4.499 0 00-4.502 4.502 4.499 4.499 0 004.502 4.5 4.499 4.499 0 004.5-4.5 4.499 4.499 0 00-4.5-4.502zm2.118 6.62c-.029 0-.738.878-2.118.878a2.994 2.994 0 01-2.997-2.996 2.994 2.994 0 012.997-2.996c2.69 0 3.982 3.25 2.118 5.114z" fill="#80787A"/></svg>