<svg width="20" height="20" fill="none" xmlns="http://www.w3.org/2000/svg"><path fill-rule="evenodd" clip-rule="evenodd" d="M0 3a3 3 0 013-3h14a3 3 0 013 3v14a3 3 0 01-3 3H3a3 3 0 01-3-3V3zm3-1a1 1 0 00-1 1v14a1 1 0 001 1h14a1 1 0 001-1V3a1 1 0 00-1-1H3z" fill="#80787A"/><path fill-rule="evenodd" clip-rule="evenodd" d="M7 5a1 1 0 011 1v9a1 1 0 11-2 0V6a1 1 0 011-1z" fill="#80787A"/><path fill-rule="evenodd" clip-rule="evenodd" d="M6 6a1 1 0 011-1h3a4 4 0 010 8H7a1 1 0 01-1-1V6zm2 1v4h2a2 2 0 100-4H8z" fill="#80787A"/></svg>