<svg width="394" height="415" fill="none" xmlns="http://www.w3.org/2000/svg"><path fill="#80787A" d="M-1 17h2v2h-2zm22 0h2v2h-2zm22 0h2v2h-2zm22 0h2v2h-2zm22 0h2v2h-2zm22 0h2v2h-2zm22 0h2v2h-2zm22 0h2v2h-2zm22 0h2v2h-2zm22 0h2v2h-2zm22 0h2v2h-2zm22 0h2v2h-2zm22 0h2v2h-2zm22 0h2v2h-2zm22 0h2v2h-2zm22 0h2v2h-2zm22 0h2v2h-2zm22 0h2v2h-2zM-1 61h2v2h-2zm0-22h2v2h-2zm22 22h2v2h-2zm0-22h2v2h-2zm22 22h2v2h-2zm0-22h2v2h-2zm22 22h2v2h-2zm0-22h2v2h-2zm22 22h2v2h-2zm0-22h2v2h-2zm22 22h2v2h-2zm0-22h2v2h-2zm22 22h2v2h-2zm0-22h2v2h-2zm22 22h2v2h-2zm0-22h2v2h-2zm22 22h2v2h-2zm0-22h2v2h-2zm22 22h2v2h-2zm0-22h2v2h-2zm22 22h2v2h-2zm0-22h2v2h-2zm22 22h2v2h-2zm0-22h2v2h-2zm22 22h2v2h-2zm0-22h2v2h-2zm22 22h2v2h-2zm0-22h2v2h-2zm22 22h2v2h-2zm0-22h2v2h-2zm22 22h2v2h-2zm0-22h2v2h-2zm22 22h2v2h-2zm0-22h2v2h-2zm22 22h2v2h-2zm0-22h2v2h-2zM-1 105h2v2h-2zm0-22h2v2h-2zm22 22h2v2h-2zm0-22h2v2h-2zm22 22h2v2h-2zm0-22h2v2h-2zm22 22h2v2h-2zm0-22h2v2h-2zm22 22h2v2h-2zm0-22h2v2h-2zm22 22h2v2h-2zm0-22h2v2h-2zm22 22h2v2h-2zm0-22h2v2h-2zm22 22h2v2h-2zm0-22h2v2h-2zm22 22h2v2h-2zm0-22h2v2h-2zm22 22h2v2h-2zm0-22h2v2h-2zm22 22h2v2h-2zm0-22h2v2h-2zm22 22h2v2h-2zm0-22h2v2h-2zm22 22h2v2h-2zm0-22h2v2h-2zm22 22h2v2h-2zm0-22h2v2h-2zm22 22h2v2h-2zm0-22h2v2h-2zm22 22h2v2h-2zm0-22h2v2h-2zm22 22h2v2h-2zm0-22h2v2h-2zm22 22h2v2h-2zm0-22h2v2h-2zM-1 149h2v2h-2zm0-22h2v2h-2zm22 22h2v2h-2zm0-22h2v2h-2zm22 22h2v2h-2zm0-22h2v2h-2zm22 22h2v2h-2zm0-22h2v2h-2zm22 22h2v2h-2zm0-22h2v2h-2zm22 22h2v2h-2zm0-22h2v2h-2zm22 22h2v2h-2zm0-22h2v2h-2zm22 22h2v2h-2zm0-22h2v2h-2zm22 22h2v2h-2zm0-22h2v2h-2zm22 22h2v2h-2zm0-22h2v2h-2zm22 22h2v2h-2zm0-22h2v2h-2zm22 22h2v2h-2zm0-22h2v2h-2zm22 22h2v2h-2zm0-22h2v2h-2zm22 22h2v2h-2zm0-22h2v2h-2zm22 22h2v2h-2zm0-22h2v2h-2zm22 22h2v2h-2zm0-22h2v2h-2zm22 22h2v2h-2zm0-22h2v2h-2zm22 22h2v2h-2zm0-22h2v2h-2zM-1 193h2v2h-2zm0-22h2v2h-2zm22 22h2v2h-2zm0-22h2v2h-2zm22 22h2v2h-2zm0-22h2v2h-2zm22 22h2v2h-2zm0-22h2v2h-2zm22 22h2v2h-2zm0-22h2v2h-2zm22 22h2v2h-2zm0-22h2v2h-2zm22 22h2v2h-2zm0-22h2v2h-2zm22 22h2v2h-2zm0-22h2v2h-2zm22 22h2v2h-2zm0-22h2v2h-2zm22 22h2v2h-2zm0-22h2v2h-2zm22 22h2v2h-2zm0-22h2v2h-2zm22 22h2v2h-2zm0-22h2v2h-2zm22 22h2v2h-2zm0-22h2v2h-2zm22 22h2v2h-2zm0-22h2v2h-2zm22 22h2v2h-2zm0-22h2v2h-2zm22 22h2v2h-2zm0-22h2v2h-2zm22 22h2v2h-2zm0-22h2v2h-2zm22 22h2v2h-2zm0-22h2v2h-2zM-1 237h2v2h-2zm0-22h2v2h-2zm22 22h2v2h-2zm0-22h2v2h-2zm22 22h2v2h-2zm0-22h2v2h-2zm22 22h2v2h-2zm0-22h2v2h-2zm22 22h2v2h-2zm0-22h2v2h-2zm22 22h2v2h-2zm0-22h2v2h-2zm22 22h2v2h-2zm0-22h2v2h-2zm22 22h2v2h-2zm0-22h2v2h-2zm22 22h2v2h-2zm0-22h2v2h-2zm22 22h2v2h-2zm0-22h2v2h-2zm22 22h2v2h-2zm0-22h2v2h-2zm22 22h2v2h-2zm0-22h2v2h-2zm22 22h2v2h-2zm0-22h2v2h-2zm22 22h2v2h-2zm0-22h2v2h-2zm22 22h2v2h-2zm0-22h2v2h-2zm22 22h2v2h-2zm0-22h2v2h-2zm22 22h2v2h-2zm0-22h2v2h-2zm22 22h2v2h-2zm0-22h2v2h-2zM-1 281h2v2h-2zm0-22h2v2h-2zm22 22h2v2h-2zm0-22h2v2h-2zm22 22h2v2h-2zm0-22h2v2h-2zm22 22h2v2h-2zm0-22h2v2h-2zm22 22h2v2h-2zm0-22h2v2h-2zm22 22h2v2h-2zm0-22h2v2h-2zm22 22h2v2h-2zm0-22h2v2h-2zm22 22h2v2h-2zm0-22h2v2h-2zm22 22h2v2h-2zm0-22h2v2h-2zm22 22h2v2h-2zm0-22h2v2h-2zm22 22h2v2h-2zm0-22h2v2h-2zm22 22h2v2h-2zm0-22h2v2h-2zm22 22h2v2h-2zm0-22h2v2h-2zm22 22h2v2h-2zm0-22h2v2h-2zm22 22h2v2h-2zm0-22h2v2h-2zm22 22h2v2h-2zm0-22h2v2h-2zm22 22h2v2h-2zm0-22h2v2h-2zm22 22h2v2h-2zm0-22h2v2h-2zM-1 325h2v2h-2zm0-22h2v2h-2zm22 22h2v2h-2zm0-22h2v2h-2zm22 22h2v2h-2zm0-22h2v2h-2zm22 22h2v2h-2zm0-22h2v2h-2zm22 22h2v2h-2zm0-22h2v2h-2zm22 22h2v2h-2zm0-22h2v2h-2zm22 22h2v2h-2zm0-22h2v2h-2zm22 22h2v2h-2zm0-22h2v2h-2zm22 22h2v2h-2zm0-22h2v2h-2zm22 22h2v2h-2zm0-22h2v2h-2zm22 22h2v2h-2zm0-22h2v2h-2zm22 22h2v2h-2zm0-22h2v2h-2zm22 22h2v2h-2zm0-22h2v2h-2zm22 22h2v2h-2zm0-22h2v2h-2zm22 22h2v2h-2zm0-22h2v2h-2zm22 22h2v2h-2zm0-22h2v2h-2zm22 22h2v2h-2zm0-22h2v2h-2zm22 22h2v2h-2zm0-22h2v2h-2zM-1 369h2v2h-2zm0-22h2v2h-2zm22 22h2v2h-2zm0-22h2v2h-2zm22 22h2v2h-2zm0-22h2v2h-2zm22 22h2v2h-2zm0-22h2v2h-2zm22 22h2v2h-2zm0-22h2v2h-2zm22 22h2v2h-2zm0-22h2v2h-2zm22 22h2v2h-2zm0-22h2v2h-2zm22 22h2v2h-2zm0-22h2v2h-2zm22 22h2v2h-2zm0-22h2v2h-2zm22 22h2v2h-2zm0-22h2v2h-2zm22 22h2v2h-2zm0-22h2v2h-2zm22 22h2v2h-2zm0-22h2v2h-2zm22 22h2v2h-2zm0-22h2v2h-2zm22 22h2v2h-2zm0-22h2v2h-2zm22 22h2v2h-2zm0-22h2v2h-2zm22 22h2v2h-2zm0-22h2v2h-2zm22 22h2v2h-2zm0-22h2v2h-2zm22 22h2v2h-2zm0-22h2v2h-2zM-1 413h2v2h-2zm0-22h2v2h-2zm22 22h2v2h-2zm0-22h2v2h-2zm22 22h2v2h-2zm0-22h2v2h-2zm22 22h2v2h-2zm0-22h2v2h-2zm22 22h2v2h-2zm0-22h2v2h-2zm22 22h2v2h-2zm0-22h2v2h-2zm22 22h2v2h-2zm0-22h2v2h-2zm22 22h2v2h-2zm0-22h2v2h-2zm22 22h2v2h-2zm0-22h2v2h-2zm22 22h2v2h-2zm0-22h2v2h-2zm22 22h2v2h-2zm0-22h2v2h-2zm22 22h2v2h-2zm0-22h2v2h-2zm22 22h2v2h-2zm0-22h2v2h-2zm22 22h2v2h-2zm0-22h2v2h-2zm22 22h2v2h-2zm0-22h2v2h-2zm22 22h2v2h-2zm0-22h2v2h-2zm22 22h2v2h-2zm0-22h2v2h-2zm22 22h2v2h-2zm0-22h2v2h-2z"/></svg>