<svg width="71" height="20" fill="none" xmlns="http://www.w3.org/2000/svg"><g clip-path="url(#clip0_77_101984)" fill-rule="evenodd" clip-rule="evenodd"><path d="M19.04 0v.009c-.01 0-2.76-.009-3.494 2.62-.673 2.41-2.568 9.065-2.62 9.249h-.524s-1.94-6.804-2.62-9.258C9.048-.009 6.288 0 6.288 0H0v20h6.288V8.122h.524L10.48 20h4.367l3.668-11.869h.524V20h6.288V0H19.04zm22.969 0S40.166.166 39.3 2.096l-4.454 9.782h-.524V0h-6.288v20h5.939s1.93-.175 2.795-2.096l4.366-9.782h.524V20h6.289V0h-5.94zm8.733 9.083V20h6.289v-6.376h6.812a6.804 6.804 0 006.419-4.541h-19.52z" fill="#4DB45E"/><path d="M63.843 0H49.86a10.046 10.046 0 009.878 8.21h10.777a6.71 6.71 0 00.14-1.398A6.81 6.81 0 0063.843 0z" fill="url(#paint0_linear_77_101984)"/></g><defs><linearGradient id="paint0_linear_77_101984" x1="49.862" y1="4.105" x2="70.655" y2="4.105" gradientUnits="userSpaceOnUse"><stop offset=".3" stop-color="#00B4E6"/><stop offset="1" stop-color="#088CCB"/></linearGradient><clipPath id="clip0_77_101984"><path fill="#fff" d="M0 0h70.655v20H0z"/></clipPath></defs></svg>