<svg width="22" height="22" fill="none" xmlns="http://www.w3.org/2000/svg"><path fill-rule="evenodd" clip-rule="evenodd" d="M.265 6.154a.783.783 0 00-.263.637c.22 3.493 1.891 7.247 4.914 10.27l.012.011.01.011c3.024 3.024 6.778 4.695 10.27 4.915a.786.786 0 00.707-.354c.06-.044.118-.094.172-.148l1.556-1.556a2.358 2.358 0 00.667-2l-.296-2.07a2.358 2.358 0 00-1.753-1.95l-2.58-.655a2.357 2.357 0 00-2.25.62c-.351.354-.842.843-1.192 1.193a16.708 16.708 0 01-3.32-3.312l1.199-1.198a2.357 2.357 0 00.618-2.247L8.08 5.739a2.358 2.358 0 00-1.95-1.753l-2.083-.298a2.358 2.358 0 00-1.978.645C1.575 4.813.873 5.497.5 5.863c-.09.088-.169.186-.234.291zm14.71 14.232l1.557-1.557a.786.786 0 00.222-.667l-.296-2.07a.786.786 0 00-.584-.65l-2.58-.655a.786.786 0 00-.75.208c-.615.617-1.478 1.483-1.649 1.647-.479.463-1.008.118-1.02.11a18.165 18.165 0 01-2.535-2.115 18.16 18.16 0 01-2.095-2.507.786.786 0 01.09-1.002l1.672-1.671a.786.786 0 00.206-.75l-.656-2.581a.786.786 0 00-.65-.585l-2.083-.297a.785.785 0 00-.659.215c-.493.48-1.193 1.161-1.567 1.527l-.001.002c.28 3.06 1.81 6.337 4.442 8.973 2.64 2.635 5.884 4.15 8.936 4.425zM11.566 7.291a3.144 3.144 0 013.143 3.143.786.786 0 001.571 0 4.716 4.716 0 00-4.714-4.714.786.786 0 000 1.571z" fill="#80787A"/><path fill-rule="evenodd" clip-rule="evenodd" d="M9.593 4.512a6.418 6.418 0 017.945 7.7.786.786 0 001.527.371 7.99 7.99 0 00-9.89-9.585.786.786 0 00.418 1.514z" fill="#80787A"/><path fill-rule="evenodd" clip-rule="evenodd" d="M8.319 2.186a8.824 8.824 0 013.247-.615c4.891 0 8.863 3.971 8.863 8.863a8.824 8.824 0 01-.615 3.247.786.786 0 001.462.577c.467-1.184.724-2.475.724-3.824C22 4.675 17.325 0 11.566 0a10.4 10.4 0 00-3.824.724.786.786 0 00.577 1.462z" fill="#80787A"/></svg>