<svg width="26" height="26" fill="none" xmlns="http://www.w3.org/2000/svg"><path d="M19.276 17.244a2.36 2.36 0 00-3.34 0l-1.14 1.14a20.55 20.55 0 01-3.546-2.846 20.556 20.556 0 01-2.846-3.546l1.14-1.14a2.358 2.358 0 000-3.34L7.319 5.293a2.303 2.303 0 00-1.659-.692 2.358 2.358 0 00-1.674.692l-1.07 1.061a5.008 5.008 0 00-1.289 4.128c.252 2.948 2.186 6.493 5.165 9.48 2.98 2.988 6.565 4.914 9.513 5.197.22.012.44.012.66 0a4.773 4.773 0 003.467-1.29l1.061-1.069a2.358 2.358 0 00.692-1.674 2.303 2.303 0 00-.692-1.659l-2.217-2.224zm2.477-12.217a11.73 11.73 0 00-8.334-3.451.786.786 0 100 1.572 10.22 10.22 0 0110.22 10.306.786.786 0 101.573 0 11.724 11.724 0 00-3.46-8.427z" fill="#fff"/><path d="M17.28 9.524a4.716 4.716 0 011.39 3.388.786.786 0 101.573 0 6.29 6.29 0 00-6.29-6.368.786.786 0 000 1.572 4.717 4.717 0 013.326 1.408z" fill="#fff"/></svg>