<svg width="60" height="60" fill="none" xmlns="http://www.w3.org/2000/svg"><g filter="url(#filter0_b_44_64582)"><path d="M30 0C13.43 0 0 13.431 0 30c0 16.568 13.431 30 30 30 16.568 0 30-13.432 30-30C59.982 13.439 46.56.018 30 0zm12.634 30.956a2.143 2.143 0 01-.962.962v.01L24.53 40.5a2.143 2.143 0 01-3.1-1.929V21.43a2.143 2.143 0 013.1-1.918l17.143 8.571a2.143 2.143 0 01.962 2.874z" fill="#B36FDE" fill-opacity=".8"/></g><g filter="url(#filter1_b_44_64582)"><path d="M42.634 30.956a2.143 2.143 0 01-.962.962v.01L24.53 40.5a2.143 2.143 0 01-3.1-1.929V21.43a2.143 2.143 0 013.1-1.918l17.143 8.571a2.143 2.143 0 01.962 2.874z" fill="#fff" fill-opacity=".6"/></g><defs><filter id="filter0_b_44_64582" x="-14" y="-14" width="88" height="88" filterUnits="userSpaceOnUse" color-interpolation-filters="sRGB"><feFlood flood-opacity="0" result="BackgroundImageFix"/><feGaussianBlur in="BackgroundImageFix" stdDeviation="7"/><feComposite in2="SourceAlpha" operator="in" result="effect1_backgroundBlur_44_64582"/><feBlend in="SourceGraphic" in2="effect1_backgroundBlur_44_64582" result="shape"/></filter><filter id="filter1_b_44_64582" x="7.428" y="5.285" width="49.431" height="49.442" filterUnits="userSpaceOnUse" color-interpolation-filters="sRGB"><feFlood flood-opacity="0" result="BackgroundImageFix"/><feGaussianBlur in="BackgroundImageFix" stdDeviation="7"/><feComposite in2="SourceAlpha" operator="in" result="effect1_backgroundBlur_44_64582"/><feBlend in="SourceGraphic" in2="effect1_backgroundBlur_44_64582" result="shape"/></filter></defs></svg>