<svg width="16" height="17" fill="none" xmlns="http://www.w3.org/2000/svg"><path d="M8 .5c4.421 0 8 3.578 8 8v7.375c0 .345-.28.625-.625.625H8c-4.421 0-8-3.578-8-8 0-4.421 3.578-8 8-8z" fill="#E7E1D9"/><path d="M7.755 11.227a.837.837 0 00-.828.838c0 .447.36.84.828.84a.846.846 0 00.839-.84.846.846 0 00-.839-.838zm.141-6.352c-1.47 0-2.146.871-2.146 1.46 0 .424.36.62.654.62.588 0 .349-.838 1.46-.838.544 0 .98.24.98.74 0 .589-.61.926-.97 1.231-.315.273-.73.72-.73 1.656 0 .566.153.73.6.73.534 0 .643-.24.643-.447 0-.566.01-.893.61-1.361.294-.229 1.22-.97 1.22-1.994s-.926-1.797-2.32-1.797z" fill="#80787A"/></svg>