<svg width="24" height="25" fill="none" xmlns="http://www.w3.org/2000/svg"><g clip-path="url(#clip0_289_111370)" fill="#80787A"><path d="M11.632 16.59c-.686 0-1.241.572-1.241 1.258 0 .67.539 1.258 1.241 1.258a1.27 1.27 0 001.258-1.258 1.27 1.27 0 00-1.258-1.258zm.213-9.527c-2.206 0-3.219 1.307-3.219 2.189 0 .637.54.931.98.931.883 0 .523-1.258 2.19-1.258.817 0 1.47.36 1.47 1.111 0 .883-.915 1.39-1.454 1.847-.474.408-1.095 1.078-1.095 2.483 0 .85.23 1.095.899 1.095.8 0 .964-.36.964-.67 0-.85.016-1.34.915-2.042.441-.344 1.83-1.455 1.83-2.99 0-1.536-1.389-2.697-3.48-2.697z"/><path d="M12 .5C5.368.5 0 5.867 0 12.5v11.063c0 .517.42.937.938.937H12c6.632 0 12-5.367 12-12 0-6.632-5.367-12-12-12zm0 22.125H1.875V12.5A10.12 10.12 0 0112 2.375 10.12 10.12 0 0122.125 12.5 10.12 10.12 0 0112 22.625z"/></g><defs><clipPath id="clip0_289_111370"><path fill="#fff" transform="translate(0 .5)" d="M0 0h24v24H0z"/></clipPath></defs></svg>