<svg width="20" height="20" fill="none" xmlns="http://www.w3.org/2000/svg"><path d="M6.103 8.75H4.019a.625.625 0 010-1.25h2.084a.625.625 0 010 1.25zm9.999 0h-6.25a.625.625 0 010-1.25h6.25a.625.625 0 010 1.25zm-9.999 3.333H4.019a.625.625 0 010-1.25h2.084a.625.625 0 010 1.25zm9.999 0h-6.25a.625.625 0 010-1.25h6.25a.625.625 0 010 1.25zm-9.999 3.333H4.019a.625.625 0 010-1.25h2.084a.625.625 0 010 1.25zm9.999 0h-6.25a.625.625 0 010-1.25h6.25a.625.625 0 010 1.25z" fill="#AEA8A5"/><path d="M17.708 19.166H2.292A2.294 2.294 0 010 16.875V3.125A2.294 2.294 0 012.292.833h15.416A2.294 2.294 0 0120 3.125v13.75a2.294 2.294 0 01-2.292 2.291zM2.292 2.083c-.574 0-1.042.468-1.042 1.042v13.75c0 .574.468 1.041 1.042 1.041h15.416c.575 0 1.042-.467 1.042-1.041V3.125c0-.574-.468-1.042-1.042-1.042H2.292z" fill="#AEA8A5"/><path d="M19.375 5H.625a.625.625 0 010-1.25h18.75a.625.625 0 010 1.25z" fill="#AEA8A5"/></svg>