<svg width="510" height="403" fill="none" xmlns="http://www.w3.org/2000/svg"><g clip-path="url(#clip0_386_223341)" stroke="#E7E1D9" stroke-width=".939" stroke-miterlimit="10" stroke-linecap="round" stroke-linejoin="round"><path d="M293.507 269.551c-22.331 0-40.554 18.212-40.554 40.531V457.21c0 22.319 18.223 40.531 40.554 40.531 22.332 0 40.554-18.212 40.554-40.531V310.082c0-22.497-18.222-40.531-40.554-40.531z"/><path d="M261.35 285.441l32.157 42.853 32.158-42.853m-32.159 153.376V328.293m289.597-120.164c0-22.319-18.222-40.531-40.554-40.531h-147.21c-22.331 0-40.554 18.212-40.554 40.531s18.223 40.532 40.554 40.532h147.21c22.51 0 40.554-18.213 40.554-40.532z"/><path d="M371.043 240.09l42.876-31.961-42.876-31.961h-.357m43.054 31.961h110.586m-292.276 0c0-22.319-18.222-40.531-40.554-40.531H44.286c-22.331 0-40.554 18.212-40.554 40.531s18.223 40.532 40.554 40.532h147.21c22.332 0 40.554-18.213 40.554-40.532z"/><path d="M19.811 240.09l42.877-31.961-42.877-31.961h-.178m196.517-.18l-42.877 32.14 42.877 32.139M62.688 208.129h110.407M293.507-81.484c-22.331 0-40.554 18.212-40.554 40.531v147.128c0 22.319 18.223 40.531 40.554 40.531 22.332 0 40.554-18.212 40.554-40.531V-40.953c0-22.319-18.222-40.531-40.554-40.531z"/><path d="M325.485 130.638l-31.979-42.853-31.979 42.853v.178m31.979-43.033V-22.563"/></g><defs><clipPath id="clip0_386_223341"><path fill="#fff" transform="translate(0 -138)" d="M0 0h510v646H0z"/></clipPath></defs></svg>