<svg width="141" height="51" fill="none" xmlns="http://www.w3.org/2000/svg"><path d="M48.95 31.741h85.331c3.267 0 5.919 2.623 5.919 5.853v5.518H54.841c-3.25 0-5.89-2.61-5.89-5.825v-5.546zm-25.889 1.602a.709.709 0 01-.67-.474l-3.723-10.701-2.843 8.175a.709.709 0 01-.671.474.71.71 0 01-.671-.474l-.715-2.053h-.372a.71.71 0 01-.67-.473l-.232-.665-.227.607a.71.71 0 01-.666.46H7.312a.706.706 0 01-.71-.703c0-.387.318-.701.71-.701h3.795l.745-1.995a.71.71 0 01.666-.46h.008c.3.004.565.194.663.474l.714 2.053h.372a.71.71 0 01.671.473l.208.597 2.843-8.175a.709.709 0 01.671-.474c.303 0 .573.19.671.474l3.723 10.701 1.964-5.649a.71.71 0 01.672-.473c.303 0 .572.19.67.473l1.087 3.123.207-.596a.709.709 0 01.671-.474h4.529c.392 0 .71.314.71.701a.706.706 0 01-.71.702H28.84l-.714 2.053a.709.709 0 01-.671.474.709.709 0 01-.671-.474l-1.087-3.123-1.964 5.65a.709.709 0 01-.672.473z" fill="#25B1D9"/><path d="M38.069 15.297c-1.862-2.996-4.486-5.336-7.843-6.991-3.377-1.655-7.25-2.477-11.636-2.477H.2l.03 39.96h18.36c4.387 0 8.259-.832 11.636-2.487 3.357-1.655 5.981-3.985 7.843-6.992 1.872-3.006 2.802-6.511 2.802-10.506s-.93-7.49-2.802-10.507zm-10.27 19.555c-2.406 2.232-5.634 3.339-9.675 3.339h-5.258l-3.288 4.024.01-17.332V13.417h8.536c4.04 0 7.27 1.117 9.676 3.34 2.396 2.232 3.604 5.248 3.604 9.047 0 3.809-1.208 6.825-3.604 9.048z" fill="#25B1D9"/><path d="M60.366 34.982v4.247H59.17v-1.444a2.947 2.947 0 01-.915.164c-.601 0-1.06-.143-1.377-.428-.317-.285-.476-.697-.476-1.235v-1.304H57.6v1.17c0 .546.27.82.81.82.294 0 .548-.049.76-.146v-1.844h1.197zm4.007 3.421h-1.817l-.337.826h-1.24l1.897-4.247h1.196l1.903 4.247H64.71l-.337-.826zm-.356-.885l-.552-1.36-.552 1.36h1.104zm3.39 1.514a2.118 2.118 0 01-1.15-1.927 2.118 2.118 0 011.15-1.926 2.567 2.567 0 011.212-.282c.393 0 .747.069 1.062.206.315.138.576.335.785.594l-.773.692c-.278-.331-.616-.498-1.013-.498-.233 0-.44.051-.622.153a1.06 1.06 0 00-.424.427c-.1.184-.15.396-.15.634 0 .239.05.45.15.634.1.184.242.327.424.428.182.101.39.151.622.151.397 0 .735-.165 1.013-.497l.773.692c-.209.259-.47.457-.785.594-.315.138-.67.207-1.062.207-.45 0-.854-.095-1.212-.282zm7.153-3.098h-1.314v3.295H72.05v-3.295h-1.32v-.952h3.83v.952zm4.767-.952v4.247h-1.215v-1.657h-1.657v1.657H75.24v-4.247h1.215v1.595h1.657v-1.595h1.215zm4.007 3.421h-1.816l-.338.826h-1.239l1.896-4.247h1.196l1.903 4.247H83.67l-.337-.826zm-.356-.885l-.552-1.36-.553 1.36h1.105zm5.934-2.536v4.247h-1.197V38.16h-.662l-.706 1.068H85.07l.872-1.244a1.435 1.435 0 01-.657-.543 1.534 1.534 0 01-.227-.846c0-.332.078-.62.234-.862a1.49 1.49 0 01.668-.558c.29-.13.63-.194 1.018-.194h1.933zm-2.627 1.595c0 .215.06.378.181.488.12.112.296.167.525.167h.724v-1.304h-.712c-.478 0-.718.217-.718.649zm9.45 2.652l-.007-2.25-1.104 1.83h-.54l-1.105-1.783v2.203h-1.116v-4.247h1l1.51 2.45 1.473-2.45h1l.012 4.247h-1.123zm5.609-.929v.929h-3.449v-4.247h3.369v.928h-2.167v.716h1.909v.898h-1.909v.776h2.247zm5.43-.023v1.807h-1.111v-.855h-2.749v.855h-1.116v-1.807h.153c.253-.005.432-.177.537-.517.104-.339.169-.829.193-1.467l.049-1.311h3.461v3.295h.583zm-3.141-.73c-.058.317-.146.56-.265.73h1.627v-2.343h-1.234l-.018.461a8.391 8.391 0 01-.11 1.153zm3.847-2.565h1.197v2.493l1.772-2.493h1.142v4.247h-1.196V36.74l-1.768 2.488h-1.147v-4.247zm9.787 3.295v1.82h-1.111v-.868h-3.522v-4.247h1.197v3.295h1.65v-3.295h1.197v3.295h.589zm.699-3.295h1.197v2.493l1.772-2.493h1.142v4.247h-1.196V36.74l-1.768 2.488h-1.147v-4.247zm9.241 0v4.247h-1.214v-1.657h-1.657v1.657h-1.215v-4.247h1.215v1.595h1.657v-1.595h1.214zm4.006 3.421h-1.815l-.338.826h-1.24l1.897-4.247h1.196l1.902 4.247h-1.264l-.338-.826zm-.355-.885l-.552-1.36-.553 1.36h1.105z" fill="#fff"/><path d="M51.315 9.61h-1.501l.004 2.527h-.413V9.25h1.913l-.003.36zm1.217 2.368a1.43 1.43 0 01-.759-1.284 1.437 1.437 0 01.759-1.284c.236-.128.502-.192.796-.192.292 0 .556.064.792.192a1.422 1.422 0 01.755 1.284 1.422 1.422 0 01-.755 1.284 1.64 1.64 0 01-.792.192c-.295 0-.56-.064-.796-.192zm1.373-.32c.171-.096.306-.228.405-.397.098-.17.148-.358.148-.567 0-.209-.05-.398-.148-.567a1.058 1.058 0 00-.405-.397 1.153 1.153 0 00-.577-.145c-.214 0-.408.048-.582.145-.173.096-.31.228-.408.397-.099.17-.148.358-.148.567 0 .21.05.398.148.567.099.169.235.301.408.397.174.097.368.145.582.145.214 0 .406-.048.577-.145zm4.242-2.138c.217.178.325.424.325.737s-.108.56-.325.738c-.217.179-.515.268-.892.268h-.722v.874h-.416V9.25h1.138c.377 0 .675.09.892.269zm-.3 1.217c.138-.111.208-.271.208-.48 0-.209-.07-.369-.208-.48-.14-.111-.34-.167-.605-.167h-.709v1.294h.709c.264 0 .465-.056.605-.167zm2.33 1.241a1.43 1.43 0 01-.759-1.284 1.437 1.437 0 01.759-1.284 1.65 1.65 0 01.796-.192c.292 0 .556.064.792.192a1.423 1.423 0 01.755 1.284 1.423 1.423 0 01-.755 1.284 1.64 1.64 0 01-.792.192c-.294 0-.56-.064-.796-.192zm1.373-.32c.171-.096.306-.228.405-.397.099-.17.148-.358.148-.567 0-.209-.05-.398-.148-.567a1.058 1.058 0 00-.404-.397 1.154 1.154 0 00-.578-.145c-.214 0-.408.048-.582.145-.173.096-.31.228-.408.397-.099.17-.148.358-.148.567 0 .21.05.398.148.567.099.169.235.301.408.397.174.097.368.145.582.145.214 0 .406-.048.578-.145zm4.909.12v.99h-.388v-.631H63.67l-.004.63h-.388l.004-.989h.142c.183-.01.313-.155.388-.43.075-.277.12-.667.137-1.169l.03-.928h2.05v2.527h.43zm-2.24-.553c-.052.267-.135.452-.249.553h1.647V9.61h-1.28l-.02.606a6.723 6.723 0 01-.099 1.01zm3.893.753a1.421 1.421 0 01-.753-1.284 1.418 1.418 0 01.754-1.284 1.64 1.64 0 01.793-.192c.228 0 .436.038.625.114.189.076.35.188.484.336l-.271.26a1.092 1.092 0 00-.822-.343 1.19 1.19 0 00-.587.145 1.048 1.048 0 00-.41.397c-.1.17-.149.358-.149.567 0 .21.05.398.148.567.099.169.236.301.41.397.176.097.372.145.588.145.326 0 .6-.115.822-.347l.27.26a1.292 1.292 0 01-.485.338c-.19.077-.4.116-.627.116-.292 0-.555-.064-.79-.192zm4.062-1.111h-.609v1.27h-.408V9.25h.409v1.253h.616l.918-1.252h.446l-1.043 1.397 1.093 1.488h-.476l-.946-1.27zm4.273.549h-1.55l-.322.72h-.43l1.322-2.884h.413l1.326 2.885h-.438l-.321-.721zm-.146-.33l-.63-1.414-.629 1.414h1.259zm3.976-1.834v2.885h-.408v-.841h-.805c-.05 0-.087-.002-.112-.004l-.584.845h-.441l.645-.915a.908.908 0 01-.479-.344 1.01 1.01 0 01-.166-.588c0-.327.106-.582.319-.764.212-.183.5-.274.86-.274h1.171zm-1.74 1.527c.127.113.314.17.56.17h.772V9.61h-.746c-.25 0-.442.058-.576.173-.132.115-.2.283-.2.503 0 .215.064.378.19.493zm7.023.999v.359h-2.118V9.25h2.059v.36h-1.642v.885h1.463v.35h-1.463v.932h1.7zm3.638-.911h-.554v1.27h-.409v-1.27h-.558l-.817 1.27h-.487l.963-1.5-.893-1.386h.446l.78 1.253h.566V9.252h.41v1.252h.558l.783-1.252h.447l-.892 1.392.963 1.493h-.488l-.818-1.27zm4.428.911v.359h-2.118V9.25h2.059v.36h-1.642v.885h1.463v.35h-1.463v.932h1.7zm3.13-2.168h-1.5l.003 2.527h-.412V9.25h1.913l-.004.36zm1.217 2.368a1.435 1.435 0 01-.759-1.284 1.434 1.434 0 01.76-1.284c.235-.128.5-.192.795-.192.292 0 .556.064.792.192a1.42 1.42 0 01.755 1.284 1.42 1.42 0 01-.755 1.284c-.236.128-.5.192-.792.192-.295 0-.56-.064-.796-.192zm1.374-.32a1.07 1.07 0 00.404-.397c.098-.17.147-.358.147-.567a1.11 1.11 0 00-.147-.567 1.06 1.06 0 00-.404-.397 1.154 1.154 0 00-.578-.145c-.214 0-.408.048-.582.145a1.05 1.05 0 00-.408.397c-.099.17-.148.358-.148.567 0 .21.05.398.148.567.099.169.235.301.408.397.174.097.368.145.582.145.214 0 .406-.048.578-.145zm4.908.12v.99h-.388v-.631h-2.401l-.004.63h-.388l.005-.989h.141c.184-.01.313-.155.388-.43.075-.277.121-.667.138-1.169l.028-.928h2.052v2.527h.429zm-2.241-.553c-.051.267-.134.452-.247.553h1.646V9.61h-1.28l-.021.606a6.608 6.608 0 01-.098 1.01zm5.889-1.973v2.885h-.418V10.85h-1.675v1.286h-.417V9.25h.417v1.241h1.675v-1.24h.418zm3.373 2.164h-1.551l-.322.72h-.429l1.322-2.884h.413l1.325 2.885h-.438l-.32-.721zm-.147-.33l-.629-1.414-.629 1.414h1.258zm3.977-1.834v2.885h-.408v-.841h-.805c-.05 0-.088-.002-.113-.004l-.583.845h-.443l.647-.915a.903.903 0 01-.479-.344 1.003 1.003 0 01-.168-.588c0-.327.107-.582.319-.764.213-.183.5-.274.862-.274h1.171zm-1.74 1.527c.126.113.312.17.56.17h.772V9.61h-.747c-.25 0-.441.058-.575.173-.134.115-.2.283-.2.503 0 .215.063.378.19.493zm7.418-1.527v2.885h-.409V9.61h-1.692v2.527h-.413V9.25h2.514zm3.505.268c.217.178.325.424.325.737s-.108.56-.325.738c-.217.179-.514.268-.892.268h-.721v.874h-.417V9.25h1.138c.378 0 .675.09.892.269zm-.3 1.217c.139-.111.208-.271.208-.48 0-.209-.069-.369-.208-.48-.139-.111-.341-.167-.605-.167h-.708v1.294h.708c.264 0 .466-.056.605-.167zm3.889 1.041v.359h-2.117V9.25h2.059v.36h-1.642v.885h1.462v.35h-1.462v.932h1.7zm3.927.359l-.004-2.103-1.054 1.753h-.192l-1.055-1.74v2.09h-.4V9.25h.342l1.217 2.029 1.201-2.028h.341l.004 2.885h-.4zm1.876-2.885h.413v2.225l1.726-2.226h.384v2.886h-.409V9.915l-1.73 2.222h-.384V9.25zm6.136 0v2.885h-.408v-.841h-.805c-.05 0-.088-.002-.113-.004l-.583.845h-.442l.646-.915a.907.907 0 01-.479-.344 1.003 1.003 0 01-.167-.588c0-.327.106-.582.319-.764.212-.183.499-.274.861-.274h1.171zm-1.74 1.527c.126.113.313.17.561.17h.771V9.61h-.746c-.25 0-.442.058-.576.173-.133.115-.2.283-.2.503 0 .215.064.378.19.493zm-88.853 7.124h3.455c.8 0 1.51.148 2.13.444a3.367 3.367 0 011.44 1.259c.34.543.511 1.18.511 1.91 0 .729-.17 1.365-.511 1.909a3.367 3.367 0 01-1.44 1.258c-.62.297-1.33.444-2.13.444h-3.455v-7.224zm3.372 5.594c.626 0 1.129-.176 1.508-.526.38-.352.569-.837.569-1.456 0-.62-.19-1.105-.569-1.455-.38-.351-.882-.527-1.508-.527H51.29v3.963h1.305zm7.019 1.29a3.606 3.606 0 01-1.978-3.272c0-.716.175-1.359.527-1.93a3.672 3.672 0 011.45-1.341c.617-.324 1.31-.486 2.083-.486.772 0 1.467.162 2.082.486.616.323 1.1.77 1.451 1.34a3.61 3.61 0 01.527 1.931 3.607 3.607 0 01-1.978 3.272c-.615.323-1.31.485-2.082.485-.772 0-1.467-.162-2.082-.485zm3.084-1.466c.3-.172.536-.414.71-.727.174-.314.26-.673.26-1.079a2.18 2.18 0 00-.26-1.078 1.866 1.866 0 00-.71-.728 1.972 1.972 0 00-1.002-.258c-.369 0-.703.086-1.002.258-.3.172-.536.415-.71.728a2.182 2.182 0 00-.26 1.078c0 .406.086.765.26 1.079.174.313.41.555.71.727.3.172.633.258 1.002.258s.703-.086 1.002-.258zm7.327-.96h-.94v2.766h-2.055v-7.224h2.056v2.807h.992l1.742-2.807h2.171l-2.285 3.488 2.306 3.736h-2.327l-1.66-2.766zm10.658-2.838H78.45v5.604h-2.036v-5.604H74.17v-1.62h6.514v1.62zm2.561 5.264a3.666 3.666 0 01-1.45-1.342 3.604 3.604 0 01-.527-1.93c0-.716.175-1.359.527-1.93a3.67 3.67 0 011.45-1.341c.617-.324 1.31-.486 2.083-.486.772 0 1.466.162 2.082.486.616.323 1.099.77 1.45 1.34.352.572.528 1.215.528 1.931s-.176 1.36-.527 1.93a3.67 3.67 0 01-1.45 1.342c-.617.323-1.31.485-2.083.485-.773 0-1.466-.162-2.083-.485zm3.085-1.466c.299-.172.535-.414.71-.727a2.18 2.18 0 00.26-1.079 2.19 2.19 0 00-.26-1.078 1.87 1.87 0 00-.71-.728 1.974 1.974 0 00-1.002-.258c-.37 0-.703.086-1.002.258a1.865 1.865 0 00-.71.728 2.182 2.182 0 00-.261 1.078c0 .406.087.765.261 1.079.174.313.41.555.71.727.3.172.633.258 1.002.258.368 0 .702-.086 1.002-.258zm9.436-5.093c.486.217.862.527 1.126.929.265.402.397.875.397 1.419 0 .543-.132 1.015-.397 1.414-.264.399-.64.707-1.126.924-.488.216-1.062.325-1.722.325H92.77v1.888h-2.067v-7.224h3.34c.661 0 1.235.108 1.722.325zm-.888 3.127c.216-.182.324-.442.324-.78 0-.336-.108-.598-.323-.783-.216-.186-.537-.279-.96-.279H92.77v2.115h1.148c.424 0 .745-.09.96-.273zm13.757-3.452v7.224h-2.046v-5.604h-2.777v5.604h-2.035v-7.224h6.858zm1.774 0h2.035v4.242l3.017-4.242h1.941v7.224h-2.035v-4.231l-3.007 4.231h-1.951v-7.224zm14.654 1.62h-2.234v5.604h-2.035v-5.604h-2.244v-1.62h6.513v1.62zm7.024 4.025v1.58h-5.866v-7.225h5.73v1.579h-3.684V20.7h3.246v1.527h-3.246v1.321h3.82zm6.45-5.32c.487.217.863.527 1.127.929.265.402.397.875.397 1.419 0 .543-.132 1.015-.397 1.414-.264.399-.64.707-1.127.924-.487.216-1.061.325-1.721.325h-1.274v1.888h-2.067v-7.224h3.341c.66 0 1.234.108 1.721.325zm-.887 3.127c.216-.182.324-.442.324-.78 0-.336-.108-.598-.324-.783-.215-.186-.536-.279-.96-.279h-1.148v2.115h1.148c.424 0 .745-.09.96-.273z" fill="#414141"/></svg>