<svg width="141" height="51" fill="none" xmlns="http://www.w3.org/2000/svg"><path d="M93.733 17.607c-.755 0-1.4-.52-1.4-1.161 0-.642.645-1.146 1.4-1.146.774 0 1.4.505 1.4 1.146 0 .642-.626 1.161-1.4 1.161z" fill="#713D9E"/><path d="M28.39 29.143c-1.902 0-3.269-.634-4.19-1.562l1.144-1.591c.407.42.896.755 1.437.983a4.381 4.381 0 001.713.343c1.16 0 1.724-.53 1.724-1.09 0-1.739-5.706-.545-5.706-4.244 0-1.635 1.426-2.99 3.76-2.99 1.574 0 2.882.471 3.862 1.37l-1.173 1.532c-.802-.736-1.872-1.075-2.883-1.075-.906 0-1.411.397-1.411.987 0 1.561 5.69.515 5.69 4.184 0 1.798-1.292 3.153-3.967 3.153zm9.807-.177h-2.125V20.98h-2.897v-1.84h7.905v1.841h-2.883v7.987zm13.05 0H48.84l-.61-1.665h-4.25l-.623 1.665H40.95l3.833-9.827h2.645l3.819 9.827zM47.65 25.46l-1.545-4.229-1.546 4.229h3.09zm12.54 3.506h-2.42l-1.947-3.492h-1.545v3.492h-2.11V19.14h4.636c2.066 0 3.328 1.34 3.328 3.168 0 1.738-1.1 2.666-2.169 2.917l2.229 3.742zm-3.7-5.333c.848 0 1.487-.502 1.487-1.326 0-.825-.64-1.327-1.486-1.327h-2.214v2.653h2.214zm9.644 5.333H64.01V20.98h-2.897v-1.84h7.905v1.841h-2.883v7.987zm7.757.177c-1.902 0-3.27-.634-4.19-1.562l1.144-1.591c.406.42.895.755 1.437.983a4.382 4.382 0 001.713.343c1.158 0 1.723-.53 1.723-1.09 0-1.739-5.705-.545-5.705-4.244 0-1.635 1.426-2.99 3.76-2.99 1.574 0 2.882.471 3.862 1.37l-1.174 1.532c-.802-.736-1.872-1.075-2.882-1.075-.907 0-1.412.397-1.412.987 0 1.561 5.69.515 5.69 4.184 0 1.798-1.292 3.153-3.966 3.153zm16.136-.177h-2.125v-6.88l-2.793 6.88h-.921l-2.794-6.88v6.88h-2.11V19.14h2.957l2.407 5.938 2.407-5.938h2.972v9.828zm3.804 0h-1.887V19.14h1.888v9.828h-.001zm8.217 0h-6.3V19.14h2.11v7.986h4.19v1.841zm8.484 0h-7.013V19.14h7.013v1.841h-4.903v2.078h4.8V24.9h-4.8v2.224h4.903v1.842z" fill="#000"/><path opacity=".6" d="M25.332 34.39a.825.825 0 01-.675-.344v1.095H24.2v-2.91h.457v.288a.833.833 0 01.675-.34c.543 0 .93.41.93 1.104 0 .694-.387 1.108-.93 1.108zm-.136-.405c.362 0 .592-.292.592-.702 0-.406-.23-.699-.592-.699a.682.682 0 00-.54.284v.834c.1.152.327.283.54.283zm2.986.406c-.631 0-1.101-.441-1.101-1.108 0-.611.443-1.105 1.066-1.105.631 0 1.035.485 1.035 1.148v.11H27.56c.034.318.274.58.67.58a.889.889 0 00.596-.231l.209.3c-.21.201-.518.306-.853.306zm.557-1.278c-.01-.25-.178-.56-.592-.56-.392 0-.57.302-.592.56h1.184zm1.832 1.225h-.44v-2.107h.457v1.418l.966-1.418h.457v2.107h-.457v-1.456l-.983 1.456zm1.261-2.713a.939.939 0 01-.761.383.96.96 0 01-.766-.383l.21-.175a.67.67 0 00.556.288.67.67 0 00.553-.288l.208.175zm2.107 2.713h-.457v-1.705h-.6v-.402h1.662v.402h-.605v1.705zm1.915 0h-.44v-2.107h.457v1.418l.966-1.418h.457v2.107h-.457v-1.456l-.983 1.456zm2.985 0h-.457v-2.107h.457v.83h.965v-.83h.458v2.107h-.458v-.876h-.965v.876zm4.103-2.107v.402h-1.136v1.705h-.456v-2.107h1.592zm3.443 2.16c-.64 0-1.088-.467-1.088-1.108 0-.637.448-1.105 1.088-1.105.409 0 .657.175.804.376l-.3.28a.557.557 0 00-.482-.25c-.384 0-.636.289-.636.699s.252.702.635.702a.572.572 0 00.483-.249l.3.28c-.148.2-.395.375-.804.375zm2.54-.052h-.456v-1.707h-.6v-.402h1.662v.402h-.605v1.706zm2.425.052c-.666 0-1.08-.502-1.08-1.108 0-.603.414-1.105 1.08-1.105.674 0 1.083.502 1.083 1.105 0 .606-.409 1.108-1.084 1.108zm0-.406c.391 0 .609-.327.609-.702 0-.372-.218-.699-.61-.699-.386 0-.604.327-.604.699 0 .375.218.702.605.702zm4.395.353h-.457v-1.465l-.627 1.465h-.183l-.63-1.465v1.465h-.458v-2.107h.596l.584 1.361.574-1.361h.6v2.107zm2.828 0h-.456v-.226c-.158.179-.4.279-.68.279-.343 0-.73-.231-.73-.698 0-.484.387-.685.73-.685.283 0 .527.091.68.27v-.314c0-.244-.201-.393-.493-.393a.858.858 0 00-.622.266l-.187-.318c.244-.231.548-.34.883-.34.466 0 .875.196.875.763v1.396zm-.957-.261c.2 0 .396-.075.5-.218v-.32c-.105-.143-.3-.217-.5-.217-.257 0-.448.148-.448.38 0 .226.191.375.448.375zm2.885.261h-.457v-1.705h-.6v-.402h1.661v.402h-.604v1.705zm2.424.053c-.666 0-1.08-.502-1.08-1.108 0-.603.414-1.105 1.08-1.105.674 0 1.083.502 1.083 1.105 0 .606-.409 1.108-1.083 1.108zm0-.406c.392 0 .61-.327.61-.702 0-.372-.218-.699-.61-.699-.387 0-.605.327-.605.699 0 .375.218.702.605.702zm1.823.406v-.375c.178 0 .279-.205.348-.76l.126-1.025h1.624v2.108h-.457v-1.706h-.762l-.073.676c-.083.764-.344 1.082-.806 1.082zm4.134 0c-.666 0-1.079-.502-1.079-1.108 0-.603.413-1.105 1.08-1.105.673 0 1.082.502 1.082 1.105 0 .606-.409 1.108-1.083 1.108zm0-.406c.392 0 .61-.327.61-.702 0-.372-.218-.699-.61-.699-.387 0-.605.327-.605.699 0 .375.218.702.605.702zm3.634-1.754v.402H71.38v1.705h-.457v-2.107h1.593zm1.31 2.107h-.44v-2.107h.457v1.418l.966-1.418h.457v2.107h-.457v-1.456l-.983 1.456zm2.454-2.107h.457v.567c0 .327.165.428.5.428.2 0 .353-.03.461-.079v-.916h.457v2.107h-.457v-.82c-.14.07-.352.114-.604.114-.593 0-.814-.235-.814-.668v-.733zm3.934 2.16c-.631 0-1.102-.441-1.102-1.108 0-.611.445-1.105 1.067-1.105.63 0 1.036.485 1.036 1.148v.11H79.59c.035.318.275.58.67.58a.889.889 0 00.597-.231l.208.3c-.208.201-.517.306-.852.306zm.556-1.278c-.008-.25-.178-.56-.59-.56-.393 0-.571.302-.593.56h1.183zm2.35 1.278c-.64 0-1.087-.467-1.087-1.108 0-.637.448-1.105 1.088-1.105.409 0 .657.175.805.376l-.3.28a.557.557 0 00-.483-.25c-.384 0-.636.289-.636.699s.252.702.635.702a.572.572 0 00.483-.249l.3.28c-.147.2-.395.375-.804.375zm3.669-.052h-.575l-.644-.869-.291.301v.567h-.457v-2.107h.457v1.017l.927-1.017h.566l-.875.956.891 1.151zm1.257 0h-.44V32.23h.458v1.418l.966-1.418h.457v2.107h-.457v-1.456l-.984 1.456zm4.37 0h-.514l-.544-.777-.548.776h-.51l.77-1.082-.727-1.025h.514l.5.715.496-.715h.514l-.727 1.025.775 1.082zm4.395 0h-.575l-.644-.869-.291.301v.567h-.457v-2.107h.457v1.017l.927-1.017h.565l-.875.956.893 1.151zm.6.052v-.375c.178 0 .278-.205.348-.76l.126-1.025h1.623v2.108h-.456v-1.706h-.762l-.074.676c-.082.764-.343 1.082-.805 1.082zm3.625-.052h-.439V32.23h.456v1.418l.967-1.418h.456v2.107h-.456v-1.456l-.984 1.456zm2.985 0h-.457V32.23h.457v.83h.966v-.83h.457v2.107h-.457v-.876h-.966v.876zm2.95 0h-.439V32.23h.457v1.418l.966-1.418h.457v2.107h-.457v-1.456l-.984 1.456zm4.496 0h-.574l-.645-.869-.291.301v.567h-.457v-2.107h.457v1.017l.927-1.017h.565l-.874.956.892 1.151z" fill="#000"/><path d="M18.6 24.529c0 5.096-4.074 9.228-9.1 9.228S.4 29.626.4 24.53c0-5.097 4.074-9.229 9.1-9.229 5.025 0 9.1 4.132 9.1 9.229z" fill="#713D9E"/><path d="M9.5 27.427l2.15 1.181a.327.327 0 00.48-.343l-.397-2.562 1.752-1.839a.334.334 0 00-.184-.559l-2.42-.39-1.086-2.297a.322.322 0 00-.295-.189.327.327 0 00-.296.189L8.12 22.915l-2.421.39a.326.326 0 00-.176.09.336.336 0 00-.008.47l1.752 1.838-.397 2.562a.336.336 0 00.116.309.324.324 0 00.364.034l2.15-1.182zM7.779 29.41a1.22 1.22 0 01-1.666-.5 1.261 1.261 0 01-.133-.789l.327-2.111-1.44-1.511a1.26 1.26 0 01.03-1.762 1.22 1.22 0 01.66-.335l1.955-.315.88-1.864a1.221 1.221 0 012.216 0l.88 1.864 1.955.315c.67.108 1.127.747 1.02 1.426-.04.252-.154.485-.33.67l-1.44 1.512.327 2.111a1.243 1.243 0 01-1.022 1.425 1.213 1.213 0 01-.777-.135L9.5 28.465l-1.721.946z" fill="#fff"/><path d="M116.133 18.991H140.4v10.152h-24.267V18.99z" fill="#713D9E"/><path d="M121.096 27.434c-1.121 0-1.876-.416-1.876-1.325 0-.088.013-.265.052-.416l.703-3.116h-1.042l.326-1.388h1.042l.57-2.198h1.675l-.577 2.198h1.276l-.339 1.388h-1.276l-.599 2.649a1.663 1.663 0 00-.026.252c0 .329.195.53.612.53.169 0 .377-.063.456-.126l.065 1.287c-.248.164-.638.265-1.042.265zm5.223 0c-2.006 0-3.113-1.173-3.113-2.763 0-1.905 1.511-3.634 3.634-3.634 2.007 0 3.127 1.186 3.127 2.776a3.625 3.625 0 01-3.648 3.621zm.065-1.426c1.108 0 1.863-1.022 1.863-2.12 0-.883-.547-1.425-1.459-1.425-1.12 0-1.876 1.034-1.876 2.12 0 .883.547 1.425 1.472 1.425zm7.907 1.426c-.86 0-1.589-.353-2.006-.96l-.716 3.13h-1.654l1.927-8.415h1.655l-.182.757c.533-.606 1.146-.909 1.901-.909 1.407 0 2.384.909 2.384 2.524 0 1.83-1.172 3.873-3.309 3.873zm-.273-1.426c1.094 0 1.85-.996 1.85-2.12 0-.87-.6-1.425-1.394-1.425-.586 0-1.094.315-1.446.732l-.483 2.12c.275.403.808.693 1.473.693z" fill="#fff"/></svg>