<svg width="140" height="51" fill="none" xmlns="http://www.w3.org/2000/svg"><path d="M0 38.095h3.698V19.074H14.21v19.021h3.698V15.533H0v22.562zm21.258 7.521h3.729v-8.383a6.585 6.585 0 001.903.972c.716.24 1.503.36 2.363.36 1.534 0 2.864-.392 3.99-1.175 1.135-.784 2.015-1.849 2.639-3.196.624-1.348.936-2.868.936-4.56 0-1.713-.317-3.243-.951-4.59-.624-1.348-1.514-2.408-2.67-3.181-1.157-.773-2.517-1.16-4.082-1.16-.942 0-1.796.146-2.563.439a6.157 6.157 0 00-2.026 1.253v-1.222h-3.268v24.443zm7.427-10.435c-1.483 0-2.547-.512-3.192-1.536-.644-1.034-.967-2.37-.967-4.01 0-1.651.317-2.988.952-4.012.644-1.024 1.672-1.535 3.084-1.535.992 0 1.806.25 2.44.752.645.49 1.12 1.16 1.427 2.005.317.836.476 1.765.476 2.79 0 1.033-.154 1.968-.46 2.804-.297.836-.758 1.504-1.381 2.005-.625.491-1.417.737-2.38.737zm18.129 3.384c1.596 0 3.054-.418 4.374-1.253 1.33-.846 2.312-2.037 2.946-3.573l-3.652-1.128c-.736 1.609-2.03 2.413-3.882 2.413-1.259 0-2.251-.37-2.977-1.112-.727-.752-1.161-1.828-1.305-3.228h12c.144-2.037-.076-3.802-.66-5.296-.583-1.494-1.478-2.648-2.685-3.463-1.197-.814-2.655-1.222-4.373-1.222-1.627 0-3.06.376-4.297 1.128-1.238.742-2.205 1.797-2.9 3.165-.696 1.369-1.044 2.977-1.044 4.826 0 1.713.353 3.228 1.059 4.544a7.846 7.846 0 002.977 3.087c1.268.741 2.742 1.112 4.42 1.112zm-.06-14.556c1.145 0 2.025.308 2.639.925.624.605 1.017 1.572 1.181 2.898H42.41c.44-2.548 1.888-3.823 4.343-3.823zm9.587 14.086h3.545v-9.323l4.711 9.323h1.458l4.711-9.323v9.323h3.53V21.173h-3.023l-5.954 11.689-5.94-11.689h-3.038v16.922zm35.683-16.922h-2.931l-7.919 10.764V21.173H77.63v16.922h2.961l7.888-11.046v11.046h3.545V21.173zm2.467 16.922h3.882l3.423-5.64h3.529v5.64h3.699V21.173h-6.722c-.378 0-.849.01-1.411.032a8.763 8.763 0 00-1.658.188c-1.279.26-2.317.856-3.115 1.786s-1.197 2.157-1.197 3.682c0 1.326.307 2.418.92 3.275a5.08 5.08 0 002.41 1.817l-3.76 6.142zm7.489-8.602c-.194 0-.419-.005-.675-.015a3.945 3.945 0 01-.752-.142c-.501-.146-.941-.433-1.32-.861-.368-.439-.552-.987-.552-1.646 0-.647.184-1.195.552-1.645.368-.449.772-.741 1.212-.877a4.29 4.29 0 01.814-.141c.286-.02.527-.031.721-.031h3.345v5.358h-3.345z" fill="#4E4E4E"/><path d="M126.942 33.963a.299.299 0 01.308 0l7.484 4.527c.215.13.485-.05.444-.296l-1.432-8.472a.29.29 0 01.086-.257l6.079-5.84a.29.29 0 00-.166-.498l-8.352-1.104a.296.296 0 01-.226-.161l-3.806-7.732a.296.296 0 00-.53 0l-3.806 7.732a.296.296 0 01-.226.161l-8.352 1.104a.29.29 0 00-.166.497l6.079 5.841c.07.067.102.163.086.257l-1.432 8.472c-.041.246.229.426.445.296l7.483-4.527z" fill="#E4B674"/><path d="M30.285 14.565h1.485V7.21h4.223v7.355h1.485V5.841h-7.193v8.724zm8.539 2.909h1.498v-3.242c.226.162.48.287.764.376.288.093.605.14.95.14.616 0 1.15-.152 1.602-.455a3.01 3.01 0 001.06-1.236c.252-.521.377-1.109.377-1.763 0-.663-.128-1.255-.382-1.776a2.948 2.948 0 00-1.073-1.23c-.464-.298-1.011-.448-1.64-.448a2.97 2.97 0 00-1.03.17 2.49 2.49 0 00-.813.484v-.472h-1.313v9.452zm2.984-4.036c-.596 0-1.024-.197-1.283-.593-.258-.4-.388-.917-.388-1.551 0-.639.127-1.156.382-1.551.26-.396.672-.594 1.24-.594.398 0 .725.097.98.29.259.19.45.449.573.776.127.323.19.683.19 1.079 0 .4-.06.761-.184 1.084-.12.323-.304.582-.555.776-.25.19-.569.284-.955.284zm7.196 1.309c.666 0 1.247-.145 1.745-.436.497-.295.883-.7 1.159-1.218.28-.521.419-1.12.419-1.8 0-.674-.138-1.27-.413-1.787a3.05 3.05 0 00-1.16-1.224c-.496-.294-1.08-.442-1.75-.442-.653 0-1.229.146-1.726.436a3.06 3.06 0 00-1.165 1.212c-.28.517-.42 1.119-.42 1.806 0 .674.137 1.272.408 1.793a3.06 3.06 0 001.159 1.218c.497.295 1.078.442 1.744.442zm0-1.37c-.571 0-1.005-.187-1.3-.563-.292-.38-.438-.886-.438-1.52 0-.618.14-1.12.419-1.503.283-.388.723-.582 1.32-.582.583 0 1.02.19 1.312.57.292.376.438.88.438 1.515 0 .614-.146 1.114-.438 1.502-.288.388-.725.582-1.313.582zm3.68 2.643h1.486v-1.455h5.424v1.455h1.48v-2.824h-.666V5.841l-5.788-.012c-.058.9-.11 1.71-.154 2.43a61.227 61.227 0 01-.167 2.198 8.67 8.67 0 01-.228 1.382c-.107.412-.27.741-.487.987-.214.247-.514.37-.9.37v2.824zm2.312-2.824c.176-.206.308-.416.394-.63.09-.214.158-.467.203-.757.05-.291.095-.653.136-1.085.045-.444.08-.854.105-1.23.025-.375.047-.747.068-1.115.024-.367.05-.761.074-1.181l2.946.012v5.986h-3.926zM65 14.747c.666 0 1.247-.145 1.745-.436.497-.295.883-.7 1.158-1.218.28-.521.42-1.12.42-1.8 0-.674-.138-1.27-.413-1.787a3.05 3.05 0 00-1.16-1.224c-.497-.294-1.08-.442-1.75-.442-.653 0-1.229.146-1.726.436a3.061 3.061 0 00-1.165 1.212c-.28.517-.42 1.119-.42 1.806 0 .674.136 1.272.407 1.793a3.06 3.06 0 001.16 1.218c.497.295 1.078.442 1.744.442zm0-1.37c-.571 0-1.005-.187-1.3-.563-.293-.38-.438-.886-.438-1.52 0-.618.14-1.12.419-1.503.283-.388.723-.582 1.319-.582.584 0 1.021.19 1.313.57.292.376.438.88.438 1.515 0 .614-.146 1.114-.438 1.502-.288.388-.725.582-1.313.582zm4.299 1.188h1.516v-3.15l2.546 3.15h1.966l-2.804-3.271 2.583-3.272H73.25l-2.435 3.15v-3.15h-1.504l-.012 6.543z" fill="#4E4E4E"/><path d="M77.246 14.565h1.485V9.318h2.226V8.022H75.02v1.296h2.226v5.247zm7.329.182c.666 0 1.247-.145 1.745-.436a3.06 3.06 0 001.159-1.218c.279-.521.419-1.12.419-1.8 0-.674-.138-1.27-.413-1.787a3.05 3.05 0 00-1.16-1.224c-.497-.294-1.08-.442-1.75-.442-.653 0-1.229.146-1.726.436a3.06 3.06 0 00-1.165 1.212c-.28.517-.42 1.119-.42 1.806 0 .674.136 1.272.408 1.793a3.06 3.06 0 001.159 1.218c.497.295 1.078.442 1.744.442zm0-1.37c-.571 0-1.005-.187-1.3-.563-.292-.38-.438-.886-.438-1.52 0-.618.14-1.12.419-1.503.283-.388.723-.582 1.319-.582.584 0 1.021.19 1.313.57.292.376.438.88.438 1.515 0 .614-.146 1.114-.438 1.502-.288.388-.725.582-1.313.582zm4.299 4.097h1.498v-3.242c.226.162.48.287.764.376.288.093.604.14.95.14.616 0 1.15-.152 1.602-.455.456-.303.81-.715 1.06-1.236.251-.521.376-1.109.376-1.763 0-.663-.127-1.255-.382-1.776a2.948 2.948 0 00-1.072-1.23c-.465-.298-1.011-.448-1.64-.448a2.97 2.97 0 00-1.03.17 2.485 2.485 0 00-.813.484v-.472h-1.313v9.452zm2.983-4.036c-.596 0-1.023-.197-1.282-.593-.259-.4-.388-.917-.388-1.551 0-.639.127-1.156.382-1.551.259-.396.672-.594 1.239-.594.399 0 .725.097.98.29.259.19.45.449.574.776.127.323.19.683.19 1.079 0 .4-.061.761-.184 1.084-.12.323-.304.582-.555.776-.25.19-.57.284-.956.284zm7.196 1.309c.667 0 1.248-.145 1.745-.436.498-.295.884-.7 1.159-1.218.28-.521.42-1.12.42-1.8 0-.674-.138-1.27-.414-1.787a3.036 3.036 0 00-1.159-1.224c-.496-.294-1.08-.442-1.75-.442-.653 0-1.229.146-1.726.436a3.061 3.061 0 00-1.165 1.212c-.28.517-.42 1.119-.42 1.806 0 .674.136 1.272.407 1.793a3.06 3.06 0 001.16 1.218c.497.295 1.078.442 1.743.442zm0-1.37c-.57 0-1.004-.187-1.3-.563-.292-.38-.438-.886-.438-1.52 0-.618.14-1.12.42-1.503.283-.388.723-.582 1.318-.582.584 0 1.022.19 1.314.57.292.376.437.88.437 1.515 0 .614-.145 1.114-.437 1.502-.288.388-.726.582-1.314.582zm4.299 1.188h3.274c.205 0 .407-.008.604-.024.197-.02.372-.05.524-.09.415-.118.729-.326.943-.625.218-.303.327-.674.327-1.115 0-.387-.079-.688-.235-.902a1.467 1.467 0 00-.567-.485 1.704 1.704 0 00-.455-.14c.143-.04.289-.12.437-.242.148-.117.267-.266.358-.448.09-.182.135-.412.135-.69 0-.473-.124-.843-.37-1.11a1.826 1.826 0 00-.851-.545 3.7 3.7 0 00-.487-.09 4.79 4.79 0 00-.61-.037h-3.027v6.543zm1.505-3.84V9.166h1.202c.041 0 .133.004.277.012.148.004.274.024.377.06a.548.548 0 01.338.267c.074.13.111.275.111.437a.882.882 0 01-.098.418.596.596 0 01-.296.266 1.243 1.243 0 01-.314.079c-.12.012-.241.018-.365.018h-1.232zm0 2.713V11.87h1.633c.062 0 .14.004.234.012.1.004.19.022.272.055a.72.72 0 01.357.236c.103.117.155.277.155.479a.9.9 0 01-.105.418.546.546 0 01-.321.279 1.83 1.83 0 01-.561.09h-1.664z" fill="#4E4E4E"/></svg>