<svg width="12" height="12" fill="none" xmlns="http://www.w3.org/2000/svg"><path d="M5.905 2.658a1.114 1.114 0 100-2.228 1.114 1.114 0 000 2.228zm1.768 3.408l1.051 1.051a.743.743 0 101.05-1.05L7.808 4.101a2.67 2.67 0 00-.212-.19c.05.163.077.336.077.516v1.64zM3.088 7.117l2.12-2.12a2.38 2.38 0 00.698-1.684c-.713 0-1.398.283-1.901.787L2.038 6.067a.743.743 0 001.05 1.05zm2.58-1.657l-.877.877v.127H7.02V4.427c0-.374-.186-.705-.469-.907a3.01 3.01 0 01-.883 1.94zm4.107 4.844l-2.249-2.25a3.017 3.017 0 01-.384.786l-.376.555 1.958 1.96a.743.743 0 001.05-1.051zM4.791 7.117c0 .482-.078.976-.232 1.432l-.14.425-1.903 1.217a.743.743 0 00-.225 1.026.742.742 0 001.022.238l2.136-1.33a.328.328 0 00.098-.094l1.055-1.556c.273-.4.418-.874.418-1.358H4.791z" fill="#80787A"/></svg>