<svg width="12" height="12" fill="none" xmlns="http://www.w3.org/2000/svg"><path d="M2.96.43c-.833 0-1.52.686-1.52 1.52v.759a.253.253 0 01-.253.253H.934a.507.507 0 00-.506.507v2.026c0 .28.227.506.506.506h.253a.253.253 0 01.254.253v4.306c0 .552.46 1.012 1.013 1.012.552 0 1.013-.46 1.013-1.012v-.254a.253.253 0 01.253-.253h4.558a.254.254 0 01.254.253v.254c0 .552.46 1.012 1.013 1.012.552 0 1.013-.46 1.013-1.012V6.254a.253.253 0 01.253-.253h.253c.28 0 .507-.227.507-.506V3.469a.507.507 0 00-.507-.507h-.253a.253.253 0 01-.253-.253v-.76c0-.833-.687-1.52-1.52-1.52H2.96zm-.253 2.532h2.532c.14 0 .254.113.254.253v2.533c0 .14-.113.253-.254.253H2.707a.253.253 0 01-.253-.253V3.215c0-.14.113-.253.253-.253zm4.052 0H9.29c.14 0 .254.113.254.253v2.533c0 .14-.113.253-.254.253H6.76a.253.253 0 01-.253-.253V3.215c0-.14.113-.253.253-.253zM2.707 7.014h1.52c.14 0 .253.113.253.253v.507c0 .14-.113.253-.254.253H2.707a.253.253 0 01-.253-.253v-.507c0-.14.113-.253.253-.253zm5.065 0h1.52c.14 0 .253.113.253.253v.507c0 .14-.113.253-.254.253h-1.52a.253.253 0 01-.252-.253v-.507c0-.14.113-.253.253-.253z" fill="#80787A"/></svg>