<svg width="12" height="12" fill="none" xmlns="http://www.w3.org/2000/svg"><path d="M5.813.43a4.462 4.462 0 00-4.458 4.457c0 3.397 4.17 6.518 4.347 6.65a.186.186 0 00.221 0c.178-.132 4.347-3.253 4.347-6.65A4.462 4.462 0 005.813.43zm0 7.8a3.343 3.343 0 110-6.686 3.343 3.343 0 010 6.686zm1.3-5.572h-2.6a.559.559 0 00-.558.557v2.6a.559.559 0 00.558.558h2.6a.559.559 0 00.557-.558v-2.6a.559.559 0 00-.557-.557zM5.255 5.63h-.371a.186.186 0 010-.372h.371a.186.186 0 110 .372zm1.486 0H6.37a.186.186 0 010-.372h.371a.186.186 0 110 .372zm.557-1.115H4.327v-1.3a.186.186 0 01.186-.185h2.6a.186.186 0 01.185.185v1.3zM4.513 6.744h.928a.372.372 0 01-.371.371h-.372a.372.372 0 01-.371-.371v-.019a.874.874 0 00.186.019zm2.6 0a.875.875 0 00.185-.019v.019a.373.373 0 01-.371.371h-.372a.372.372 0 01-.371-.371h.929zm1.3-2.786v.372a.186.186 0 11-.372 0v-.895a.557.557 0 01.372.523zm-4.829-.523v.895a.186.186 0 01-.371 0v-.372a.557.557 0 01.371-.523z" fill="#80787A"/></svg>