<svg width="22" height="22" fill="none" xmlns="http://www.w3.org/2000/svg"><path fill-rule="evenodd" clip-rule="evenodd" d="M0 .786C0 .352.352 0 .786 0h2.619a.786.786 0 110 1.571H1.57v1.834a.786.786 0 01-1.571 0V.785zm22 0A.786.786 0 0021.214 0h-2.619a.786.786 0 000 1.571h1.834v1.834a.786.786 0 101.571 0V.785zM0 21.214c0 .434.352.786.786.786h2.619a.786.786 0 000-1.571H1.57v-1.834a.786.786 0 00-1.571 0v2.62zm22 0a.786.786 0 01-.786.786h-2.619a.786.786 0 010-1.571h1.834v-1.834a.786.786 0 111.571 0v2.62z" fill="#B36FDE"/><path d="M12.323 12.702c1.23 0 2.409-.476 3.278-1.323a4.46 4.46 0 001.357-3.195 4.46 4.46 0 00-1.357-3.194 4.697 4.697 0 00-3.278-1.323H5.5v1.366h1.75v6.302H5.5v1.367h1.75v1.874H5.5v1.366h1.75v2.391h1.402v-2.39h4.208v-1.367H8.652v-1.874h3.671zM8.652 5.033h3.671c.425 0 .845.082 1.238.24.392.158.748.39 1.049.683.3.293.538.64.7 1.022a3.082 3.082 0 010 2.412c-.162.382-.4.73-.7 1.022a3.29 3.29 0 01-2.287.923H8.652V5.033z" fill="#80787A"/></svg>