<svg width="153" height="194" fill="none" xmlns="http://www.w3.org/2000/svg"><path d="M74.003 10.953H.582v55.839c0 34.323 7.018 58.015 35.333 86.305 28.315 28.29 38.118 30.936 38.118 30.936s9.774-2.655 38.118-30.936c28.344-28.28 35.332-51.982 35.332-86.305V10.953h-73.48z" stroke="#AEA8A5" stroke-width=".94" stroke-linecap="round" stroke-linejoin="round"/><path d="M74.003 176.388c-4.017-2.284-14.093-9.118-33.23-28.183C12.828 120.237 7.501 98.019 7.501 66.79V17.863h133.003V66.79c0 31.238-5.307 53.447-33.3 81.415-19.117 19.065-29.175 25.899-33.202 28.183z" stroke="#AEA8A5" stroke-width=".94" stroke-linecap="round" stroke-linejoin="round"/><path d="M147.434 10.953l-6.929 6.912-21.601 17.308m-89.792 0L7.502 17.865l-6.92-6.912m73.49 165.367l-.068 7.712m-59.699-73.636l10.81-.068m87.701-23.624h-2.835V56.277h2.835a1.194 1.194 0 001.192-1.191 1.192 1.192 0 00-1.192-1.191H82.448a1.193 1.193 0 00-1.192 1.19 1.19 1.19 0 001.192 1.191h2.845v27.568a2.868 2.868 0 01-2.874 2.86 1.193 1.193 0 00-1.173 1.192v0a1.19 1.19 0 001.183 1.19H93.58a1.193 1.193 0 001.192-1.19 1.19 1.19 0 00-1.192-1.192h-2.835V56.277h13.772v30.427h-2.864a1.192 1.192 0 00-.843 2.034c.223.223.527.348.843.348h11.162a1.192 1.192 0 000-2.382v0zm-44.443 0h-2.835l-10.682-32.81h-9.774a1.193 1.193 0 00-1.193 1.192 1.19 1.19 0 001.193 1.19h2.932l-9.305 28.457a2.851 2.851 0 01-2.727 1.952H35.2a1.193 1.193 0 00-1.192 1.19v0a1.19 1.19 0 001.192 1.192h8.904a1.193 1.193 0 001.193-1.191v0a1.19 1.19 0 00-1.193-1.172h-2.678l3.03-9.547h12.52l3.108 9.547h-2.873a1.193 1.193 0 00-1.192 1.192 1.19 1.19 0 001.192 1.19h11.162a1.193 1.193 0 001.192-1.19 1.19 1.19 0 00-1.192-1.192zM45.297 74.502l5.346-16.8 5.463 16.8h-10.81z" stroke="#AEA8A5" stroke-width=".94" stroke-linecap="round" stroke-linejoin="round"/><path d="M74.003 41.81l-18.316-6.267-12.96 2.948-13.616-3.32v66.002l13.615 3.319 12.96-2.949 18.317 6.268V41.81z" stroke="#AEA8A5" stroke-width=".94" stroke-linecap="round" stroke-linejoin="round"/><path d="M29.113 42.922h-4.066v67.475h48.957v-2.587m0-66l18.326-6.267 12.95 2.948 13.625-3.32v66.002l-13.625 3.319-12.95-2.949-18.326 6.268V41.81z" stroke="#AEA8A5" stroke-width=".94" stroke-linecap="round" stroke-linejoin="round"/><path d="M118.905 42.922h4.066v67.475H74.004v-2.587M25.046 42.922H7.502" stroke="#AEA8A5" stroke-width=".94" stroke-linecap="round" stroke-linejoin="round"/><path d="M74.072 176.329l-.068-65.933 49.026-.068" stroke="#AEA8A5" stroke-width=".94" stroke-linecap="round" stroke-linejoin="round"/><path d="M133.713 110.398h-10.751s-24.435 34.714-48.968 48.742c-37.903-24.405-48.957-48.742-48.957-48.742m97.934-67.476h17.534m-48.175-7.38V17.863M55.688 35.542V17.863" stroke="#AEA8A5" stroke-width=".94" stroke-linecap="round" stroke-linejoin="round"/><path d="M105.279 104.492v5.857s-14.24 20.5-31.276 30.37c-17.896-9.918-31.276-30.37-31.276-30.37v-5.857" stroke="#AEA8A5" stroke-width=".94" stroke-linecap="round" stroke-linejoin="round"/></svg>