<svg width="533" height="560" fill="none" xmlns="http://www.w3.org/2000/svg"><path d="M257.804 36.695H2.029v187.088c0 115 24.447 194.381 123.087 289.168 98.639 94.787 132.79 103.65 132.79 103.65s34.049-8.896 132.791-103.65c98.742-94.754 123.087-174.168 123.087-289.168V36.695h-255.98z" stroke="#E7E1D9" stroke-width=".94" stroke-linecap="round" stroke-linejoin="round"/><path d="M257.803 590.991c-13.994-7.654-49.098-30.549-115.766-94.427-97.346-93.708-115.902-168.15-115.902-272.782V59.852h463.337v163.93c0 104.665-18.489 179.074-116.005 272.782-66.599 63.878-101.636 86.773-115.664 94.427z" stroke="#E7E1D9" stroke-width=".94" stroke-linecap="round" stroke-linejoin="round"/><path d="M513.613 36.695l-24.14 23.157-75.248 57.991m-312.807 0l-75.282-57.99L2.029 36.694m47.805 333.195l37.658-.229m305.521-79.156h-9.874V188.555h9.874a4.242 4.242 0 002.937-1.169 3.911 3.911 0 001.217-2.821 3.912 3.912 0 00-1.217-2.822 4.242 4.242 0 00-2.937-1.169h-105.79a4.242 4.242 0 00-2.937 1.169 3.912 3.912 0 00-1.217 2.822c0 1.058.438 2.073 1.217 2.821a4.242 4.242 0 002.937 1.169h9.908v92.366c-.009 2.545-1.067 4.982-2.944 6.779-1.876 1.796-4.417 2.805-7.066 2.804a4.243 4.243 0 00-2.893 1.192 3.91 3.91 0 00-1.193 2.799v0c0 1.052.433 2.063 1.205 2.81a4.236 4.236 0 002.915 1.18h38.85c1.102 0 2.158-.42 2.937-1.169a3.911 3.911 0 001.217-2.821 3.915 3.915 0 00-1.217-2.822 4.242 4.242 0 00-2.937-1.169h-9.874V188.555h47.974v101.949h-9.976a4.242 4.242 0 00-2.937 1.169 3.915 3.915 0 00-1.217 2.822c0 1.058.438 2.073 1.217 2.821a4.238 4.238 0 002.937 1.169h38.884a4.236 4.236 0 002.915-1.18 3.911 3.911 0 001.205-2.81 3.91 3.91 0 00-1.205-2.81 4.237 4.237 0 00-2.915-1.181v0zm-154.821 0h-9.874l-37.215-109.93h-34.049a4.242 4.242 0 00-2.937 1.169 3.912 3.912 0 00-1.217 2.822c0 1.058.438 2.073 1.217 2.821a4.242 4.242 0 002.937 1.169h10.215l-32.415 95.343a9.586 9.586 0 01-3.643 4.753 10.227 10.227 0 01-5.857 1.788h-2.723a4.24 4.24 0 00-2.938 1.169 3.91 3.91 0 00-1.216 2.821v0a3.91 3.91 0 001.216 2.822 4.245 4.245 0 002.938 1.169h31.018a4.242 4.242 0 002.937-1.169 3.912 3.912 0 001.217-2.822v0a3.915 3.915 0 00-1.24-2.779 4.249 4.249 0 00-2.914-1.146h-9.329l10.555-31.988h43.616l10.828 31.988h-10.01a4.245 4.245 0 00-2.938 1.169 3.914 3.914 0 00-1.216 2.822 3.91 3.91 0 001.216 2.821 4.24 4.24 0 002.938 1.169h38.883a4.24 4.24 0 002.938-1.169 3.91 3.91 0 001.216-2.821 3.914 3.914 0 00-1.216-2.822 4.245 4.245 0 00-2.938-1.169zm-80.389-40.884l18.625-56.29 19.033 56.29h-37.658z" stroke="#E7E1D9" stroke-width=".94" stroke-linecap="round" stroke-linejoin="round"/><path d="M257.804 140.085l-63.807-20.998-45.149 9.877-47.43-11.12V338.98l47.43 11.12 45.149-9.877 63.807 20.998V140.085z" stroke="#E7E1D9" stroke-width=".94" stroke-linecap="round" stroke-linejoin="round"/><path d="M101.418 143.812H87.254v226.076h170.551v-8.668m0-221.135l63.841-20.998 45.115 9.877 47.464-11.12V338.98l-47.464 11.12-45.115-9.877-63.841 20.998V140.085z" stroke="#E7E1D9" stroke-width=".94" stroke-linecap="round" stroke-linejoin="round"/><path d="M414.225 143.812h14.164v226.076H257.805v-8.668M87.252 143.812H26.136" stroke="#E7E1D9" stroke-width=".94" stroke-linecap="round" stroke-linejoin="round"/><path d="M258.043 590.796l-.238-220.907 170.789-.229" stroke="#E7E1D9" stroke-width=".94" stroke-linecap="round" stroke-linejoin="round"/><path d="M465.808 369.887h-37.454s-85.122 116.308-170.585 163.309c-132.041-81.769-170.55-163.309-170.55-163.309m341.17-226.075h61.083m-167.826-24.727V59.852m-127.65 59.233V59.852" stroke="#E7E1D9" stroke-width=".94" stroke-linecap="round" stroke-linejoin="round"/><path d="M366.76 350.098v19.624s-49.609 68.686-108.956 101.754c-62.343-33.231-108.956-101.754-108.956-101.754v-19.624" stroke="#E7E1D9" stroke-width=".94" stroke-linecap="round" stroke-linejoin="round"/></svg>