<svg display="none" xmlns="http://www.w3.org/2000/svg">

    <symbol id="phoneIcon" viewBox="0 0 18 18">
        <path fill-rule="evenodd" clip-rule="evenodd" d="M0.216881 5.03536C0.0737041 5.16208 -0.011667 5.35134 0.00129292 5.55664C0.181292 8.41421 1.54888 11.4857 4.02258 13.9594L4.03184 13.9685L4.04069 13.9775C6.51439 16.4512 9.5859 17.8188 12.4435 17.9988C12.6821 18.0138 12.8989 17.8962 13.0215 17.7094C13.0711 17.6728 13.118 17.6322 13.162 17.588L14.4352 16.315C14.8643 15.8857 15.0665 15.2795 14.9807 14.6786C14.9112 14.1925 14.8149 13.518 14.7388 12.9854C14.6281 12.2117 14.0616 11.5812 13.3042 11.3888C12.6669 11.2271 11.7981 11.0064 11.1938 10.8531C10.5334 10.6855 9.83358 10.8787 9.35283 11.3613C9.06504 11.6501 8.66369 12.0508 8.37713 12.3368C7.87066 11.9572 7.38106 11.5336 6.91471 11.0673C6.45494 10.6075 6.03693 10.1255 5.6615 9.6271L6.64193 8.64646C7.12269 8.16571 7.31482 7.46731 7.14758 6.8082L6.61128 4.69594C6.41894 3.9385 5.78843 3.37196 5.01474 3.26129L3.31081 3.01793C2.71898 2.93338 2.12138 3.12819 1.69288 3.54517C1.28865 3.9387 0.714502 4.49763 0.407989 4.79776C0.334138 4.86956 0.270161 4.94937 0.216881 5.03536V5.03536ZM12.2524 16.6796L13.5261 15.4058C13.6691 15.2628 13.7364 15.0606 13.7078 14.8604L13.4661 13.1672C13.429 12.9093 13.2402 12.6992 12.9878 12.635L10.8774 12.0992C10.6573 12.0434 10.424 12.1078 10.2637 12.2687C9.76035 12.7739 9.05372 13.4822 8.91425 13.6167C8.52236 13.9952 8.08934 13.7132 8.07884 13.706C7.35597 13.2077 6.65983 12.6307 6.00546 11.9763C5.35787 11.3288 4.78578 10.64 4.29124 9.92517C4.11454 9.66968 4.1456 9.32449 4.3653 9.10479L5.73289 7.73741C5.89314 7.57716 5.95711 7.34429 5.90136 7.12459L5.36507 5.01232C5.30089 4.75991 5.09085 4.57107 4.83289 4.53404L3.12896 4.29068C2.93168 4.2625 2.73255 4.3275 2.58979 4.46656C2.18638 4.85927 1.61347 5.41676 1.30757 5.71648L1.30655 5.71751C1.53509 8.22104 2.78809 10.9027 4.94089 13.0594C7.10026 15.2149 9.755 16.4541 12.2524 16.6796V16.6796Z"/>
        <path fill-rule="evenodd" clip-rule="evenodd" d="M9.46309 5.9654C10.8823 5.9654 12.0345 7.1176 12.0345 8.53682C12.0345 8.89147 12.3227 9.17967 12.6774 9.17967C13.0322 9.17967 13.3202 8.89147 13.3202 8.53682C13.3202 6.40789 11.592 4.67969 9.46309 4.67969C9.10844 4.67969 8.82024 4.96769 8.82024 5.32254C8.82024 5.67719 9.10844 5.9654 9.46309 5.9654V5.9654Z"/>
        <path fill-rule="evenodd" clip-rule="evenodd" d="M7.84886 3.69212C8.29423 3.56911 8.76325 3.50348 9.24771 3.50348C12.1446 3.50348 14.4965 5.85541 14.4965 8.75227C14.4965 9.17953 14.4455 9.59466 14.349 9.99231C14.2653 10.3373 14.4774 10.6849 14.8221 10.7687C15.1669 10.8524 15.5148 10.6403 15.5985 10.2955C15.7184 9.80058 15.7822 9.28383 15.7822 8.75227C15.7822 5.1459 12.8541 2.21777 9.24771 2.21777C8.64476 2.21777 8.06095 2.29965 7.50655 2.4529C7.16445 2.54733 6.96347 2.90177 7.05809 3.24367C7.15252 3.58577 7.50676 3.78655 7.84886 3.69212V3.69212Z"/>
        <path fill-rule="evenodd" clip-rule="evenodd" d="M6.80631 1.78868C7.62916 1.46386 8.52545 1.28571 9.4631 1.28571C13.4653 1.28571 16.7143 4.53475 16.7143 8.53691C16.7143 9.47455 16.5361 10.3708 16.2113 11.1937C16.0811 11.5239 16.2434 11.8974 16.5734 12.0277C16.9036 12.1579 17.2771 11.9956 17.4073 11.6656C17.7898 10.6965 18 9.64097 18 8.53691C18 3.82524 14.1748 0 9.4631 0C8.35903 0 7.30352 0.210239 6.3344 0.592661C6.00443 0.722877 5.84213 1.09645 5.97234 1.42662C6.10256 1.75659 6.47614 1.9189 6.80631 1.78868V1.78868Z"/>
    </symbol>

    <symbol id="burgerIcon" viewBox="0 0 22 22">
        <path d="M21.0833 5.5H0.916667C0.410406 5.5 0 5.91041 0 6.41667C0 6.92293 0.410406 7.33333 0.916667 7.33333H21.0833C21.5896 7.33333 22 6.92293 22 6.41667C22 5.91041 21.5896 5.5 21.0833 5.5Z"/>
        <path d="M21.0833 14.6665H0.916667C0.410406 14.6665 0 15.0769 0 15.5832C0 16.0894 0.410406 16.4998 0.916667 16.4998H21.0833C21.5896 16.4998 22 16.0894 22 15.5832C22 15.0769 21.5896 14.6665 21.0833 14.6665Z"/>
    </symbol>

    <symbol id="searchIcon" viewBox="0 0 22 22" fill="none" xmlns="http://www.w3.org/2000/svg">
        <path d="M21.7612 20.6091L15.8465 14.6941C17.1433 13.1393 17.9259 11.1413 17.9259 8.96294C17.9259 4.02069 13.9052 0 8.96294 0C4.02069 0 0 4.02069 0 8.96294C0 13.9052 4.02069 17.9259 8.96294 17.9259C11.1413 17.9259 13.1393 17.1433 14.6941 15.8465L20.6091 21.7614C20.7682 21.9205 20.9767 22.0002 21.1851 22.0002C21.3935 22.0002 21.6021 21.9205 21.7612 21.7614C22.0796 21.443 22.0796 20.9272 21.7612 20.6091V20.6091ZM1.62963 8.96294C1.62963 4.91943 4.91903 1.62963 8.96294 1.62963C13.0069 1.62963 16.2963 4.91943 16.2963 8.96294C16.2963 13.0065 13.0069 16.2963 8.96294 16.2963C4.91903 16.2963 1.62963 13.0065 1.62963 8.96294Z" fill="#80787A"/>
    </symbol>

    <symbol id="marker" viewBox="0 0 18 18">
        <path d="M14.3937 2.21364C11.4424 -0.73772 6.66531 -0.738037 3.71364 2.21364C0.762351 5.16488 0.761892 9.94206 3.71364 12.8937L8.65457 17.8347C8.87503 18.0551 9.2324 18.0551 9.45283 17.8347L14.3938 12.8937C17.345 9.94248 17.3455 5.16534 14.3937 2.21364V2.21364ZM13.5955 12.0955L9.05368 16.6373L4.51189 12.0955C2.00755 9.59118 2.00755 5.51626 4.51189 3.01192C7.01626 0.507622 11.091 0.507552 13.5955 3.01192C16.0998 5.51623 16.0998 9.59114 13.5955 12.0955Z"/>
        <path d="M9.05368 4.17773C7.18785 4.17773 5.67767 5.6876 5.67767 7.55371C5.67767 9.4195 7.18761 10.9297 9.05368 10.9297C10.9195 10.9297 12.4297 9.41974 12.4297 7.55371C12.4297 5.68791 10.9198 4.17773 9.05368 4.17773V4.17773ZM10.6426 9.14263C10.621 9.14263 10.0889 9.80075 9.05368 9.80075C7.81176 9.80075 6.8066 8.79577 6.8066 7.55371C6.8066 6.31182 7.81162 5.30666 9.05368 5.30666C11.0711 5.30666 12.0408 7.74449 10.6426 9.14263V9.14263Z"/>
    </symbol>

    <symbol id="caretRight" viewBox="0 0 12 12">
        <path d="M9.15924 6.00922C9.15938 6.10772 9.14004 6.20529 9.10232 6.29629C9.06461 6.38729 9.00927 6.46994 8.93949 6.53947L3.68949 11.7895C3.54804 11.9261 3.35859 12.0017 3.16194 12C2.96529 11.9983 2.77718 11.9194 2.63813 11.7803C2.49907 11.6413 2.42019 11.4532 2.41848 11.2565C2.41678 11.0599 2.49237 10.8704 2.62899 10.729L7.34836 6.00922L2.62899 1.28947C2.55736 1.22028 2.50022 1.13752 2.46091 1.04602C2.42161 0.954516 2.40092 0.856101 2.40005 0.756517C2.39919 0.656932 2.41816 0.558174 2.45587 0.466001C2.49358 0.373829 2.54927 0.29009 2.61969 0.21967C2.69011 0.149251 2.77385 0.09356 2.86602 0.0558493C2.9582 0.0181387 3.05696 -0.000837467 3.15654 2.7895e-05C3.25613 0.000893257 3.35454 0.0215837 3.44604 0.0608904C3.53755 0.100197 3.6203 0.157333 3.68949 0.228966L8.93949 5.47897C9.00927 5.5485 9.06461 5.63114 9.10232 5.72214C9.14004 5.81315 9.15938 5.91071 9.15924 6.00922V6.00922Z"/>
    </symbol>

    <symbol id="brandLogo" viewBox="0 0 14 16">
        <g clip-path="url(#clip0_1_153084)">
            <path d="M4.57461 6.96313H1.03215C0.622272 6.96313 0.271849 7.21635 0.127986 7.57488C0.0469821 7.71696 0 7.88123 0 8.05652C0 8.59488 0.436611 9.03132 0.974962 9.03132H4.51742C4.92779 9.03132 5.27805 8.77778 5.42191 8.4191C5.50275 8.27718 5.54957 8.11323 5.54957 7.93826C5.54957 7.39958 5.11296 6.96313 4.57461 6.96313Z"/>
            <path d="M14 7.93826C14 7.39958 13.5637 6.96313 13.0252 6.96313H9.48271C9.07267 6.96313 8.72257 7.21651 8.57839 7.57488C8.49754 7.71712 8.45056 7.88123 8.45056 8.05652C8.45056 8.59504 8.88701 9.03149 9.42552 9.03149H12.968C13.378 9.03149 13.7281 8.77811 13.8723 8.41975C13.9532 8.2775 14 8.11355 14 7.93826Z"/>
            <path d="M7.02711 9.42163C6.6169 9.42163 6.26664 9.67517 6.12262 10.0339C6.04194 10.1759 5.99512 10.3397 5.99512 10.5149V14.0575C5.99512 14.5957 6.4314 15.0323 6.96992 15.0323C7.38012 15.0323 7.73038 14.7787 7.87424 14.4201C7.95525 14.2781 8.00207 14.1142 8.00207 13.9392V10.3966C8.00207 9.85808 7.56546 9.42163 7.02711 9.42163Z"/>
            <path d="M7.02711 0.967773C6.6169 0.967773 6.26664 1.22132 6.12262 1.58C6.04194 1.72208 5.99512 1.88603 5.99512 2.06116V5.60362C5.99512 6.14181 6.4314 6.57842 6.96992 6.57842C7.38012 6.57842 7.73038 6.32472 7.87424 5.9662C7.95525 5.82428 8.00207 5.66033 8.00207 5.48536V1.9429C8.00207 1.40438 7.56546 0.967773 7.02711 0.967773Z"/>
        </g>
        <defs>
            <clipPath id="clip0_1_153084">
                <rect width="14" height="14.0646" fill="white" transform="translate(0 0.967773)"/>
            </clipPath>
        </defs>
    </symbol>

    <symbol id="arrowLeft" viewBox="0 0 18 18">
        <path d="M17.1444 9.48089H2.79105L5.48011 12.17C6.25252 12.9424 5.09391 14.1009 4.3215 13.3285L1.87248 10.8757L0.237636 9.2383C-0.0792118 8.91956 -0.0792118 8.40479 0.237636 8.08606L4.3215 3.99742C4.47688 3.83776 4.69075 3.74818 4.91358 3.75003C5.64912 3.75012 6.01009 4.64602 5.48011 5.15607L2.78467 7.84517H17.1867C18.3195 7.90137 18.2349 9.53728 17.1444 9.48089V9.48089Z"/>
    </symbol>

    <symbol id="moreIcon" viewBox="0 0 16 16">
        <circle cx="2.66665" cy="7.99984" r="1.33333"/>
        <circle cx="7.99996" cy="7.99984" r="1.33333"/>
        <ellipse cx="13.3333" cy="7.99984" rx="1.33333" ry="1.33333"/>
    </symbol>

</svg>
