<svg display="none" xmlns="http://www.w3.org/2000/svg">

    <symbol id="phoneIcon" viewBox="0 0 24 24">
        <path fill-rule="evenodd" clip-rule="evenodd" d="M0.289174 6.71366C0.0982721 6.88262 -0.015556 7.13497 0.0017239 7.4087C0.241723 11.2188 2.06517 15.3141 5.36344 18.6124L5.37579 18.6245L5.38758 18.6366C8.68585 21.9348 12.7812 23.7583 16.5913 23.9983C16.9095 24.0183 17.1986 23.8614 17.362 23.6124C17.4281 23.5635 17.4907 23.5095 17.5494 23.4505L19.2469 21.7532C19.8191 21.1808 20.0887 20.3725 19.9743 19.5713C19.8816 18.9232 19.7532 18.0238 19.6518 17.3137C19.5042 16.2821 18.7488 15.4414 17.7389 15.185C16.8892 14.9694 15.7309 14.6751 14.925 14.4707C14.0446 14.2472 13.1114 14.5047 12.4704 15.1482C12.0867 15.5333 11.5516 16.0676 11.1695 16.4489C10.4942 15.9428 9.84142 15.378 9.21961 14.7562C8.60659 14.1432 8.04924 13.5006 7.54867 12.836L8.85591 11.5285C9.49692 10.8875 9.7531 9.95626 9.5301 9.07745L8.81504 6.26109C8.55859 5.25118 7.7179 4.4958 6.68632 4.34823L4.41442 4.02375C3.6253 3.91102 2.8285 4.17077 2.25717 4.72675C1.7182 5.25145 0.952669 5.99668 0.543985 6.39687C0.445517 6.49259 0.360214 6.59901 0.289174 6.71366ZM16.3365 22.2393L18.0349 20.5409C18.2255 20.3503 18.3152 20.0807 18.277 19.8138L17.9548 17.5561C17.9054 17.2122 17.6536 16.9321 17.3171 16.8466L14.5032 16.1321C14.2097 16.0577 13.8986 16.1436 13.685 16.3581C13.0138 17.0317 12.0716 17.9761 11.8857 18.1555C11.3631 18.6601 10.7858 18.2841 10.7718 18.2745C9.80795 17.6102 8.87978 16.8408 8.00727 15.9683C7.14383 15.1049 6.38104 14.1866 5.72166 13.2334C5.48605 12.8928 5.52747 12.4325 5.8204 12.1396L7.64385 10.3164C7.85751 10.1027 7.94282 9.79224 7.86849 9.4993L7.15343 6.68294C7.06785 6.3464 6.7878 6.0946 6.44385 6.04523L4.17195 5.72075C3.90891 5.68318 3.6434 5.76985 3.45305 5.95527C2.91518 6.47888 2.15129 7.22219 1.74343 7.62182L1.74206 7.62319C2.04679 10.9612 3.71746 14.5368 6.58785 17.4124C9.46702 20.2864 13.0067 21.9387 16.3365 22.2393Z"/>
        <path fill-rule="evenodd" clip-rule="evenodd" d="M12.6175 7.95398C14.5097 7.95398 16.046 9.49025 16.046 11.3825C16.046 11.8554 16.4303 12.2397 16.9032 12.2397C17.3763 12.2397 17.7603 11.8554 17.7603 11.3825C17.7603 8.54397 15.456 6.2397 12.6175 6.2397C12.1446 6.2397 11.7603 6.6237 11.7603 7.09684C11.7603 7.56971 12.1446 7.95398 12.6175 7.95398Z"/>
        <path fill-rule="evenodd" clip-rule="evenodd" d="M10.4651 4.92286C11.059 4.75884 11.6843 4.67134 12.3303 4.67134C16.1928 4.67134 19.3287 7.80724 19.3287 11.6697C19.3287 12.2394 19.2606 12.7929 19.132 13.3231C19.0204 13.7831 19.3031 14.2466 19.7628 14.3583C20.2225 14.4699 20.6864 14.1871 20.798 13.7274C20.9579 13.0675 21.0429 12.3785 21.0429 11.6697C21.0429 6.86123 17.1388 2.95706 12.3303 2.95706C11.5263 2.95706 10.7479 3.06623 10.0087 3.27057C9.5526 3.39647 9.28462 3.86906 9.41079 4.32492C9.53669 4.78106 10.009 5.04876 10.4651 4.92286Z"/>
        <path fill-rule="evenodd" clip-rule="evenodd" d="M9.07506 2.38491C10.1722 1.95181 11.3673 1.71428 12.6175 1.71428C17.9537 1.71428 22.2857 6.04633 22.2857 11.3825C22.2857 12.6327 22.0482 13.8278 21.6151 14.9249C21.4415 15.3652 21.6579 15.8633 22.0978 16.0369C22.5381 16.2105 23.0362 15.9941 23.2098 15.5541C23.7197 14.262 24 12.8546 24 11.3825C24 5.10033 18.8997 0 12.6175 0C11.1454 0 9.73801 0.280319 8.44585 0.790214C8.0059 0.963837 7.78949 1.46194 7.96311 1.90217C8.13674 2.34212 8.63484 2.55853 9.07506 2.38491Z"/>
    </symbol>


    <symbol id="burgerIcon" viewBox="0 0 22 22">
        <path d="M21.0833 5.5H0.916667C0.410406 5.5 0 5.91041 0 6.41667C0 6.92293 0.410406 7.33333 0.916667 7.33333H21.0833C21.5896 7.33333 22 6.92293 22 6.41667C22 5.91041 21.5896 5.5 21.0833 5.5Z"/>
        <path d="M21.0833 14.6665H0.916667C0.410406 14.6665 0 15.0769 0 15.5832C0 16.0894 0.410406 16.4998 0.916667 16.4998H21.0833C21.5896 16.4998 22 16.0894 22 15.5832C22 15.0769 21.5896 14.6665 21.0833 14.6665Z"/>
    </symbol>

    <symbol id="searchIcon" viewBox="0 0 22 22" fill="none" xmlns="http://www.w3.org/2000/svg">
        <path d="M21.7612 20.6091L15.8465 14.6941C17.1433 13.1393 17.9259 11.1413 17.9259 8.96294C17.9259 4.02069 13.9052 0 8.96294 0C4.02069 0 0 4.02069 0 8.96294C0 13.9052 4.02069 17.9259 8.96294 17.9259C11.1413 17.9259 13.1393 17.1433 14.6941 15.8465L20.6091 21.7614C20.7682 21.9205 20.9767 22.0002 21.1851 22.0002C21.3935 22.0002 21.6021 21.9205 21.7612 21.7614C22.0796 21.443 22.0796 20.9272 21.7612 20.6091V20.6091ZM1.62963 8.96294C1.62963 4.91943 4.91903 1.62963 8.96294 1.62963C13.0069 1.62963 16.2963 4.91943 16.2963 8.96294C16.2963 13.0065 13.0069 16.2963 8.96294 16.2963C4.91903 16.2963 1.62963 13.0065 1.62963 8.96294Z" fill="#80787A"/>
    </symbol>

    <symbol id="marker" viewBox="0 0 18 18">
        <path d="M14.3937 2.21364C11.4424 -0.73772 6.66531 -0.738037 3.71364 2.21364C0.762351 5.16488 0.761892 9.94206 3.71364 12.8937L8.65457 17.8347C8.87503 18.0551 9.2324 18.0551 9.45283 17.8347L14.3938 12.8937C17.345 9.94248 17.3455 5.16534 14.3937 2.21364V2.21364ZM13.5955 12.0955L9.05368 16.6373L4.51189 12.0955C2.00755 9.59118 2.00755 5.51626 4.51189 3.01192C7.01626 0.507622 11.091 0.507552 13.5955 3.01192C16.0998 5.51623 16.0998 9.59114 13.5955 12.0955Z"/>
        <path d="M9.05368 4.17773C7.18785 4.17773 5.67767 5.6876 5.67767 7.55371C5.67767 9.4195 7.18761 10.9297 9.05368 10.9297C10.9195 10.9297 12.4297 9.41974 12.4297 7.55371C12.4297 5.68791 10.9198 4.17773 9.05368 4.17773V4.17773ZM10.6426 9.14263C10.621 9.14263 10.0889 9.80075 9.05368 9.80075C7.81176 9.80075 6.8066 8.79577 6.8066 7.55371C6.8066 6.31182 7.81162 5.30666 9.05368 5.30666C11.0711 5.30666 12.0408 7.74449 10.6426 9.14263V9.14263Z"/>
    </symbol>

    <symbol id="caretRight" viewBox="0 0 12 12">
        <path d="M9.15924 6.00922C9.15938 6.10772 9.14004 6.20529 9.10232 6.29629C9.06461 6.38729 9.00927 6.46994 8.93949 6.53947L3.68949 11.7895C3.54804 11.9261 3.35859 12.0017 3.16194 12C2.96529 11.9983 2.77718 11.9194 2.63813 11.7803C2.49907 11.6413 2.42019 11.4532 2.41848 11.2565C2.41678 11.0599 2.49237 10.8704 2.62899 10.729L7.34836 6.00922L2.62899 1.28947C2.55736 1.22028 2.50022 1.13752 2.46091 1.04602C2.42161 0.954516 2.40092 0.856101 2.40005 0.756517C2.39919 0.656932 2.41816 0.558174 2.45587 0.466001C2.49358 0.373829 2.54927 0.29009 2.61969 0.21967C2.69011 0.149251 2.77385 0.09356 2.86602 0.0558493C2.9582 0.0181387 3.05696 -0.000837467 3.15654 2.7895e-05C3.25613 0.000893257 3.35454 0.0215837 3.44604 0.0608904C3.53755 0.100197 3.6203 0.157333 3.68949 0.228966L8.93949 5.47897C9.00927 5.5485 9.06461 5.63114 9.10232 5.72214C9.14004 5.81315 9.15938 5.91071 9.15924 6.00922V6.00922Z"/>
    </symbol>

    <symbol id="brandLogo" viewBox="0 0 14 16">
        <g clip-path="url(#clip0_1_153084)">
            <path d="M4.57461 6.96313H1.03215C0.622272 6.96313 0.271849 7.21635 0.127986 7.57488C0.0469821 7.71696 0 7.88123 0 8.05652C0 8.59488 0.436611 9.03132 0.974962 9.03132H4.51742C4.92779 9.03132 5.27805 8.77778 5.42191 8.4191C5.50275 8.27718 5.54957 8.11323 5.54957 7.93826C5.54957 7.39958 5.11296 6.96313 4.57461 6.96313Z"/>
            <path d="M14 7.93826C14 7.39958 13.5637 6.96313 13.0252 6.96313H9.48271C9.07267 6.96313 8.72257 7.21651 8.57839 7.57488C8.49754 7.71712 8.45056 7.88123 8.45056 8.05652C8.45056 8.59504 8.88701 9.03149 9.42552 9.03149H12.968C13.378 9.03149 13.7281 8.77811 13.8723 8.41975C13.9532 8.2775 14 8.11355 14 7.93826Z"/>
            <path d="M7.02711 9.42163C6.6169 9.42163 6.26664 9.67517 6.12262 10.0339C6.04194 10.1759 5.99512 10.3397 5.99512 10.5149V14.0575C5.99512 14.5957 6.4314 15.0323 6.96992 15.0323C7.38012 15.0323 7.73038 14.7787 7.87424 14.4201C7.95525 14.2781 8.00207 14.1142 8.00207 13.9392V10.3966C8.00207 9.85808 7.56546 9.42163 7.02711 9.42163Z"/>
            <path d="M7.02711 0.967773C6.6169 0.967773 6.26664 1.22132 6.12262 1.58C6.04194 1.72208 5.99512 1.88603 5.99512 2.06116V5.60362C5.99512 6.14181 6.4314 6.57842 6.96992 6.57842C7.38012 6.57842 7.73038 6.32472 7.87424 5.9662C7.95525 5.82428 8.00207 5.66033 8.00207 5.48536V1.9429C8.00207 1.40438 7.56546 0.967773 7.02711 0.967773Z"/>
        </g>
        <defs>
            <clipPath id="clip0_1_153084">
                <rect width="14" height="14.0646" fill="white" transform="translate(0 0.967773)"/>
            </clipPath>
        </defs>
    </symbol>

    <symbol id="arrowLeft" viewBox="0 0 18 18">
        <path d="M17.1444 9.48089H2.79105L5.48011 12.17C6.25252 12.9424 5.09391 14.1009 4.3215 13.3285L1.87248 10.8757L0.237636 9.2383C-0.0792118 8.91956 -0.0792118 8.40479 0.237636 8.08606L4.3215 3.99742C4.47688 3.83776 4.69075 3.74818 4.91358 3.75003C5.64912 3.75012 6.01009 4.64602 5.48011 5.15607L2.78467 7.84517H17.1867C18.3195 7.90137 18.2349 9.53728 17.1444 9.48089V9.48089Z"/>
    </symbol>

    <symbol id="moreIcon" viewBox="0 0 16 16">
        <circle cx="2.66665" cy="7.99984" r="1.33333"/>
        <circle cx="7.99996" cy="7.99984" r="1.33333"/>
        <ellipse cx="13.3333" cy="7.99984" rx="1.33333" ry="1.33333"/>
    </symbol>

</svg>
