<svg width="244" height="138" fill="none" xmlns="http://www.w3.org/2000/svg"><g clip-path="url(#clip0_75_33803)"><path d="M52.2 33l13.901 23.867 26.994 5.845-18.403 20.596 2.783 27.48L52.2 99.65l-25.275 11.138 2.782-27.48-18.402-20.596 26.994-5.845L52.2 33zm114 0l13.901 23.867 26.994 5.845-18.403 20.596 2.783 27.48L166.2 99.65l-25.275 11.138 2.783-27.48-18.403-20.596 26.994-5.845L166.2 33z" fill="#F8F7F7"/><path d="M109.7 0l24.408 41.906 47.397 10.263-32.312 36.163 4.885 48.249-44.378-19.556-44.378 19.556 4.885-48.25L37.895 52.17l47.397-10.263L109.7 0z" fill="#E7E1D9"/></g><defs><clipPath id="clip0_75_33803"><path fill="#fff" transform="translate(.2)" d="M0 0h243.2v138H0z"/></clipPath></defs></svg>