<svg width="61" height="60" fill="none" xmlns="http://www.w3.org/2000/svg"><path fill-rule="evenodd" clip-rule="evenodd" d="M.666 2.143C.666.959 1.626 0 2.809 0h7.143a2.143 2.143 0 110 4.286h-5v5a2.143 2.143 0 11-4.286 0V2.143zm60 0C60.666.959 59.706 0 58.523 0H51.38a2.143 2.143 0 100 4.286h5v5a2.143 2.143 0 104.286 0V2.143zm-60 55.714c0 1.184.96 2.143 2.143 2.143h7.143a2.143 2.143 0 000-4.286h-5v-5a2.143 2.143 0 10-4.286 0v7.143zm60 0c0 1.184-.96 2.143-2.143 2.143H51.38a2.143 2.143 0 110-4.286h5v-5a2.143 2.143 0 114.286 0v7.143z" fill="#B36FDE"/><path d="M50.666 23.389h-4.833c.086-.774.089-1.56.004-2.343-.494-4.571-4.047-8.395-8.54-9.201-2.311-.415-4.59-.096-6.631.921-2.04-1.017-4.32-1.336-6.632-.921-4.49.805-8.044 4.628-8.539 9.201-.085.783-.082 1.57.004 2.343h-4.833v2.344h5.367c.083.235.174.467.273.695.936 2.148 1.424 4.252 1.448 6.254.047 3.848.196 6.421.443 7.65a8.069 8.069 0 002.754 4.595 8.3 8.3 0 005.008 1.9l1.172.038.038-1.171c.23-7.049 2.366-10.586 3.497-10.586 1.13 0 3.266 3.537 3.497 10.586l.039 1.17 1.17-.038a8.3 8.3 0 005.009-1.899 8.068 8.068 0 002.754-4.596c.247-1.228.396-3.801.443-7.649.025-2.002.512-4.106 1.448-6.254.1-.228.19-.46.273-.695h5.367v-2.344zm-32.84-2.091c.38-3.52 3.165-6.526 6.622-7.146 3.635-.653 5.877 1.165 6.218 1.298.334-.13 2.594-1.949 6.218-1.298 3.457.62 6.242 3.626 6.623 7.146a8.392 8.392 0 01-.036 2.09h-6.946v-2.343H24.807v2.344H17.86a8.4 8.4 0 01-.036-2.091zm16.356 2.09v2.345H27.15v-2.344h7.032zm7.052 9.266c-.044 3.598-.184 6.16-.397 7.215-.453 2.25-2.19 3.966-4.396 4.468-.196-2.832-.723-5.436-1.515-7.437-1.353-3.419-3.063-4.136-4.26-4.136-1.197 0-2.907.717-4.26 4.136-.792 2-1.32 4.605-1.515 7.437-2.207-.502-3.943-2.217-4.396-4.468-.213-1.055-.354-3.617-.398-7.215-.027-2.24-.546-4.568-1.54-6.921h6.25v2.343h11.718v-2.343h6.25c-.994 2.353-1.513 4.68-1.54 6.92z" fill="#80787A"/></svg>