<svg width="22" height="22" fill="none" xmlns="http://www.w3.org/2000/svg"><path fill-rule="evenodd" clip-rule="evenodd" d="M0 .786C0 .352.352 0 .786 0h2.619a.786.786 0 110 1.571H1.57v1.834a.786.786 0 01-1.571 0V.785zm22 0A.786.786 0 0021.214 0h-2.619a.786.786 0 000 1.571h1.834v1.834a.786.786 0 101.571 0V.785zM0 21.214c0 .434.352.786.786.786h2.619a.786.786 0 000-1.571H1.57v-1.834a.786.786 0 00-1.571 0v2.62zm22 0a.786.786 0 01-.786.786h-2.619a.786.786 0 010-1.571h1.834v-1.834a.786.786 0 111.571 0v2.62z" fill="#B36FDE"/><path d="M12.375 6.417h-5.5a.459.459 0 000 .916h5.5a.458.458 0 000-.917zM10.542 8.25H6.875a.458.458 0 000 .917h3.667a.459.459 0 000-.917z" fill="#80787A"/><path d="M13.75 3.667H5.5A1.835 1.835 0 003.667 5.5v9.166a.458.458 0 00.751.352l2.623-2.185h6.71A1.835 1.835 0 0015.582 11V5.5a1.835 1.835 0 00-1.833-1.833zM14.667 11c0 .505-.41.916-.917.916H6.875a.458.458 0 00-.293.107l-1.999 1.665V5.5c0-.505.411-.917.917-.917h8.25c.506 0 .917.412.917.917V11z" fill="#80787A"/><path d="M16.5 7.333a.459.459 0 000 .917c.506 0 .917.411.917.916v7.754l-1.548-1.237a.462.462 0 00-.285-.1H9.167a.918.918 0 01-.917-.917v-.458a.458.458 0 00-.917 0v.458c0 1.011.823 1.834 1.834 1.834h6.255l2.166 1.733a.463.463 0 00.486.055.46.46 0 00.26-.413V9.166A1.835 1.835 0 0016.5 7.333z" fill="#80787A"/></svg>