<svg width="773" height="778" fill="none" xmlns="http://www.w3.org/2000/svg"><g clip-path="url(#clip0_316_211929)" stroke="#E7E1D9" stroke-miterlimit="10" stroke-linecap="round" stroke-linejoin="round"><path d="M250.162 109.801s-34.837.098-39.099 61.122M483.87 276.644c0-11.917-9.267-20.727-63.836-24.873l-54.573-4.146m162.684 181.861l13.012-118.658c-11.578 10.065-23.825 12.463-70.549 12.463-42.418 0-48.055-2.675-48.055-2.675m130.805 162.739s.601-10.232-.011-15.407l-128.811-.096c-34.776-.028-34.612 35.101-36.27 73.256-3.642 83.928 2.662 117.318 80.754 139.987M298.562 251.771s-5.651 7.835 49.219 15.766M550.3 245.55c-1.032 9.844-4.119 10.638-25.227 6.736-14.414-4.146-18.179-4.675-17.506-27.463.921-31.136 1.008-39.897 3.586-53.887 2.57-13.99 13.657-10.362 22.283-7.771 11.713 4.663 18.41 9.844 19.952 16.58 1.545 6.737-2.06 55.961-3.088 65.805zM94.656 265.143l72.093 6.771s1.529-32.607 8.73-47.611c7.197-15.007 9.769-19.665 48.389-22.228 38.612-2.564 76.897-4.056 76.897-4.056m-108.018 8.473l-63.673-24.407"/><path d="M566.163 118.715s-44.195-4.788-85.895 26.3c-41.697 31.092-37.685 109.038-37.685 109.038m-275.827 17.923l170.919-4.174c27.804-1.784 92.273-7.402 84.369 70.496-5.598 55.183-8.709 82.281-8.709 82.281m-81.31 261.08c-58.179-23.666-71.214-37.539-127.257-46.678-17.076-2.782-56.275-7.558-56.275-7.558-44.019-6.997-74.783-13.698-86.492-66.843-12.16-55.195 27.063-203.677 33.72-237.287 11.283-56.907 40.486-51.766 66.282-51.766"/><path d="M47.33 270.41s3.088 10.361 25.74 10.361h43.108m375.397 248.646s-56.143 1.504-112.748-5.613c-82.385-10.366-115.233-48.366-115.233-48.366m227.981 140.327c-79.796 10.105-109.768 14.03-178.643-10.105-45.896-14.772-56.051-31.176-56.051-31.176m-43.088 62.082c-6.342 38.53-97.604 53.041-174.177-12.904C-12.2 579.038-.539 518.614 5.641 467.838c6.179-50.78 37.593-51.076 68.238-51.076 0 0-16.502-.181-21.904 55.892-5.407 56.065-16.22 87.185 25.868 126.421 0 0-24.29 22.651-59.533.509"/><path d="M512.71 71.45c-70.015 0-114.803-.005-147.237 24.872l-115.322 13.473s5.152-13.473-5.147-13.473c-10.295 0-18.534-1.039-65.895 6.732-47.366 7.775-112.234 30.571-120.473 87.57-8.235 56.995-11.323 79.795-11.323 79.795l47.362-5.181s3.092-26.946 5.148-51.814c2.059-24.873 24.713-33.165 56.632-36.273 31.92-3.108 100.904-12.434 121.497-12.434 20.593 0 28.832 33.161 20.593 87.048l66.928-4.146s-7.211-59.068 18.529-101.556c25.745-42.487 79.286-71.506 128.708-74.614zm0 0c33.976 3.107 56.633 22.799 55.601 74.613-.674 33.955-4.004 71.021-6.215 92.546-1.112 10.794 5.247 20.951 15.406 24.6l43.322 17.575-21.625 200.004s-67.955 3.629-85.975 4.663c-18.02 1.035-21.621 8.288-21.621 31.088v110.887c0 38.858-30.375 73.058-69.502 73.058-39.123 0-99.034-10.361-140.548-54.794-28.091-30.069-30.696-111.793-21.816-153.113 9.844-45.808 18.729-73.448 44.987-74.486 26.255-1.035 176.58 5.18 193.058 5.18 25.741 0 48.904 13.991 55.601 44.561l15.442-172.023-84.943-19.171c3.087 15.024-11.327 18.132-11.327 18.132l-56.792-1.227"/><path d="M365.466 96.313c-24.712 20.465-50.967 40.675-57.919 89.943-4.813 21.4-9.008 65.504-9.008 65.504m254.841-72.014l-43.89 2.346m59.682-47.336s97.906 29.12 105.521 114.311c7.611 85.192-13.343 136.496-20.385 195.551-7.042 59.055-12.589 153.848-69.096 195.107-40.245 27.247-63.113 35.725-108.304 31.559"/><path d="M507.491 672.305c50.266-.585 128.261-17.683 152.201-107.065 23.94-89.378 46.334-229.019 39.386-287.83-6.948-58.812-50.513-105.345-90.381-124.047M271.274 269.418s33.454-7.294 27.111 46.894c-6.697 57.212-16.374 113.176-16.374 113.176m259.146-118.64l-68.614-16.064M334.04 418.258s27.84.702 80.628 10.373c58.82 10.774 77.035 43.097 77.035 81.178m-.128 19.664c72.557 2.033 101.62-12.967 107.632-48.686M483.87 276.629l-93.609-4.667m-316.426-4.447s1.873-65.179 14.952-106.789c13.079-41.609 52.613-48.71 52.613-48.71m14.904 516.375s-4.933 36.137-44.22 35.092"/></g><defs><clipPath id="clip0_316_211929"><path fill="#fff" d="M0 0h773v778H0z"/></clipPath></defs></svg>