<svg width="780" height="779" fill="none" xmlns="http://www.w3.org/2000/svg"><path d="M390.12 471.891c-29.987 0-54.457 24.43-54.457 54.368v197.357c0 29.939 24.47 54.369 54.457 54.369 29.988 0 54.458-24.43 54.458-54.369V526.259c0-30.178-24.47-54.368-54.458-54.368z" stroke="#E7E1D9" stroke-width=".939" stroke-miterlimit="10" stroke-linecap="round" stroke-linejoin="round"/><path d="M433.063 756.425l-42.942-57.722-42.943 57.722v.24m-.24-263.462l43.182 57.483 43.182-57.483M390.12 698.929V550.672M779 389.494c0-29.939-24.47-54.369-54.458-54.369H526.864c-29.988 0-54.458 24.43-54.458 54.369s24.47 54.369 54.458 54.369h197.678c30.228 0 54.458-24.43 54.458-54.369z" stroke="#E7E1D9" stroke-width=".939" stroke-miterlimit="10" stroke-linecap="round" stroke-linejoin="round"/><path d="M494.237 432.362l57.576-42.873-57.576-42.872h-.48m263.892-.242l-57.576 43.112 57.576 43.112m-206.075-43.13h148.499m-392.479.025c0-29.939-24.47-54.369-54.458-54.369H55.458C25.47 335.125 1 359.555 1 389.494s24.47 54.369 54.458 54.369h197.678c29.988 0 54.458-24.43 54.458-54.369z" stroke="#E7E1D9" stroke-width=".939" stroke-miterlimit="10" stroke-linecap="round" stroke-linejoin="round"/><path d="M22.591 432.362l57.576-42.873-57.576-42.872h-.24m263.892-.242l-57.577 43.112 57.577 43.112m-206.076-43.13h148.259M390.12 1c-29.987 0-54.457 24.43-54.457 54.369v197.356c0 29.939 24.47 54.369 54.457 54.369 29.988 0 54.458-24.43 54.458-54.369V55.369C444.578 25.43 420.108 1 390.12 1z" stroke="#E7E1D9" stroke-width=".939" stroke-miterlimit="10" stroke-linecap="round" stroke-linejoin="round"/><path d="M433.063 285.545l-42.942-57.483-42.943 57.483v.239m-.24-263.464l43.182 57.722 43.182-57.722M390.12 228.049V80.031" stroke="#E7E1D9" stroke-width=".939" stroke-miterlimit="10" stroke-linecap="round" stroke-linejoin="round"/></svg>