<svg width="17" height="16" fill="none" xmlns="http://www.w3.org/2000/svg"><path d="M16.565 7.454c-.143-.195-3.549-4.787-7.898-4.787-4.35 0-7.756 4.592-7.899 4.787a.528.528 0 000 .623c.143.195 3.549 4.788 7.899 4.788s7.755-4.593 7.898-4.788a.528.528 0 000-.623zM8.667 11.81c-3.204 0-5.98-3.048-6.801-4.045.82-.997 3.59-4.043 6.8-4.043 3.204 0 5.98 3.047 6.801 4.044-.82.997-3.59 4.044-6.8 4.044z" fill="#80787A"/><path d="M8.667 4.6a3.168 3.168 0 00-3.165 3.166 3.168 3.168 0 003.165 3.165 3.168 3.168 0 003.164-3.165A3.168 3.168 0 008.667 4.6zm0 5.276a2.112 2.112 0 01-2.11-2.11c0-1.164.946-2.11 2.11-2.11 1.163 0 2.11.946 2.11 2.11 0 1.163-.947 2.11-2.11 2.11z" fill="#80787A"/></svg>