<svg width="16" height="16" fill="none" xmlns="http://www.w3.org/2000/svg"><path d="M15.898 7.456C15.755 7.26 12.35 2.668 8 2.668S.244 7.26.102 7.455a.528.528 0 000 .623C.244 8.274 3.65 12.866 8 12.866s7.755-4.592 7.898-4.788a.527.527 0 000-.622zM8 11.81c-3.204 0-5.98-3.048-6.8-4.044.82-.998 3.589-4.044 6.8-4.044 3.204 0 5.979 3.047 6.8 4.044-.82.997-3.59 4.044-6.8 4.044z" fill="#80787A"/><path d="M8 4.602a3.168 3.168 0 00-3.165 3.164A3.169 3.169 0 008 10.931a3.169 3.169 0 003.165-3.165A3.169 3.169 0 008 4.602zm0 5.274a2.112 2.112 0 01-2.11-2.11c0-1.163.947-2.11 2.11-2.11 1.163 0 2.11.947 2.11 2.11 0 1.164-.947 2.11-2.11 2.11z" fill="#80787A"/></svg>