<svg width="16" height="16" fill="none" xmlns="http://www.w3.org/2000/svg"><path d="M15.898 7.454C15.755 7.26 12.35 2.667 8 2.667S.244 7.259.102 7.454a.528.528 0 000 .623C.244 8.272 3.65 12.865 8 12.865s7.755-4.593 7.898-4.788a.527.527 0 000-.623zM8 11.81c-3.204 0-5.98-3.048-6.8-4.045.82-.997 3.589-4.043 6.8-4.043 3.204 0 5.979 3.047 6.8 4.044-.82.997-3.59 4.044-6.8 4.044z" fill="#80787A"/><path d="M8 4.6a3.168 3.168 0 00-3.164 3.166A3.168 3.168 0 008 10.93a3.168 3.168 0 003.165-3.165A3.168 3.168 0 008 4.6zm0 5.276a2.112 2.112 0 01-2.11-2.11c0-1.164.947-2.11 2.11-2.11 1.164 0 2.11.946 2.11 2.11 0 1.163-.946 2.11-2.11 2.11z" fill="#80787A"/></svg>