<svg width="18" height="19" fill="none" xmlns="http://www.w3.org/2000/svg"><path d="M17.48 13.303a1.192 1.192 0 00-.058-.112c-.297-.535-.865-1.193-1.704-1.973l-.018-.017-.009-.01-.009-.008h-.009c-.38-.363-.622-.607-.723-.732-.185-.238-.226-.479-.125-.723.071-.185.34-.574.803-1.17.244-.315.438-.567.58-.758 1.03-1.369 1.476-2.243 1.34-2.624l-.054-.089c-.036-.054-.128-.103-.276-.147a1.405 1.405 0 00-.572-.023l-2.57.018a.334.334 0 00-.179.005l-.116.027-.045.022-.035.027a.396.396 0 00-.098.093.612.612 0 00-.09.157 14.61 14.61 0 01-.955 2.008 19 19 0 01-.607.96c-.184.27-.339.47-.464.597-.125.128-.238.23-.339.308-.101.078-.178.11-.232.098a6.539 6.539 0 01-.152-.035.594.594 0 01-.2-.219.98.98 0 01-.103-.348 3.854 3.854 0 01-.031-.362 7.56 7.56 0 01.004-.428c.006-.185.01-.31.01-.375 0-.226.003-.472.012-.736l.023-.63c.006-.154.009-.318.009-.49 0-.173-.01-.308-.032-.407a1.388 1.388 0 00-.093-.285.482.482 0 00-.183-.214 1.03 1.03 0 00-.3-.121 5.94 5.94 0 00-1.204-.116c-1.107-.012-1.818.06-2.133.214a1.202 1.202 0 00-.34.268c-.107.13-.122.202-.044.214.357.054.61.182.758.384l.054.107c.042.077.083.214.125.41.042.197.069.414.08.652.03.435.03.806 0 1.116-.03.31-.058.55-.084.723a1.447 1.447 0 01-.228.616.154.154 0 01-.045.044.669.669 0 01-.24.045c-.084 0-.185-.042-.304-.125a2.141 2.141 0 01-.37-.344 4.593 4.593 0 01-.434-.611 10.98 10.98 0 01-.5-.928l-.142-.26a20.08 20.08 0 01-.366-.727 14.026 14.026 0 01-.41-.924.588.588 0 00-.215-.285l-.044-.027a.948.948 0 00-.348-.134L1 4.917c-.25 0-.42.057-.509.17l-.036.053a.289.289 0 00-.026.143.71.71 0 00.053.24c.357.84.745 1.65 1.165 2.429.42.78.784 1.407 1.093 1.883.31.476.625.925.946 1.348.322.422.534.693.638.812.105.119.186.208.246.268l.223.214c.143.143.353.314.63.513.276.2.583.396.919.59.336.193.727.35 1.173.472.447.122.881.171 1.304.148h1.026c.208-.018.366-.084.473-.197l.036-.045a.59.59 0 00.067-.165.906.906 0 00.03-.245 2.942 2.942 0 01.059-.692 1.82 1.82 0 01.152-.464 1.144 1.144 0 01.343-.392.595.595 0 01.072-.032c.142-.047.31-.001.504.139.193.14.375.312.545.518.17.205.373.435.61.691a4.2 4.2 0 00.626.571l.178.108c.12.071.274.137.464.196a1 1 0 00.5.045l2.285-.036c.226 0 .402-.037.527-.112.125-.074.199-.156.223-.245a.691.691 0 00.004-.304 1.12 1.12 0 00-.063-.236z" fill="#80787A"/></svg>