<svg width="33" height="33" fill="none" xmlns="http://www.w3.org/2000/svg"><path d="M13.363 11.082C6.578 11.082 1 15.747 1 21.482c0 2.293.89 4.623 2.52 6.428l-2.303 2.632a.877.877 0 00.662 1.457h12.363c5.01 0 11.484-4.313 11.484-10.517 0-5.735-5.578-10.4-12.363-10.4zM8.031 23.093a1.76 1.76 0 01-1.758-1.757 1.76 1.76 0 011.758-1.758 1.76 1.76 0 011.758 1.758 1.76 1.76 0 01-1.758 1.757zm5.332 0a1.76 1.76 0 01-1.758-1.757 1.76 1.76 0 011.758-1.758 1.76 1.76 0 011.758 1.758 1.76 1.76 0 01-1.758 1.757zm5.332 0a1.76 1.76 0 01-1.758-1.757 1.76 1.76 0 011.758-1.758 1.76 1.76 0 011.758 1.758 1.76 1.76 0 01-1.758 1.757z" fill="#fff"/><path d="M30.788 19.884l-2.07-2.414C30.195 15.803 31 13.77 31 11.668 31 6.337 25.874 2 19.574 2 13.877 2 9.037 5.55 8.183 10.17c1.59-.54 3.372-.846 5.18-.846 7.697 0 14.02 5.375 14.113 12.011h2.645c.75 0 1.154-.884.667-1.45z" fill="#fff"/></svg>