<svg width="22" height="22" fill="none" xmlns="http://www.w3.org/2000/svg"><mask id="a" style="mask-type:luminance" maskUnits="userSpaceOnUse" x="0" y="0" width="22" height="22"><path d="M0 0h22v22H0V0z" fill="#fff"/><path fill-rule="evenodd" clip-rule="evenodd" d="M22 0H0v22h22V0zm-1.742 20.258H1.742V1.742h18.516v18.516z" fill="#fff"/></mask><g mask="url(#a)" fill-rule="evenodd" clip-rule="evenodd" fill="#80787A"><path d="M-.02 22.011h11.024c6.081 0 11.011-4.93 11.011-11.011 0-6.082-4.93-11.012-11.011-11.012C4.922-.012-.008 4.918-.008 11c0 2.195.644 4.243 1.752 5.961l-1.764 5.05zm2.453-1.741L3.68 16.7l-.258-.366A9.223 9.223 0 011.734 11a9.27 9.27 0 119.27 9.27h-8.57z"/><path d="M15.329 14.765c-.71.709-1.725.873-2.756.864-1.482-.013-2.911-.98-4.076-2.146-1.162-1.162-2.109-2.569-2.122-4.052-.01-1.036.149-2.05.856-2.756.24-.241.47-.303.625-.304h.008a.56.56 0 01.485.29l.359.638c.12.254.16.402.166.486v.026a.176.176 0 01-.014.016l-.009.009-1.096 1.162.126.47.841-.226-.84.225v.005l.002.007.006.02a3.631 3.631 0 00.09.277c.062.177.157.423.292.706a7.086 7.086 0 001.357 1.962v.001a6.874 6.874 0 001.957 1.345 7.06 7.06 0 00.916.349l.063.018.02.005.007.002h.004l.212-.844-.211.845.495.124 1.091-1.16a.223.223 0 01.03-.024h.006c.06.003.197.034.473.176l.65.365a.56.56 0 01.29.486v.007c0 .154-.062.385-.303.626zm-1.111-1.663h-.001zm-1.659-.788a5.14 5.14 0 01-1.698-1.101 5.348 5.348 0 01-1.015-1.476 5.986 5.986 0 01-.126-.284l.382-.405c.4-.406.541-.894.51-1.375-.028-.434-.195-.838-.345-1.152l-.013-.025-.386-.688a2.302 2.302 0 00-2.008-1.18l.002.872v-.871h-.019c-.63.005-1.293.263-1.844.814C4.772 6.67 4.623 8.306 4.633 9.446c.02 2.188 1.38 4.017 2.632 5.269 1.25 1.25 3.102 2.636 5.293 2.655 1.145.01 2.777-.148 4.002-1.373.551-.551.81-1.214.815-1.845l-1.18-.237 1.18.24v-.003s.042-.402 0-.016c.042-1.303-1.18-2.008-1.18-2.008l-3.636.186 4.816 1.822zm3.636-.186l-.676-.38-.013-.007c-.345-.179-.763-.356-1.21-.376a1.757 1.757 0 00-1.35.538l-.01.01-.377.401M8.878 7.806l-.001.001z"/></g></svg>