<svg width="33" height="33" fill="none" xmlns="http://www.w3.org/2000/svg"><path d="M17 2C8.729 2 2 8.729 2 17c0 2.91.834 5.716 2.418 8.152l-2.337 5.454a1 1 0 001.313 1.313l5.454-2.338A14.88 14.88 0 0017 32c8.271 0 15-6.729 15-15S25.271 2 17 2zm7.7 20.37s-1.248 1.599-2.15 1.973c-2.29.948-5.525 0-9.21-3.684-3.683-3.684-4.631-6.919-3.683-9.21.374-.902 1.974-2.148 1.974-2.148a1.165 1.165 0 011.496.093l1.81 1.81a1.003 1.003 0 010 1.413L13.8 13.752s-.46 1.38 2.303 4.144c2.762 2.763 4.144 2.303 4.144 2.303l1.135-1.136a1.003 1.003 0 011.414 0l1.81 1.81c.388.389.43 1.062.092 1.496z" fill="#fff"/></svg>