<svg width="105" height="133" fill="none" xmlns="http://www.w3.org/2000/svg"><g clip-path="url(#clip0_155_112598)" stroke="#AEA8A5" stroke-width=".939" stroke-miterlimit="10" stroke-linecap="round" stroke-linejoin="round"><path d="M60.428 83.907c-4.597 0-8.349 3.75-8.349 8.345v30.291c0 4.595 3.752 8.345 8.35 8.345 4.597 0 8.349-3.75 8.349-8.345v-30.29c0-4.633-3.752-8.346-8.35-8.346z"/><path d="M67.011 127.579l-6.583-8.859-6.584 8.859v.037m-.036-40.436l6.62 8.822 6.62-8.823m-6.62 31.578V96.002m59.623-24.74c0-4.595-3.752-8.345-8.35-8.345H81.393c-4.597 0-8.35 3.75-8.35 8.345 0 4.595 3.753 8.344 8.35 8.344h30.308c4.635 0 8.35-3.75 8.35-8.344z"/><path d="M76.391 77.842l8.828-6.58-8.828-6.58h-.074m8.865 6.58h22.767m-60.174 0c0-4.595-3.752-8.345-8.35-8.345H9.119c-4.598 0-8.35 3.75-8.35 8.345 0 4.595 3.752 8.344 8.35 8.344h30.308c4.597 0 8.35-3.75 8.35-8.344z"/><path d="M4.079 77.842l8.827-6.58-8.827-6.58h-.037m40.459-.037l-8.827 6.617 8.827 6.617m-31.595-6.617h22.731m24.791-59.626c-4.597 0-8.349 3.75-8.349 8.344v30.291c0 4.595 3.752 8.345 8.35 8.345 4.597 0 8.349-3.75 8.349-8.345v-30.29c0-4.596-3.752-8.346-8.35-8.346z"/><path d="M67.011 55.307l-6.583-8.822-6.584 8.822v.037m-.036-40.437l6.62 8.86 6.62-8.86m-6.62 31.578V23.767"/></g><defs><clipPath id="clip0_155_112598"><path fill="#fff" d="M0 0h105v133H0z"/></clipPath></defs></svg>